<svg id="Layer_1" data-name="Layer 1" xmlns="http://www.w3.org/2000/svg" xmlns:xlink="http://www.w3.org/1999/xlink" width="1920" height="1080" viewBox="0 0 1920 1080"><defs><style>.cls-1{fill:#e6e6e6;}.cls-2,.cls-3{fill:#3fa9f5;}.cls-25,.cls-3{stroke:#3f84f5;}.cls-10,.cls-11,.cls-12,.cls-16,.cls-17,.cls-18,.cls-20,.cls-25,.cls-3,.cls-4,.cls-5,.cls-6,.cls-8,.cls-9{stroke-miterlimit:10;}.cls-25,.cls-3,.cls-4,.cls-5{stroke-width:5px;}.cls-4,.cls-7{fill:#fff;}.cls-10,.cls-11,.cls-12,.cls-16,.cls-17,.cls-4,.cls-5,.cls-8,.cls-9{stroke:#000;}.cls-5{fill:#333;}.cls-6{stroke:#fff;}.cls-12,.cls-6{stroke-width:0.5px;}.cls-8{fill:#ff7bac;}.cls-10,.cls-11,.cls-9{stroke-width:2px;}.cls-9{fill:url(#linear-gradient);}.cls-10{fill:#006837;}.cls-11{fill:salmon;}.cls-12{fill:#7ac943;}.cls-13{fill:#ffed7d;}.cls-14{opacity:0.45;}.cls-15{fill:#a67c52;}.cls-17{stroke-width:4px;}.cls-18{fill:none;stroke:#8c6239;stroke-width:7px;}.cls-19{fill:#ccc;}.cls-20,.cls-21{fill:#f58add;}.cls-20{stroke:#ff0601;stroke-width:3px;}.cls-22{fill:#ff0601;}.cls-23{fill:#785944;}.cls-24{fill:#a67b51;}.cls-26{fill:#3f84f5;}</style><linearGradient id="linear-gradient" x1="509.17" y1="440.15" x2="508.52" y2="411.44" gradientUnits="userSpaceOnUse"><stop offset="0" stop-color="#fff"/><stop offset="0.58" stop-color="red"/></linearGradient></defs><title>baggrund</title><path class="cls-1" d="M1571.25,565l-823,.5,31.08-15L1538,550Z"/><ellipse class="cls-2" cx="488.75" cy="397.48" rx="113.5" ry="91"/><ellipse class="cls-3" cx="490.81" cy="397.24" rx="85.86" ry="68.84"/><ellipse class="cls-4" cx="492.27" cy="364.58" rx="62.98" ry="19.54"/><path class="cls-5" d="M545.79,439.69a160.64,160.64,0,0,1-110.52-2.09,7.21,7.21,0,0,1-4.8-2.92,10,10,0,0,1-1.52-3.14s-.67-4-.67-4.18V383.07c0-2.09.12-4.18.17-6.27.16-7.2.31-12.06.84-12.12.34,0,.35,2,1.52,4.18a9.62,9.62,0,0,0,4.46,4.18A105.22,105.22,0,0,0,458.16,381s13.77,3,38.5,3.13c0,0,24.77.75,45.42-7.52a43.66,43.66,0,0,0,5.91-2.92c1.35-.83,1.25-.9,2.87-1.88,2-1.22,2.63-1.36,3.2-2.3a8.86,8.86,0,0,0,1-3.56c.12,0,0,10.67,0,11.91,0,0,0,.25,0,4q.07,22.47.17,44.93a14.36,14.36,0,0,1-.68,4.8A12.69,12.69,0,0,1,545.79,439.69Z"/><ellipse class="cls-6" cx="475.64" cy="407.41" rx="9.46" ry="11.7"/><ellipse class="cls-6" cx="538.45" cy="403.44" rx="9.46" ry="11.7"/><ellipse class="cls-7" cx="538.36" cy="399.78" rx="4.22" ry="5.22"/><ellipse class="cls-7" cx="475.21" cy="402.6" rx="3.88" ry="4.91"/><ellipse class="cls-8" cx="476.23" cy="427.05" rx="12.07" ry="5.85"/><ellipse class="cls-8" cx="540.95" cy="423.29" rx="12.04" ry="5.3" transform="translate(-70.69 110.72) rotate(-10.97)"/><path class="cls-9" d="M517.16,437.39a18.05,18.05,0,0,1-7.33,4c-1.64.51-4.15.51-7.77-2.09-.76-1.06-1.74-2.09-2.7-1.88-1.16.26-1.76,2.16-1.86,2.09s.64-1.77,1.18-3.34a32.74,32.74,0,0,0,1-3.55,23.44,23.44,0,0,0,.5-3.55,13.74,13.74,0,0,0-.84-6.27c-.15-.41-.12-.28-.51-1.26a14.3,14.3,0,0,1-1-2.92c.1-.08.57,1,1.35,1.88a5.34,5.34,0,0,0,3.88,1.67,31.94,31.94,0,0,0,6.25.21,32.59,32.59,0,0,0,7.77-1.46,5.34,5.34,0,0,0,1.85-1.47,10.57,10.57,0,0,0,1.36-2.5,18.73,18.73,0,0,1-1,3.13c-.13.34-.21.52-.26.66a16.92,16.92,0,0,0-1.09,6.45,21.24,21.24,0,0,0,.51,3.55,25.79,25.79,0,0,0,1,3.76,29.16,29.16,0,0,1,1.18,3.13c-.1.09-.53-1-1.35-1.25S517.48,437.06,517.16,437.39Z"/><ellipse class="cls-10" cx="491.89" cy="363.43" rx="34.99" ry="8.98"/><path class="cls-11" d="M504.59,372.09l-18.91.22a22.17,22.17,0,0,1-1.85-5c-.15-.62-.12-.59-.68-7a10,10,0,0,1,.17-4.38,5.81,5.81,0,0,1,1.35-2.19,13,13,0,0,1,7.6-2.4,13.23,13.23,0,0,1,7.93,3.06c1.25,3.36,2.17,5.8,2.7,7.22,1.09,2.87,1.71,4.44,1.86,6.78A16.15,16.15,0,0,1,504.59,372.09Z"/><path class="cls-12" d="M468.55,365l-6.93.84v-2.51l6.93.63Z"/><path class="cls-12" d="M475.71,366.43l-5.79,1.88-.29-2.44,6-.46Z"/><path class="cls-12" d="M476.06,363.22l-5.91-.42-.17-1.25,5.74.62Z"/><path class="cls-12" d="M483.66,369.49l-5-1.31-.17-1.25,4.28.47Z"/><path class="cls-12" d="M482.14,364.26l-3.72,1.67-.17-1,3.89-1.67Z"/><path class="cls-12" d="M476.67,369.5l-2.05.12,0-.67,2.15-.08Z"/><path class="cls-12" d="M481.32,362.52l-2.74.09-.12-1,2.87,0Z"/><path class="cls-12" d="M466.18,359,462,360.77l-.14-.86,3.87-1.71Z"/><path class="cls-12" d="M460.53,360.68l.05,3.17-.68,0-.07-2.92Z"/><path class="cls-12" d="M482.58,360.74l-4.87-3,.48-.88,4.52,2.7Z"/><path class="cls-12" d="M476.84,358l-5.43.05.11-1.06,5-.09Z"/><path class="cls-12" d="M468.75,363.22l-2.72-.46V361.5l2.51.37Z"/><path class="cls-12" d="M469.52,359.31l-.89-.06V358.2l.75-.06Z"/><path class="cls-12" d="M468.34,367.52l-.89-.07v-1l.75-.07Z"/><path class="cls-12" d="M475.89,360.5l-5.35-.47.12-1.2,5.46.57Z"/><path class="cls-12" d="M516.93,369.7c-1.43.26-2.88.54-4.33.83q-3.51.71-6.91,1.46a41.43,41.43,0,0,0-.8-7.94,37.48,37.48,0,0,0-3.21-9.4l16.37,2.72c1.74.56,8.88,3,8.83,6.06,0,1.45-1.66,2.64-3.21,3.76A13.09,13.09,0,0,1,516.93,369.7Z"/><rect class="cls-13" x="0.25" y="-3.52" width="1920" height="570"/><g class="cls-14"><polygon points="727.2 98.82 761.2 98.82 763.37 -7.48 729.37 -7.48 727.2 98.82"/><polygon points="693.2 98.82 727.2 98.82 729.37 -7.48 695.37 -7.48 693.2 98.82"/><polygon points="659.2 98.82 693.2 98.82 695.37 -7.48 661.37 -7.48 659.2 98.82"/><polygon points="625.2 98.82 659.2 98.82 661.37 -7.48 627.37 -7.48 625.2 98.82"/><polygon points="591.2 98.82 625.2 98.82 627.37 -7.48 593.37 -7.48 591.2 98.82"/><polygon points="557.2 98.82 591.2 98.82 593.37 -7.48 559.37 -7.48 557.2 98.82"/><polygon points="523.2 98.82 557.2 98.82 559.37 -7.48 525.37 -7.48 523.2 98.82"/><polygon points="489.2 98.82 523.2 98.82 525.37 -7.48 491.37 -7.48 489.2 98.82"/><polygon points="455.2 98.82 489.2 98.82 491.37 -7.48 457.37 -7.48 455.2 98.82"/><polygon points="724.54 204.62 758.54 204.62 760.71 98.32 726.71 98.32 724.54 204.62"/><polygon points="690.54 204.62 724.54 204.62 726.71 98.32 692.71 98.32 690.54 204.62"/><polygon points="656.54 204.62 690.54 204.62 692.71 98.32 658.71 98.32 656.54 204.62"/><polygon points="622.54 204.62 656.54 204.62 658.71 98.32 624.71 98.32 622.54 204.62"/><polygon points="588.54 204.62 622.54 204.62 624.71 98.32 590.71 98.32 588.54 204.62"/><polygon points="554.54 204.62 588.54 204.62 590.71 98.32 556.71 98.32 554.54 204.62"/><polygon points="520.54 204.62 554.54 204.62 556.71 98.32 522.71 98.32 520.54 204.62"/><polygon points="486.54 204.62 520.54 204.62 522.71 98.32 488.71 98.32 486.54 204.62"/><polygon points="452.54 204.62 486.54 204.62 488.71 98.32 454.71 98.32 452.54 204.62"/><polygon points="722.44 301.9 756.44 301.9 758.61 195.6 724.61 195.6 722.44 301.9"/><polygon points="688.44 301.9 722.44 301.9 724.61 195.6 690.61 195.6 688.44 301.9"/><polygon points="654.44 301.9 688.44 301.9 690.61 195.6 656.61 195.6 654.44 301.9"/><polygon points="620.44 301.9 654.44 301.9 656.61 195.6 622.61 195.6 620.44 301.9"/><polygon points="586.44 301.9 620.44 301.9 622.61 195.6 588.61 195.6 586.44 301.9"/><polygon points="552.44 301.9 586.44 301.9 588.61 195.6 554.61 195.6 552.44 301.9"/><polygon points="518.44 301.9 552.44 301.9 554.61 195.6 520.61 195.6 518.44 301.9"/><polygon points="484.44 301.9 518.44 301.9 520.61 195.6 486.61 195.6 484.44 301.9"/><polygon points="450.44 301.9 484.44 301.9 486.61 195.6 452.61 195.6 450.44 301.9"/><polygon points="720.39 408.2 754.39 408.2 756.56 301.9 722.56 301.9 720.39 408.2"/><polygon points="686.39 408.2 720.39 408.2 722.56 301.9 688.56 301.9 686.39 408.2"/><polygon points="652.39 408.2 686.39 408.2 688.56 301.9 654.56 301.9 652.39 408.2"/><polygon points="618.39 408.2 652.39 408.2 654.56 301.9 620.56 301.9 618.39 408.2"/><polygon points="584.39 408.2 618.39 408.2 620.56 301.9 586.56 301.9 584.39 408.2"/><polygon points="550.39 408.2 584.39 408.2 586.56 301.9 552.56 301.9 550.39 408.2"/><polygon points="516.39 408.2 550.39 408.2 552.56 301.9 518.56 301.9 516.39 408.2"/><polygon points="482.39 408.2 516.39 408.2 518.56 301.9 484.56 301.9 482.39 408.2"/><polygon points="448.39 408.2 482.39 408.2 484.56 301.9 450.56 301.9 448.39 408.2"/><polygon points="719.22 514.5 753.22 514.5 755.39 408.2 721.39 408.2 719.22 514.5"/><polygon points="685.22 514.5 719.22 514.5 721.39 408.2 687.39 408.2 685.22 514.5"/><polygon points="651.22 514.5 685.22 514.5 687.39 408.2 653.39 408.2 651.22 514.5"/><polygon points="617.22 514.5 651.22 514.5 653.39 408.2 619.39 408.2 617.22 514.5"/><polygon points="583.22 514.5 617.22 514.5 619.39 408.2 585.39 408.2 583.22 514.5"/><polygon points="549.22 514.5 583.22 514.5 585.39 408.2 551.39 408.2 549.22 514.5"/><polygon points="515.22 514.5 549.22 514.5 551.39 408.2 517.39 408.2 515.22 514.5"/><polygon points="481.22 514.5 515.22 514.5 517.39 408.2 483.39 408.2 481.22 514.5"/><polygon points="447.22 514.5 481.22 514.5 483.39 408.2 449.39 408.2 447.22 514.5"/></g><rect class="cls-7" x="730.14" y="-5.37" width="34" height="106" transform="translate(1494.28 95.27) rotate(180)"/><path class="cls-15" d="M766.14,102.63h-38v-110h38Zm-34-4h30v-102h-30Z"/><rect class="cls-7" x="696.14" y="-5.37" width="34" height="106" transform="translate(1426.28 95.27) rotate(180)"/><path class="cls-15" d="M732.14,102.63h-38v-110h38Zm-34-4h30v-102h-30Z"/><rect class="cls-7" x="662.14" y="-5.37" width="34" height="106" transform="translate(1358.28 95.27) rotate(180)"/><path class="cls-15" d="M698.14,102.63h-38v-110h38Zm-34-4h30v-102h-30Z"/><rect class="cls-7" x="628.14" y="-5.37" width="34" height="106" transform="translate(1290.28 95.27) rotate(180)"/><path class="cls-15" d="M664.14,102.63h-38v-110h38Zm-34-4h30v-102h-30Z"/><rect class="cls-7" x="594.14" y="-5.37" width="34" height="106" transform="translate(1222.28 95.27) rotate(180)"/><path class="cls-15" d="M630.14,102.63h-38v-110h38Zm-34-4h30v-102h-30Z"/><rect class="cls-7" x="560.14" y="-5.37" width="34" height="106" transform="translate(1154.28 95.27) rotate(180)"/><path class="cls-15" d="M596.14,102.63h-38v-110h38Zm-34-4h30v-102h-30Z"/><rect class="cls-7" x="526.14" y="-5.37" width="34" height="106" transform="translate(1086.28 95.27) rotate(180)"/><path class="cls-15" d="M562.14,102.63h-38v-110h38Zm-34-4h30v-102h-30Z"/><rect class="cls-7" x="492.14" y="-5.37" width="34" height="106" transform="translate(1018.28 95.27) rotate(180)"/><path class="cls-15" d="M528.14,102.63h-38v-110h38Zm-34-4h30v-102h-30Z"/><rect class="cls-7" x="458.14" y="-5.37" width="34" height="106" transform="translate(950.28 95.27) rotate(180)"/><path class="cls-15" d="M494.14,102.63h-38v-110h38Zm-34-4h30v-102h-30Z"/><rect class="cls-7" x="729.64" y="100.13" width="34" height="106" transform="translate(1493.28 306.27) rotate(180)"/><path class="cls-15" d="M765.64,208.13h-38v-110h38Zm-34-4h30v-102h-30Z"/><rect class="cls-7" x="695.64" y="100.13" width="34" height="106" transform="translate(1425.28 306.27) rotate(180)"/><path class="cls-15" d="M731.64,208.13h-38v-110h38Zm-34-4h30v-102h-30Z"/><rect class="cls-7" x="661.64" y="100.13" width="34" height="106" transform="translate(1357.28 306.27) rotate(180)"/><path class="cls-15" d="M697.64,208.13h-38v-110h38Zm-34-4h30v-102h-30Z"/><rect class="cls-7" x="627.64" y="100.13" width="34" height="106" transform="translate(1289.28 306.27) rotate(180)"/><path class="cls-15" d="M663.64,208.13h-38v-110h38Zm-34-4h30v-102h-30Z"/><rect class="cls-7" x="593.64" y="100.13" width="34" height="106" transform="translate(1221.28 306.27) rotate(180)"/><path class="cls-15" d="M629.64,208.13h-38v-110h38Zm-34-4h30v-102h-30Z"/><rect class="cls-7" x="559.64" y="100.13" width="34" height="106" transform="translate(1153.28 306.27) rotate(180)"/><path class="cls-15" d="M595.64,208.13h-38v-110h38Zm-34-4h30v-102h-30Z"/><rect class="cls-7" x="525.64" y="100.13" width="34" height="106" transform="translate(1085.28 306.27) rotate(180)"/><path class="cls-15" d="M561.64,208.13h-38v-110h38Zm-34-4h30v-102h-30Z"/><rect class="cls-7" x="491.64" y="100.13" width="34" height="106" transform="translate(1017.28 306.27) rotate(180)"/><path class="cls-15" d="M527.64,208.13h-38v-110h38Zm-34-4h30v-102h-30Z"/><rect class="cls-7" x="457.64" y="100.13" width="34" height="106" transform="translate(949.28 306.27) rotate(180)"/><path class="cls-15" d="M493.64,208.13h-38v-110h38Zm-34-4h30v-102h-30Z"/><rect class="cls-7" x="729.52" y="197.13" width="34" height="106" transform="translate(1493.03 500.27) rotate(180)"/><path class="cls-15" d="M765.52,305.13h-38v-110h38Zm-34-4h30v-102h-30Z"/><rect class="cls-7" x="695.52" y="197.13" width="34" height="106" transform="translate(1425.03 500.27) rotate(180)"/><path class="cls-15" d="M731.52,305.13h-38v-110h38Zm-34-4h30v-102h-30Z"/><rect class="cls-7" x="661.52" y="197.13" width="34" height="106" transform="translate(1357.03 500.27) rotate(180)"/><path class="cls-15" d="M697.52,305.13h-38v-110h38Zm-34-4h30v-102h-30Z"/><rect class="cls-7" x="627.52" y="197.13" width="34" height="106" transform="translate(1289.03 500.27) rotate(180)"/><path class="cls-15" d="M663.52,305.13h-38v-110h38Zm-34-4h30v-102h-30Z"/><rect class="cls-7" x="593.52" y="197.13" width="34" height="106" transform="translate(1221.03 500.27) rotate(180)"/><path class="cls-15" d="M629.52,305.13h-38v-110h38Zm-34-4h30v-102h-30Z"/><rect class="cls-7" x="559.52" y="197.13" width="34" height="106" transform="translate(1153.03 500.27) rotate(180)"/><path class="cls-15" d="M595.52,305.13h-38v-110h38Zm-34-4h30v-102h-30Z"/><rect class="cls-7" x="525.52" y="197.13" width="34" height="106" transform="translate(1085.03 500.27) rotate(180)"/><path class="cls-15" d="M561.52,305.13h-38v-110h38Zm-34-4h30v-102h-30Z"/><rect class="cls-7" x="491.52" y="197.13" width="34" height="106" transform="translate(1017.03 500.27) rotate(180)"/><path class="cls-15" d="M527.52,305.13h-38v-110h38Zm-34-4h30v-102h-30Z"/><rect class="cls-7" x="457.52" y="197.13" width="34" height="106" transform="translate(949.03 500.27) rotate(180)"/><path class="cls-15" d="M493.52,305.13h-38v-110h38Zm-34-4h30v-102h-30Z"/><rect class="cls-7" x="729.64" y="303.13" width="34" height="106" transform="translate(1493.28 712.27) rotate(180)"/><path class="cls-15" d="M765.64,411.13h-38v-110h38Zm-34-4h30v-102h-30Z"/><rect class="cls-7" x="695.64" y="303.13" width="34" height="106" transform="translate(1425.28 712.27) rotate(180)"/><path class="cls-15" d="M731.64,411.13h-38v-110h38Zm-34-4h30v-102h-30Z"/><rect class="cls-7" x="661.64" y="303.13" width="34" height="106" transform="translate(1357.28 712.27) rotate(180)"/><path class="cls-15" d="M697.64,411.13h-38v-110h38Zm-34-4h30v-102h-30Z"/><rect class="cls-7" x="627.64" y="303.13" width="34" height="106" transform="translate(1289.28 712.27) rotate(180)"/><path class="cls-15" d="M663.64,411.13h-38v-110h38Zm-34-4h30v-102h-30Z"/><rect class="cls-7" x="593.64" y="303.13" width="34" height="106" transform="translate(1221.28 712.27) rotate(180)"/><path class="cls-15" d="M629.64,411.13h-38v-110h38Zm-34-4h30v-102h-30Z"/><rect class="cls-7" x="559.64" y="303.13" width="34" height="106" transform="translate(1153.28 712.27) rotate(180)"/><path class="cls-15" d="M595.64,411.13h-38v-110h38Zm-34-4h30v-102h-30Z"/><rect class="cls-7" x="525.64" y="303.13" width="34" height="106" transform="translate(1085.28 712.27) rotate(180)"/><path class="cls-15" d="M561.64,411.13h-38v-110h38Zm-34-4h30v-102h-30Z"/><rect class="cls-7" x="491.64" y="303.13" width="34" height="106" transform="translate(1017.28 712.27) rotate(180)"/><path class="cls-15" d="M527.64,411.13h-38v-110h38Zm-34-4h30v-102h-30Z"/><rect class="cls-7" x="459.52" y="303.13" width="32.12" height="106" transform="translate(951.16 712.27) rotate(180)"/><path class="cls-15" d="M493.64,411.13H457.52v-110h36.12Zm-32.12-4h28.12v-102H461.52Z"/><rect class="cls-7" x="730.64" y="409.13" width="34" height="106" transform="translate(1495.28 924.27) rotate(180)"/><path class="cls-15" d="M766.64,517.13h-38v-110h38Zm-34-4h30v-102h-30Z"/><rect class="cls-7" x="696.64" y="409.13" width="34" height="106" transform="translate(1427.28 924.27) rotate(180)"/><path class="cls-15" d="M732.64,517.13h-38v-110h38Zm-34-4h30v-102h-30Z"/><rect class="cls-7" x="662.64" y="409.13" width="34" height="106" transform="translate(1359.28 924.27) rotate(180)"/><path class="cls-15" d="M698.64,517.13h-38v-110h38Zm-34-4h30v-102h-30Z"/><rect class="cls-7" x="628.64" y="409.13" width="34" height="106" transform="translate(1291.28 924.27) rotate(180)"/><path class="cls-15" d="M664.64,517.13h-38v-110h38Zm-34-4h30v-102h-30Z"/><rect class="cls-7" x="594.64" y="409.13" width="34" height="106" transform="translate(1223.28 924.27) rotate(180)"/><path class="cls-15" d="M630.64,517.13h-38v-110h38Zm-34-4h30v-102h-30Z"/><rect class="cls-7" x="560.64" y="409.13" width="34" height="106" transform="translate(1155.28 924.27) rotate(180)"/><path class="cls-15" d="M596.64,517.13h-38v-110h38Zm-34-4h30v-102h-30Z"/><rect class="cls-7" x="526.64" y="409.13" width="34" height="106" transform="translate(1087.28 924.27) rotate(180)"/><path class="cls-15" d="M562.64,517.13h-38v-110h38Zm-34-4h30v-102h-30Z"/><rect class="cls-7" x="492.64" y="409.13" width="34" height="106" transform="translate(1019.28 924.27) rotate(180)"/><path class="cls-15" d="M528.64,517.13h-38v-110h38Zm-34-4h30v-102h-30Z"/><rect class="cls-7" x="458.64" y="409.13" width="34" height="106" transform="translate(951.28 924.27) rotate(180)"/><path class="cls-15" d="M494.64,517.13h-38v-110h38Zm-34-4h30v-102h-30Z"/><g class="cls-14"><polygon points="1110.57 101.16 1076.57 101.16 1074.4 -5.13 1108.4 -5.13 1110.57 101.16"/><polygon points="1144.57 101.16 1110.57 101.16 1108.4 -5.13 1142.4 -5.13 1144.57 101.16"/><polygon points="1178.57 101.16 1144.57 101.16 1142.4 -5.13 1176.4 -5.13 1178.57 101.16"/><polygon points="1212.57 101.16 1178.57 101.16 1176.4 -5.13 1210.4 -5.13 1212.57 101.16"/><polygon points="1246.57 101.16 1212.57 101.16 1210.4 -5.13 1244.4 -5.13 1246.57 101.16"/><polygon points="1280.57 101.16 1246.57 101.16 1244.4 -5.13 1278.4 -5.13 1280.57 101.16"/><polygon points="1314.57 101.16 1280.57 101.16 1278.4 -5.13 1312.4 -5.13 1314.57 101.16"/><polygon points="1348.57 101.16 1314.57 101.16 1312.4 -5.13 1346.4 -5.13 1348.57 101.16"/><polygon points="1382.57 101.16 1348.57 101.16 1346.4 -5.13 1380.4 -5.13 1382.57 101.16"/><polygon points="1113.22 206.96 1079.22 206.96 1077.06 100.66 1111.06 100.66 1113.22 206.96"/><polygon points="1147.22 206.96 1113.22 206.96 1111.06 100.66 1145.06 100.66 1147.22 206.96"/><polygon points="1181.22 206.96 1147.22 206.96 1145.06 100.66 1179.06 100.66 1181.22 206.96"/><polygon points="1215.22 206.96 1181.22 206.96 1179.06 100.66 1213.06 100.66 1215.22 206.96"/><polygon points="1249.22 206.96 1215.22 206.96 1213.06 100.66 1247.06 100.66 1249.22 206.96"/><polygon points="1283.22 206.96 1249.22 206.96 1247.06 100.66 1281.06 100.66 1283.22 206.96"/><polygon points="1317.22 206.96 1283.22 206.96 1281.06 100.66 1315.06 100.66 1317.22 206.96"/><polygon points="1351.22 206.96 1317.22 206.96 1315.06 100.66 1349.06 100.66 1351.22 206.96"/><polygon points="1385.22 206.96 1351.22 206.96 1349.06 100.66 1383.06 100.66 1385.22 206.96"/><polygon points="1115.33 304.24 1081.33 304.24 1079.16 197.94 1113.16 197.94 1115.33 304.24"/><polygon points="1149.33 304.24 1115.33 304.24 1113.16 197.94 1147.16 197.94 1149.33 304.24"/><polygon points="1183.33 304.24 1149.33 304.24 1147.16 197.94 1181.16 197.94 1183.33 304.24"/><polygon points="1217.33 304.24 1183.33 304.24 1181.16 197.94 1215.16 197.94 1217.33 304.24"/><polygon points="1251.33 304.24 1217.33 304.24 1215.16 197.94 1249.16 197.94 1251.33 304.24"/><polygon points="1285.33 304.24 1251.33 304.24 1249.16 197.94 1283.16 197.94 1285.33 304.24"/><polygon points="1319.33 304.24 1285.33 304.24 1283.16 197.94 1317.16 197.94 1319.33 304.24"/><polygon points="1353.33 304.24 1319.33 304.24 1317.16 197.94 1351.16 197.94 1353.33 304.24"/><polygon points="1387.33 304.24 1353.33 304.24 1351.16 197.94 1385.16 197.94 1387.33 304.24"/><polygon points="1117.38 410.54 1083.38 410.54 1081.21 304.24 1115.21 304.24 1117.38 410.54"/><polygon points="1151.38 410.54 1117.38 410.54 1115.21 304.24 1149.21 304.24 1151.38 410.54"/><polygon points="1185.38 410.54 1151.38 410.54 1149.21 304.24 1183.21 304.24 1185.38 410.54"/><polygon points="1219.38 410.54 1185.38 410.54 1183.21 304.24 1217.21 304.24 1219.38 410.54"/><polygon points="1253.38 410.54 1219.38 410.54 1217.21 304.24 1251.21 304.24 1253.38 410.54"/><polygon points="1287.38 410.54 1253.38 410.54 1251.21 304.24 1285.21 304.24 1287.38 410.54"/><polygon points="1321.38 410.54 1287.38 410.54 1285.21 304.24 1319.21 304.24 1321.38 410.54"/><polygon points="1355.38 410.54 1321.38 410.54 1319.21 304.24 1353.21 304.24 1355.38 410.54"/><polygon points="1389.38 410.54 1355.38 410.54 1353.21 304.24 1387.21 304.24 1389.38 410.54"/><polygon points="1118.54 516.84 1084.54 516.84 1082.38 410.54 1116.38 410.54 1118.54 516.84"/><polygon points="1152.54 516.84 1118.54 516.84 1116.38 410.54 1150.38 410.54 1152.54 516.84"/><polygon points="1186.54 516.84 1152.54 516.84 1150.38 410.54 1184.38 410.54 1186.54 516.84"/><polygon points="1220.54 516.84 1186.54 516.84 1184.38 410.54 1218.38 410.54 1220.54 516.84"/><polygon points="1254.54 516.84 1220.54 516.84 1218.38 410.54 1252.38 410.54 1254.54 516.84"/><polygon points="1288.54 516.84 1254.54 516.84 1252.38 410.54 1286.38 410.54 1288.54 516.84"/><polygon points="1322.54 516.84 1288.54 516.84 1286.38 410.54 1320.38 410.54 1322.54 516.84"/><polygon points="1356.54 516.84 1322.54 516.84 1320.38 410.54 1354.38 410.54 1356.54 516.84"/><polygon points="1390.54 516.84 1356.54 516.84 1354.38 410.54 1388.38 410.54 1390.54 516.84"/></g><rect class="cls-7" x="1073.63" y="-3.02" width="34" height="106"/><path class="cls-15" d="M1109.63,105h-38V-5h38Zm-34-4h30V-1h-30Z"/><rect class="cls-7" x="1107.63" y="-3.02" width="34" height="106"/><path class="cls-15" d="M1143.63,105h-38V-5h38Zm-34-4h30V-1h-30Z"/><rect class="cls-7" x="1141.63" y="-3.02" width="34" height="106"/><path class="cls-15" d="M1177.63,105h-38V-5h38Zm-34-4h30V-1h-30Z"/><rect class="cls-7" x="1175.63" y="-3.02" width="34" height="106"/><path class="cls-15" d="M1211.63,105h-38V-5h38Zm-34-4h30V-1h-30Z"/><rect class="cls-7" x="1209.63" y="-3.02" width="34" height="106"/><path class="cls-15" d="M1245.63,105h-38V-5h38Zm-34-4h30V-1h-30Z"/><rect class="cls-7" x="1243.63" y="-3.02" width="34" height="106"/><path class="cls-15" d="M1279.63,105h-38V-5h38Zm-34-4h30V-1h-30Z"/><rect class="cls-7" x="1277.63" y="-3.02" width="34" height="106"/><path class="cls-15" d="M1313.63,105h-38V-5h38Zm-34-4h30V-1h-30Z"/><rect class="cls-7" x="1311.63" y="-3.02" width="34" height="106"/><path class="cls-15" d="M1347.63,105h-38V-5h38Zm-34-4h30V-1h-30Z"/><rect class="cls-7" x="1345.63" y="-3.02" width="34" height="106"/><path class="cls-15" d="M1381.63,105h-38V-5h38Zm-34-4h30V-1h-30Z"/><rect class="cls-7" x="1074.13" y="102.48" width="34" height="106"/><path class="cls-15" d="M1110.13,210.48h-38v-110h38Zm-34-4h30v-102h-30Z"/><rect class="cls-7" x="1108.13" y="102.48" width="34" height="106"/><path class="cls-15" d="M1144.13,210.48h-38v-110h38Zm-34-4h30v-102h-30Z"/><rect class="cls-7" x="1142.13" y="102.48" width="34" height="106"/><path class="cls-15" d="M1178.13,210.48h-38v-110h38Zm-34-4h30v-102h-30Z"/><rect class="cls-7" x="1176.13" y="102.48" width="34" height="106"/><path class="cls-15" d="M1212.13,210.48h-38v-110h38Zm-34-4h30v-102h-30Z"/><rect class="cls-7" x="1210.13" y="102.48" width="34" height="106"/><path class="cls-15" d="M1246.13,210.48h-38v-110h38Zm-34-4h30v-102h-30Z"/><rect class="cls-7" x="1244.13" y="102.48" width="34" height="106"/><path class="cls-15" d="M1280.13,210.48h-38v-110h38Zm-34-4h30v-102h-30Z"/><rect class="cls-7" x="1278.13" y="102.48" width="34" height="106"/><path class="cls-15" d="M1314.13,210.48h-38v-110h38Zm-34-4h30v-102h-30Z"/><rect class="cls-7" x="1312.13" y="102.48" width="34" height="106"/><path class="cls-15" d="M1348.13,210.48h-38v-110h38Zm-34-4h30v-102h-30Z"/><rect class="cls-7" x="1346.13" y="102.48" width="34" height="106"/><path class="cls-15" d="M1382.13,210.48h-38v-110h38Zm-34-4h30v-102h-30Z"/><rect class="cls-7" x="1074.25" y="199.48" width="34" height="106"/><path class="cls-15" d="M1110.25,307.48h-38v-110h38Zm-34-4h30v-102h-30Z"/><rect class="cls-7" x="1108.25" y="199.48" width="34" height="106"/><path class="cls-15" d="M1144.25,307.48h-38v-110h38Zm-34-4h30v-102h-30Z"/><rect class="cls-7" x="1142.25" y="199.48" width="34" height="106"/><path class="cls-15" d="M1178.25,307.48h-38v-110h38Zm-34-4h30v-102h-30Z"/><rect class="cls-7" x="1176.25" y="199.48" width="34" height="106"/><path class="cls-15" d="M1212.25,307.48h-38v-110h38Zm-34-4h30v-102h-30Z"/><rect class="cls-7" x="1210.25" y="199.48" width="34" height="106"/><path class="cls-15" d="M1246.25,307.48h-38v-110h38Zm-34-4h30v-102h-30Z"/><rect class="cls-7" x="1244.25" y="199.48" width="34" height="106"/><path class="cls-15" d="M1280.25,307.48h-38v-110h38Zm-34-4h30v-102h-30Z"/><rect class="cls-7" x="1278.25" y="199.48" width="34" height="106"/><path class="cls-15" d="M1314.25,307.48h-38v-110h38Zm-34-4h30v-102h-30Z"/><rect class="cls-7" x="1312.25" y="199.48" width="34" height="106"/><path class="cls-15" d="M1348.25,307.48h-38v-110h38Zm-34-4h30v-102h-30Z"/><rect class="cls-7" x="1346.25" y="199.48" width="34" height="106"/><path class="cls-15" d="M1382.25,307.48h-38v-110h38Zm-34-4h30v-102h-30Z"/><rect class="cls-7" x="1074.13" y="305.48" width="34" height="106"/><path class="cls-15" d="M1110.13,413.48h-38v-110h38Zm-34-4h30v-102h-30Z"/><rect class="cls-7" x="1108.13" y="305.48" width="34" height="106"/><path class="cls-15" d="M1144.13,413.48h-38v-110h38Zm-34-4h30v-102h-30Z"/><rect class="cls-7" x="1142.13" y="305.48" width="34" height="106"/><path class="cls-15" d="M1178.13,413.48h-38v-110h38Zm-34-4h30v-102h-30Z"/><rect class="cls-7" x="1176.13" y="305.48" width="34" height="106"/><path class="cls-15" d="M1212.13,413.48h-38v-110h38Zm-34-4h30v-102h-30Z"/><rect class="cls-7" x="1210.13" y="305.48" width="34" height="106"/><path class="cls-15" d="M1246.13,413.48h-38v-110h38Zm-34-4h30v-102h-30Z"/><rect class="cls-7" x="1244.13" y="305.48" width="34" height="106"/><path class="cls-15" d="M1280.13,413.48h-38v-110h38Zm-34-4h30v-102h-30Z"/><rect class="cls-7" x="1278.13" y="305.48" width="34" height="106"/><path class="cls-15" d="M1314.13,413.48h-38v-110h38Zm-34-4h30v-102h-30Z"/><rect class="cls-7" x="1312.13" y="305.48" width="34" height="106"/><path class="cls-15" d="M1348.13,413.48h-38v-110h38Zm-34-4h30v-102h-30Z"/><rect class="cls-7" x="1346.13" y="305.48" width="32.12" height="106"/><path class="cls-15" d="M1380.25,413.48h-36.12v-110h36.12Zm-32.12-4h28.12v-102h-28.12Z"/><rect class="cls-7" x="1073.13" y="411.48" width="34" height="106"/><path class="cls-15" d="M1109.13,519.48h-38v-110h38Zm-34-4h30v-102h-30Z"/><rect class="cls-7" x="1107.13" y="411.48" width="34" height="106"/><path class="cls-15" d="M1143.13,519.48h-38v-110h38Zm-34-4h30v-102h-30Z"/><rect class="cls-7" x="1141.13" y="411.48" width="34" height="106"/><path class="cls-15" d="M1177.13,519.48h-38v-110h38Zm-34-4h30v-102h-30Z"/><rect class="cls-7" x="1175.13" y="411.48" width="34" height="106"/><path class="cls-15" d="M1211.13,519.48h-38v-110h38Zm-34-4h30v-102h-30Z"/><rect class="cls-7" x="1209.13" y="411.48" width="34" height="106"/><path class="cls-15" d="M1245.13,519.48h-38v-110h38Zm-34-4h30v-102h-30Z"/><rect class="cls-7" x="1243.13" y="411.48" width="34" height="106"/><path class="cls-15" d="M1279.13,519.48h-38v-110h38Zm-34-4h30v-102h-30Z"/><rect class="cls-7" x="1277.13" y="411.48" width="34" height="106"/><path class="cls-15" d="M1313.13,519.48h-38v-110h38Zm-34-4h30v-102h-30Z"/><rect class="cls-7" x="1311.13" y="411.48" width="34" height="106"/><path class="cls-15" d="M1347.13,519.48h-38v-110h38Zm-34-4h30v-102h-30Z"/><rect class="cls-7" x="1345.13" y="411.48" width="34" height="106"/><path class="cls-15" d="M1381.13,519.48h-38v-110h38Zm-34-4h30v-102h-30Z"/><g class="cls-14"><ellipse class="cls-16" cx="1667.87" cy="208.73" rx="98.64" ry="102.3" transform="translate(1003.41 1752.7) rotate(-73.85)"/><polygon points="1660.57 168.85 1591.57 168.85 1591.51 165.82 1660.51 165.82 1660.57 168.85"/><path d="M1658.51,165.82l-6.18-7.91c-1.27,2.64-2.54,5.27-3.82,7.91l5.06,3Z"/><polygon points="1655.95 187.53 1595.45 187.53 1595.39 184.64 1655.89 184.64 1655.95 187.53"/><path d="M1654.14,184.64l-5.43-7.55q-1.68,3.76-3.34,7.55l4.44,2.89Z"/><polygon points="1664.8 205.02 1588.8 205.02 1588.74 202.13 1664.74 202.13 1664.8 205.02"/><path d="M1662.54,202.13l-6.78-7.55-4.24,7.55,5.57,2.89Z"/><polygon points="1664.52 226.36 1590.23 226.36 1590.17 223.47 1664.46 223.47 1664.52 226.36"/><path d="M1662.49,223.25l-6-6.67-3.23,6.19,4.81,2.68Z"/><polygon points="1727.09 185.67 1677.41 185.67 1677.35 182.78 1727.03 182.78 1727.09 185.67"/><path d="M1725.27,183.09l-5.16-8.48-2.73,7.9,4.52,2.49Z"/><polygon points="1740.39 159.66 1676.89 159.66 1676.83 156.77 1740.33 156.77 1740.39 159.66"/><path d="M1743.39,159.77l-6.14-7.07c-.63,2-1.25,4-1.88,6.06q2,2.13,4,4.27Z"/><path d="M1735.6,269.8c-.75-.29-.92-1.79-1.06-3-.28-2.44.53-3.24-.08-4-.77-1-2.28-.09-5-1-1.33-.44-3.14-1.38-3-2,.12-.8,3.33-1.21,6-1,2.49.18,3.91.86,5,0a3.05,3.05,0,0,0,1-2q-.87-48.18-1.73-96.36h3.79l.94,46.89.61,30.29.18,9.08c.33,4.53.89,7.55.25,12.12a20.92,20.92,0,0,1-.92,4C1740,266.68,1737,270.33,1735.6,269.8Z"/><polygon points="1720.86 208.22 1689.36 208.22 1689.3 204.85 1720.8 204.85 1720.86 208.22"/><path d="M1720.34,207.21q-3.1-3.75-6.22-7.51c-.93,2.17-1.87,4.34-2.8,6.5l4.12,6.06C1717.08,210.58,1718.71,208.89,1720.34,207.21Z"/><path d="M1691.28,204.18l-4.38-4,.44,7h3Z"/><path d="M1691.32,206.2l.77,38.36c-1.3,1.35-2.61,2.69-3.92,4l-.85-42.4Z"/><polygon points="1716.97 238.51 1688.97 238.51 1688.9 235.09 1716.9 235.09 1716.97 238.51"/><path d="M1716.3,205.19l.75,37.35c-1,.68-2,1.35-3,2l-.79-39.37Z"/><path d="M1618.4,210.24l-2.73,13.12a107.23,107.23,0,0,1-8.54,23.22,60.62,60.62,0,0,1-10.69,15.14c-.82.84-5.77,5.89-6.9,5-.47-.35-.15-1.6,0-2a7.58,7.58,0,0,1,2.92-4c4.2-3.09,11.84-16.14,15.49-25.23.68-1.69,2-6.51,4.68-16.15,2-7.18,3-10.76,3.71-14.14,2-8.83,2-14.88,2.52-24.22.38-7.63,1-18.59,2.35-32.31l7,2a3.82,3.82,0,0,1,.06,3c-.62,1.17-1.81,1-3,2-.49.42-1.51,1.48-1.88,6.06a36.31,36.31,0,0,0,.14,7.06c.27,2.53-.07,5.72-.75,12.12C1621.57,192.71,1618.81,208,1618.4,210.24Z"/><path d="M1629.13,246.58c.93,3.36,1,8.28-.81,9.09-1,.41-2.28-.33-3-1-2.08-1.91-.7-4.42-2.19-9.09a27.75,27.75,0,0,0-3.12-6c-2.7-4.48-4.37-5.77-4.12-6.06C1616.44,232.8,1626.67,237.69,1629.13,246.58Z"/><path d="M1645.5,264.75l-1.92,4c-2.3,2.17-3.39,2.31-4,2-1.47-.75-.15-4.59-2.12-6.06-1.07-.79-2,.06-4-1-.77-.4-2.19-1.31-2-2s1.76-.88,3-1c3.57-.37,4.76.6,6,0,2.08-1,1.92-5.32,1.85-7.06-.19-5.48-.32-11.87-.4-20.19l-.2-10.1-.43-21.2h4l.27,13.13c.08,4,.13,8.07.24,12.11.42,16.17,1.46,20.51.61,30.29C1646.09,260.78,1645.73,263.26,1645.5,264.75Z"/><polygon class="cls-17" points="1804.64 396.49 1527.64 396.49 1520.43 37.12 1797.43 37.12 1804.64 396.49"/></g><rect class="cls-7" x="1520.25" y="37.48" width="277" height="356"/><path d="M1800.75,397h-284V34h284Zm-277-7h270V41h-270Z"/><ellipse class="cls-16" cx="1664.25" cy="207.48" rx="102" ry="98"/><rect class="cls-7" x="1588.75" y="164.98" width="69" height="3"/><path class="cls-7" d="M1655.75,165l-6-7.85-4,7.85,5,3Z"/><rect class="cls-7" x="1592.25" y="183.62" width="60.5" height="2.86"/><path class="cls-7" d="M1651,183.62l-5.28-7.49c-1.17,2.5-2.33,5-3.49,7.49l4.38,2.86Z"/><rect class="cls-7" x="1585.25" y="200.94" width="76" height="2.86"/><path class="cls-7" d="M1659.05,200.94l-6.63-7.48c-1.46,2.5-2.93,5-4.39,7.48l5.51,2.87Z"/><rect class="cls-7" x="1586.25" y="222.09" width="74.29" height="2.86"/><path class="cls-7" d="M1658.58,221.87l-5.9-6.61-3.35,6.13,4.75,2.65Z"/><rect class="cls-7" x="1674.25" y="181.78" width="49.68" height="2.86"/><path class="cls-7" d="M1722.16,182.08q-2.49-4.2-5-8.4l-2.88,7.83,4.46,2.47Z"/><rect class="cls-7" x="1674.25" y="156.01" width="63.5" height="2.86"/><path class="cls-7" d="M1740.75,159l-6-7c-.67,2-1.33,4-2,6l4,4.23Z"/><path class="cls-7" d="M1730.75,268c-.74-.29-.88-1.77-1-3-.23-2.42.6-3.21,0-4-.74-1-2.27-.09-5-1-1.32-.44-3.11-1.37-3-2,.14-.8,3.36-1.2,6-1,2.49.18,3.9.86,5,0a3.07,3.07,0,0,0,1-2l.21-95.46h3.79V245c.23,4.48.74,7.47,0,12a20.3,20.3,0,0,1-1,4C1735.24,264.89,1732.11,268.5,1730.75,268Z"/><rect class="cls-7" x="1685.75" y="203.64" width="31.5" height="3.34"/><path class="cls-7" d="M1716.75,206l-6.08-7.44c-1,2.14-2,4.29-2.92,6.44l4,6C1713.42,209.31,1715.08,207.64,1716.75,206Z"/><path class="cls-7" d="M1687.75,203l-4.3-4,.3,7h3Z"/><path class="cls-7" d="M1687.75,205v38c-1.33,1.33-2.67,2.66-4,4V205Z"/><rect class="cls-7" x="1684.75" y="233.59" width="28" height="3.39"/><path class="cls-7" d="M1712.75,204v37l-3,2V204Z"/><path class="cls-7" d="M1614.75,209l-3,13a108.34,108.34,0,0,1-9,23,61.82,61.82,0,0,1-11,15c-.84.83-5.88,5.83-7,5-.46-.35-.12-1.59,0-2a7.71,7.71,0,0,1,3-4c4.26-3.06,12.17-16,16-25,.71-1.68,2.14-6.45,5-16,2.13-7.11,3.19-10.66,4-14,2.12-8.76,2.35-14.75,3-24,.53-7.55,1.43-18.42,3-32l7,2a3.76,3.76,0,0,1,0,3c-.64,1.16-1.83,1-3,2-.5.41-1.54,1.47-2,6a35.52,35.52,0,0,0,0,7c.21,2.5-.19,5.66-1,12C1618.27,191.61,1615.2,206.75,1614.75,209Z"/><path class="cls-7" d="M1624.75,245c.86,3.32.86,8.2-1,9-1,.41-2.27-.33-3-1-2-1.9-.61-4.38-2-9a26.2,26.2,0,0,0-3-6c-2.61-4.43-4.26-5.72-4-6C1612.33,231.33,1622.46,236.17,1624.75,245Z"/><path class="cls-7" d="M1640.75,263l-2,4c-2.34,2.14-3.43,2.29-4,2-1.45-.75-.06-4.55-2-6-1-.79-2,0-4-1-.76-.4-2.16-1.31-2-2s1.78-.88,3-1c3.58-.37,4.75.59,6,0,2.1-1,2-5.27,2-7-.08-5.43-.09-11.76,0-20V201h4v13c0,4,0,8,0,12,.1,16,1,20.31,0,30C1641.42,259,1641,261.5,1640.75,263Z"/><path class="cls-2" d="M1006.09,228.65H825.39V98.9c-.56-48.1,42.14-87.27,92.33-86.25,48.74,1,88.94,39.56,88.37,86.25ZM913.58,14l2.88,216.46m-91.7-130.36h181.49M822.74,169.91H1002.3"/><path class="cls-18" d="M1009,228.65H825.25V98.21c-.57-48.36,42.85-87.73,93.9-86.71,49.57,1,90.47,39.77,89.89,86.71ZM918,11.87l2.93,217.61m-93.26-131h184.59M825.61,168.59h182.63"/><rect class="cls-1" x="0.25" y="508.48" width="1920" height="57"/><rect class="cls-19" x="0.25" y="550.48" width="1920" height="15"/><rect class="cls-20" x="1288.81" y="461.48" width="260" height="208.63"/><rect class="cls-20" x="1288.2" y="668.49" width="260" height="208.63"/><rect class="cls-20" x="1288.35" y="876.85" width="260" height="208.63"/><rect class="cls-21" x="1806.38" y="566.48" width="113.87" height="173.52"/><path class="cls-22" d="M1921.75,741.5H1804.88V565h116.87Zm-113.87-3h110.87V568H1807.88Z"/><rect class="cls-21" x="1806.11" y="738.66" width="113.87" height="173.52"/><path class="cls-22" d="M1921.48,913.68H1804.61V737.16h116.87Zm-113.87-3h110.87V740.16H1807.61Z"/><rect class="cls-21" x="1806.18" y="911.95" width="113.87" height="173.52"/><path class="cls-22" d="M1921.55,1087H1804.68V910.45h116.87Zm-113.87-3h110.87V913.45H1807.68Z"/><rect class="cls-21" x="251.15" y="566.98" width="260" height="173.02"/><path class="cls-22" d="M512.65,741.5h-263v-176h263Zm-260-3h257v-170h-257Z"/><rect class="cls-21" x="250.54" y="738.66" width="260" height="173.52"/><path class="cls-22" d="M512,913.68H249V737.16H512Zm-260-3H509V740.16H252Z"/><rect class="cls-21" x="250.69" y="911.95" width="260" height="173.52"/><path class="cls-22" d="M512.19,1087h-263V910.45h263Zm-260-3h257V913.45h-257Z"/><rect class="cls-21" x="0.47" y="567.05" width="250.28" height="202.42"/><path class="cls-22" d="M252.25,771H-1V565.55H252.25ZM2,768H249.25V568.55H2Z"/><rect class="cls-21" x="-0.25" y="766.9" width="251" height="202.42"/><path class="cls-22" d="M252.25,970.82h-254V765.4h254Zm-251-3h248V768.4H1.25Z"/><rect class="cls-21" x="0.01" y="970.06" width="250.74" height="115.92"/><path class="cls-22" d="M252.25,1087.48H-1.49V968.56H252.25Zm-250.74-3H249.25V971.56H1.51Z"/><rect class="cls-21" x="509.15" y="575.38" width="260" height="170.55"/><path class="cls-22" d="M770.65,747.43h-263V573.88h263Zm-260-3h257V576.88h-257Z"/><rect class="cls-21" x="508.54" y="744.6" width="260" height="170.55"/><path class="cls-22" d="M770,916.65H507V743.1H770Zm-260-3H767V746.1H510Z"/><rect class="cls-21" x="508.69" y="914.93" width="260" height="170.55"/><path class="cls-22" d="M770.19,1087h-263V913.43h263Zm-260-3h257V916.43h-257Z"/><rect class="cls-21" x="770.15" y="484.48" width="260" height="200.94"/><path class="cls-22" d="M1031.65,686.92h-263V483h263Zm-260-3h257V486h-257Z"/><rect class="cls-21" x="769.54" y="683.86" width="260" height="200.94"/><path class="cls-22" d="M1031,886.3H768V682.36h263Zm-260-3h257V685.36H771Z"/><rect class="cls-21" x="769.69" y="884.54" width="260" height="200.94"/><path class="cls-22" d="M1031.19,1087h-263V883h263Zm-260-3h257V886h-257Z"/><rect class="cls-21" x="1030.15" y="625.48" width="260" height="153.8"/><path class="cls-22" d="M1291.65,780.77h-263V624h263Zm-260-3h257V627h-257Z"/><rect class="cls-21" x="1029.54" y="778.08" width="260" height="153.8"/><path class="cls-22" d="M1291,933.38H1028V776.58h263Zm-260-3h257V779.58H1031Z"/><rect class="cls-21" x="1029.69" y="931.68" width="260" height="153.8"/><path class="cls-22" d="M1291.19,1087h-263V930.18h263Zm-260-3h257V933.18h-257Z"/><rect class="cls-21" x="1548.55" y="566.48" width="260" height="197.83"/><path class="cls-22" d="M1810.05,765.8h-263V565h263Zm-260-3h257V568h-257Z"/><rect class="cls-21" x="1547.94" y="762.72" width="260" height="204.35"/><path class="cls-22" d="M1809.44,968.56h-263V761.22h263Zm-260-3h257V764.22h-257Z"/><rect class="cls-21" x="1548.1" y="966.8" width="260" height="118.68"/><path class="cls-22" d="M1809.59,1087h-263V965.3h263Zm-260-3h257V968.3h-257Z"/><path class="cls-23" d="M1469.62,1033.94l-16.7,17.54V765h16.7Z"/><rect class="cls-24" x="1330.77" y="765" width="122.15" height="286.47"/><rect class="cls-24" x="454.77" y="779" width="122.15" height="272.47"/><path class="cls-23" d="M593.62,1034.8l-16.7,16.68V779h16.7Z"/><g class="cls-14"><path d="M1656.7,969.3,312.13,973.35l-21.24-51.13H1640.75Q1648.73,945.77,1656.7,969.3Z"/><path d="M1642.61,278.4l14.1,691.4-16.47-46.56L1629,278.4Z"/><path d="M1640.89,922.26H291l24.84-643.32,1313.84-.51Z"/></g><path class="cls-23" d="M1644.7,958.27l-1344.64,4q-10.19-25.15-20.36-50.33H1629.56Q1637.13,935.1,1644.7,958.27Z"/><path class="cls-23" d="M1642.61,278q1,340.37,2.09,680.75L1629,912.92V278Z"/><path class="cls-24" d="M1629.7,912H279.84q18-316.69,36-633.4l1313.85-.5Z"/><g class="cls-14"><ellipse cx="1144.52" cy="799.61" rx="92.78" ry="113.51" transform="translate(328.4 1932.42) rotate(-89.17)"/><ellipse class="cls-25" cx="1146.58" cy="799.37" rx="70.19" ry="85.86" transform="translate(330.66 1934.24) rotate(-89.17)"/></g><ellipse class="cls-2" cx="1143.92" cy="797.56" rx="113.5" ry="91"/><ellipse class="cls-2" cx="1145.78" cy="797.32" rx="85.67" ry="68.84"/><path class="cls-26" d="M1145.78,868.66c-48.61,0-88.16-32-88.16-71.34S1097.17,726,1145.78,726s88.16,32,88.16,71.34S1194.39,868.66,1145.78,868.66Zm0-137.68c-45.86,0-83.18,29.76-83.18,66.34s37.32,66.34,83.18,66.34S1229,833.9,1229,797.32,1191.64,731,1145.78,731Z"/><g class="cls-14"><ellipse cx="499.22" cy="795.9" rx="92.78" ry="113.51" transform="translate(-303.84 1283.53) rotate(-89.17)"/><ellipse class="cls-25" cx="501.28" cy="795.66" rx="70.19" ry="85.86" transform="translate(-301.57 1285.35) rotate(-89.17)"/></g><ellipse class="cls-2" cx="498.62" cy="793.85" rx="113.5" ry="91"/><ellipse class="cls-2" cx="500.48" cy="793.61" rx="85.67" ry="68.84"/><path class="cls-26" d="M500.48,865c-48.62,0-88.17-32-88.17-71.34s39.55-71.34,88.17-71.34,88.16,32,88.16,71.34S549.09,865,500.48,865Zm0-137.68c-45.86,0-83.18,29.76-83.18,66.34S454.62,860,500.48,860s83.17-29.76,83.17-66.34S546.34,727.27,500.48,727.27Z"/><g class="cls-14"><ellipse cx="1449.22" cy="792.19" rx="92.78" ry="113.51" transform="translate(636.1 2229.77) rotate(-89.17)"/><ellipse class="cls-25" cx="1451.28" cy="791.95" rx="70.19" ry="85.86" transform="translate(638.37 2231.59) rotate(-89.17)"/></g><ellipse class="cls-2" cx="1448.62" cy="790.14" rx="113.5" ry="91"/><ellipse class="cls-2" cx="1450.48" cy="789.9" rx="85.67" ry="68.84"/><path class="cls-26" d="M1450.48,861.24c-48.62,0-88.17-32-88.17-71.34s39.55-71.34,88.17-71.34,88.16,32,88.16,71.34S1499.09,861.24,1450.48,861.24Zm0-137.68c-45.86,0-83.18,29.76-83.18,66.34s37.32,66.34,83.18,66.34,83.17-29.76,83.17-66.34S1496.34,723.56,1450.48,723.56Z"/><g class="cls-14"><ellipse cx="974.22" cy="600.61" rx="92.78" ry="113.51" transform="translate(359.54 1566.02) rotate(-89.17)"/><ellipse class="cls-25" cx="976.28" cy="600.37" rx="70.19" ry="85.86" transform="translate(361.81 1567.84) rotate(-89.17)"/></g><ellipse class="cls-2" cx="973.62" cy="598.56" rx="113.5" ry="91"/><ellipse class="cls-2" cx="975.48" cy="598.32" rx="85.67" ry="68.84"/><path class="cls-26" d="M975.48,669.66c-48.62,0-88.17-32-88.17-71.34S926.86,527,975.48,527s88.16,32,88.16,71.34S1024.09,669.66,975.48,669.66Zm0-137.68c-45.86,0-83.18,29.76-83.18,66.34s37.32,66.34,83.18,66.34,83.17-29.76,83.17-66.34S1021.34,532,975.48,532Z"/><g class="cls-14"><ellipse cx="1301.52" cy="600.61" rx="92.78" ry="113.51" transform="translate(682.1 1893.29) rotate(-89.17)"/><ellipse class="cls-25" cx="1303.58" cy="600.37" rx="70.19" ry="85.86" transform="translate(684.37 1895.11) rotate(-89.17)"/></g><ellipse class="cls-2" cx="1300.92" cy="598.56" rx="113.5" ry="91"/><ellipse class="cls-2" cx="1302.78" cy="598.32" rx="85.67" ry="68.84"/><path class="cls-26" d="M1302.78,669.66c-48.61,0-88.16-32-88.16-71.34S1254.17,527,1302.78,527s88.16,32,88.16,71.34S1351.39,669.66,1302.78,669.66Zm0-137.68c-45.86,0-83.18,29.76-83.18,66.34s37.32,66.34,83.18,66.34S1386,634.9,1386,598.32,1348.64,532,1302.78,532Z"/><g class="cls-14"><ellipse cx="656.22" cy="596.9" rx="92.78" ry="113.51" transform="translate(49.86 1244.4) rotate(-89.17)"/><ellipse class="cls-25" cx="658.28" cy="596.66" rx="70.19" ry="85.86" transform="translate(52.13 1246.22) rotate(-89.17)"/></g><ellipse class="cls-2" cx="655.62" cy="594.85" rx="113.5" ry="91"/><ellipse class="cls-2" cx="657.48" cy="594.61" rx="85.67" ry="68.84"/><path class="cls-26" d="M657.48,666c-48.62,0-88.17-32-88.17-71.34s39.55-71.34,88.17-71.34,88.16,32,88.16,71.34S706.09,666,657.48,666Zm0-137.68c-45.86,0-83.18,29.76-83.18,66.34S611.62,661,657.48,661s83.17-29.76,83.17-66.34S703.34,528.27,657.48,528.27Z"/><g class="cls-14"><ellipse cx="816.85" cy="404.93" rx="92.78" ry="113.51" transform="translate(400.11 1215.82) rotate(-89.17)"/><ellipse class="cls-25" cx="818.9" cy="404.69" rx="70.19" ry="85.86" transform="translate(402.38 1217.64) rotate(-89.17)"/></g><ellipse class="cls-2" cx="816.24" cy="402.88" rx="113.5" ry="91"/><ellipse class="cls-2" cx="818.1" cy="402.64" rx="85.67" ry="68.84"/><path class="cls-26" d="M818.1,474c-48.61,0-88.16-32-88.16-71.33s39.55-71.34,88.16-71.34,88.17,32,88.17,71.34S866.72,474,818.1,474Zm0-137.67c-45.86,0-83.17,29.76-83.17,66.34S772.24,469,818.1,469s83.18-29.76,83.18-66.33S864,336.31,818.1,336.31Z"/><g class="cls-14"><ellipse cx="1144.15" cy="404.93" rx="92.78" ry="113.51" transform="translate(722.67 1543.09) rotate(-89.17)"/><ellipse class="cls-25" cx="1146.2" cy="404.69" rx="70.19" ry="85.86" transform="translate(724.93 1544.91) rotate(-89.17)"/></g><ellipse class="cls-2" cx="1143.54" cy="402.88" rx="113.5" ry="91"/><ellipse class="cls-2" cx="1145.41" cy="402.64" rx="85.67" ry="68.84"/><path class="cls-26" d="M1145.41,474c-48.62,0-88.17-32-88.17-71.33s39.55-71.34,88.17-71.34,88.16,32,88.16,71.34S1194,474,1145.41,474Zm0-137.67c-45.87,0-83.18,29.76-83.18,66.34S1099.54,469,1145.41,469s83.17-29.76,83.17-66.33S1191.27,336.31,1145.41,336.31Z"/><g class="cls-14"><ellipse cx="498.85" cy="401.22" rx="92.78" ry="113.51" transform="translate(90.43 894.2) rotate(-89.17)"/><ellipse class="cls-25" cx="500.9" cy="400.98" rx="70.19" ry="85.86" transform="translate(92.7 896.02) rotate(-89.17)"/></g><ellipse class="cls-2" cx="498.24" cy="399.17" rx="113.5" ry="91"/><ellipse class="cls-2" cx="500.1" cy="398.93" rx="85.67" ry="68.84"/><path class="cls-26" d="M500.1,470.27c-48.61,0-88.16-32-88.16-71.34s39.55-71.34,88.16-71.34,88.17,32,88.17,71.34S548.72,470.27,500.1,470.27Zm0-137.68c-45.86,0-83.17,29.76-83.17,66.34s37.31,66.34,83.17,66.34,83.18-29.76,83.18-66.34S546,332.59,500.1,332.59Z"/><g class="cls-14"><ellipse cx="1448.85" cy="397.51" rx="92.78" ry="113.51" transform="translate(1030.37 1840.44) rotate(-89.17)"/><ellipse class="cls-25" cx="1450.9" cy="397.27" rx="70.19" ry="85.86" transform="translate(1032.64 1842.26) rotate(-89.17)"/></g><ellipse class="cls-2" cx="1448.24" cy="395.46" rx="113.5" ry="91"/><ellipse class="cls-2" cx="1450.1" cy="395.22" rx="85.67" ry="68.84"/><path class="cls-26" d="M1450.1,466.56c-48.61,0-88.16-32-88.16-71.34s39.55-71.34,88.16-71.34,88.17,32,88.17,71.34S1498.72,466.56,1450.1,466.56Zm0-137.68c-45.86,0-83.17,29.76-83.17,66.34s37.31,66.34,83.17,66.34,83.18-29.76,83.18-66.34S1496,328.88,1450.1,328.88Z"/><g class="cls-14"><ellipse cx="817.22" cy="799.61" rx="92.78" ry="113.51" transform="translate(5.84 1605.15) rotate(-89.17)"/><ellipse class="cls-25" cx="819.28" cy="799.37" rx="70.19" ry="85.86" transform="translate(8.11 1606.97) rotate(-89.17)"/></g><ellipse class="cls-2" cx="816.62" cy="797.56" rx="113.5" ry="91"/><ellipse class="cls-2" cx="818.48" cy="797.32" rx="85.67" ry="68.84"/><path class="cls-26" d="M818.48,868.66c-48.62,0-88.17-32-88.17-71.34S769.86,726,818.48,726s88.16,32,88.16,71.34S867.09,868.66,818.48,868.66Zm0-137.68c-45.86,0-83.18,29.76-83.18,66.34s37.32,66.34,83.18,66.34,83.17-29.76,83.17-66.34S864.34,731,818.48,731Z"/></svg>
