<svg id="Layer_1" data-name="Layer 1" xmlns="http://www.w3.org/2000/svg" xmlns:xlink="http://www.w3.org/1999/xlink" width="170" height="140" viewBox="0 0 170 140">
    <defs>
        <style>
            .cls-1,
            .cls-98 {
                fill: none;
            }

            .cls-2 {
                opacity: 0.45;
            }

            .cls-3 {
                fill: #fff;
            }

            .cls-4 {
                fill: #a6cf52;
            }

            .cls-5 {
                fill: #f58add;
            }

            .cls-6 {
                clip-path: url(#clip-path);
            }

            .cls-7 {
                fill: #505b33;
            }

            .cls-8 {
                fill: #515c33;
            }

            .cls-9 {
                fill: #525d33;
            }

            .cls-10 {
                fill: #535e33;
            }

            .cls-11 {
                fill: #535f34;
            }

            .cls-12 {
                fill: #546034;
            }

            .cls-13 {
                fill: #556134;
            }

            .cls-14 {
                fill: #566234;
            }

            .cls-15 {
                fill: #566335;
            }

            .cls-16 {
                fill: #576435;
            }

            .cls-17 {
                fill: #586535;
            }

            .cls-18 {
                fill: #596636;
            }

            .cls-19 {
                fill: #596736;
            }

            .cls-20 {
                fill: #5a6836;
            }

            .cls-21 {
                fill: #5b6936;
            }

            .cls-22 {
                fill: #5c6a37;
            }

            .cls-23 {
                fill: #5c6b37;
            }

            .cls-24 {
                fill: #5d6c37;
            }

            .cls-25 {
                fill: #5e6d37;
            }

            .cls-26 {
                fill: #5f6e38;
            }

            .cls-27 {
                fill: #5f6f38;
            }

            .cls-28 {
                fill: #607038;
            }

            .cls-29 {
                fill: #617139;
            }

            .cls-30 {
                fill: #627239;
            }

            .cls-31 {
                fill: #627339;
            }

            .cls-32 {
                fill: #637439;
            }

            .cls-33 {
                fill: #64753a;
            }

            .cls-34 {
                fill: #65763a;
            }

            .cls-35 {
                fill: #65773a;
            }

            .cls-36 {
                fill: #66793b;
            }

            .cls-37 {
                fill: #677a3b;
            }

            .cls-38 {
                fill: #677b3b;
            }

            .cls-39 {
                fill: #687c3b;
            }

            .cls-40 {
                fill: #697d3c;
            }

            .cls-41 {
                fill: #6a7e3c;
            }

            .cls-42 {
                fill: #6a7f3c;
            }

            .cls-43 {
                fill: #000000;
            }

            .cls-44 {
                fill: #6c813d;
            }

            .cls-45 {
                fill: #6d823d;
            }

            .cls-46 {
                fill: #6d833d;
            }

            .cls-47 {
                fill: #6e843e;
            }

            .cls-48 {
                fill: #6f853e;
            }

            .cls-49 {
                fill: #70863e;
            }

            .cls-50 {
                fill: #70873e;
            }

            .cls-51 {
                fill: #71883f;
            }

            .cls-52 {
                fill: #72893f;
            }

            .cls-53 {
                fill: #738a3f;
            }

            .cls-54 {
                fill: #738b3f;
            }

            .cls-55 {
                fill: #748c40;
            }

            .cls-56 {
                fill: #758d40;
            }

            .cls-57 {
                fill: #768e40;
            }

            .cls-58 {
                fill: #768f41;
            }

            .cls-59 {
                fill: #779041;
            }

            .cls-60 {
                fill: #789141;
            }

            .cls-61 {
                fill: #799241;
            }

            .cls-62 {
                fill: #799342;
            }

            .cls-63 {
                fill: #7a9442;
            }

            .cls-64 {
                fill: #7b9542;
            }

            .cls-65 {
                fill: #7c9642;
            }

            .cls-66 {
                fill: #7c9743;
            }

            .cls-67 {
                fill: #7d9843;
            }

            .cls-68 {
                fill: #7e9943;
            }

            .cls-69 {
                fill: #7f9a44;
            }

            .cls-70 {
                fill: #7f9b44;
            }

            .cls-71 {
                fill: #809c44;
            }

            .cls-72 {
                fill: #819d44;
            }

            .cls-73 {
                fill: #829e45;
            }

            .cls-74 {
                fill: #829f45;
            }

            .cls-75 {
                fill: #83a045;
            }

            .cls-76 {
                fill: #84a145;
            }

            .cls-77 {
                fill: #85a246;
            }

            .cls-78 {
                fill: #85a346;
            }

            .cls-79 {
                fill: #86a446;
            }

            .cls-80 {
                fill: #87a547;
            }

            .cls-81 {
                fill: #87a647;
            }

            .cls-82 {
                fill: #88a747;
            }

            .cls-83 {
                fill: #89a847;
            }

            .cls-84 {
                fill: #8aa948;
            }

            .cls-85 {
                fill: #8aaa48;
            }

            .cls-86 {
                fill: #8bab48;
            }

            .cls-87 {
                fill: #8cac48;
            }

            .cls-88 {
                fill: #8dad49;
            }

            .cls-89 {
                fill: #8dae49;
            }

            .cls-90 {
                fill: #8eaf49;
            }

            .cls-91 {
                fill: #8fb04a;
            }

            .cls-92 {
                fill: #90b14a;
            }

            .cls-93 {
                fill: #90b24a;
            }

            .cls-94 {
                fill: #91b34a;
            }

            .cls-95 {
                fill: #92b44b;
            }

            .cls-96 {
                fill: #93b54b;
            }

            .cls-97 {
                fill: #574937;
            }

            .cls-98 {
                stroke: #000;
                stroke-miterlimit: 10;
                stroke-width: 2px;
            }

        </style>
        <clipPath id="clip-path">
            <path id="SVGID" class="cls-1" d="M96.2,97.91s3.06-2.75,9.44-4.38c2.1-.54,5.31-.48,9.89,2.57,1,1.24,2.19,2.44,3.42,2.22,1.48-.27,2.29-2.43,2.41-2.35a38.44,38.44,0,0,1-1.57,3.8,35.54,35.54,0,0,0-1.35,4,23.54,23.54,0,0,0-.71,4.06,15.92,15.92,0,0,0,0,3.11,15.19,15.19,0,0,0,1,4.08c.18.47.14.32.62,1.45a15.11,15.11,0,0,1,1.25,3.37c-.13.09-.71-1.18-1.7-2.18a7.27,7.27,0,0,0-4.93-2A45.84,45.84,0,0,0,96,116.81a6.66,6.66,0,0,0-2.4,1.63,11.39,11.39,0,0,0-1.77,2.84,18.63,18.63,0,0,1,1.35-3.57c.17-.38.28-.59.34-.74a17.42,17.42,0,0,0,1.5-7.36,20.79,20.79,0,0,0-.58-4.08,29.13,29.13,0,0,0-1.24-4.33c-.75-2-1.6-3.51-1.45-3.61s.66,1.18,1.7,1.46S95.78,98.28,96.2,97.91Z" />
        </clipPath>
    </defs>
    <title>Dårlig_sushi</title>
    <g class="cls-2">
        <ellipse cx="86.46" cy="35.21" rx="23.08" ry="80.36" transform="translate(51.08 121.6) rotate(-89.89)" />
        <path d="M156.94,125.23a217.31,217.31,0,0,1-64.52,10.52,222.82,222.82,0,0,1-76.81-13,9.7,9.7,0,0,1-6.2-3.51,11.55,11.55,0,0,1-2-3.75s-1-4.8-1-5L5.28,57.37c0-2.5,0-5,.06-7.51,0-8.63.1-14.46.77-14.53.43,0,.5,2.39,2.05,5a12.41,12.41,0,0,0,5.8,5,143.42,143.42,0,0,0,29.47,9.52s17.68,3.64,49.29,3.75c0,0,31.69.9,57.86-9a55.92,55.92,0,0,0,7.48-3.51c1.71-1,1.58-1.07,3.62-2.25,2.54-1.46,3.33-1.63,4-2.76a10,10,0,0,0,1.21-4.25c.16,0,.27,12.78.3,14.27,0,0,0,.29.11,4.76q.67,26.91,1.36,53.84a16.33,16.33,0,0,1-.74,5.76C165.47,123.05,157.88,125,156.94,125.23Z" />
        <ellipse cx="67.74" cy="109.01" rx="6.91" ry="15.43" transform="translate(-41.65 176.14) rotate(-89.68)" />
        <ellipse cx="150.37" cy="104.57" rx="15.29" ry="6.3" transform="translate(-15.35 26.58) rotate(-9.61)" />
        <path d="M99.35,101.84s3-2.83,9.34-4.51c2.09-.55,5.3-.5,10,2.65,1,1.28,2.25,2.52,3.48,2.29,1.47-.28,2.23-2.51,2.35-2.43a40.69,40.69,0,0,1-1.48,3.92,36.19,36.19,0,0,0-1.26,4.18,25.8,25.8,0,0,0-.62,4.18,16.51,16.51,0,0,0,0,3.21,16.85,16.85,0,0,0,1.11,4.21c.19.48.16.33.66,1.5a15.57,15.57,0,0,1,1.32,3.47c-.12.09-.73-1.21-1.74-2.25a7.3,7.3,0,0,0-5-2.07,44.56,44.56,0,0,0-17.91,1.15A6.71,6.71,0,0,0,97.24,123a11,11,0,0,0-1.7,2.93,19.13,19.13,0,0,1,1.26-3.68c.17-.4.27-.61.33-.77a18.26,18.26,0,0,0,1.33-7.59,22.26,22.26,0,0,0-.68-4.21,28.83,28.83,0,0,0-1.33-4.46,38.79,38.79,0,0,1-1.54-3.73c.13-.1.69,1.22,1.74,1.51S98.94,102.23,99.35,101.84Z" />
        <ellipse cx="86.09" cy="33.85" rx="10.61" ry="44.73" transform="translate(52.12 119.9) rotate(-89.92)" />
        <path d="M102.56,44.09l-24.17.25a25.18,25.18,0,0,1-2.5-5.94c-.21-.73-.16-.7-1-8.27-.27-2.35-.43-3.65.1-5.17a6.63,6.63,0,0,1,1.67-2.58,17,17,0,0,1,9.65-2.84,17.94,17.94,0,0,1,10.22,3.62c1.68,4,2.92,6.85,3.65,8.52,1.46,3.39,2.29,5.24,2.55,8A18.58,18.58,0,0,1,102.56,44.09Z" />
        <path d="M56.3,35.7l-8.83,1-.07-3,8.87.74Z" />
        <path d="M65.49,37.43,58,39.68l-.44-2.93,7.73-.54Z" />
        <path d="M65.85,33.61l-7.56-.5L58,31.63l7.35.74Z" />
        <path d="M75.73,41l-6.37-1.54L69.11,38l5.49.55C75,39.37,75.35,40.19,75.73,41Z" />
        <path d="M73.65,34.84l-4.7,2-.25-1.24,4.92-2Z" />
        <path d="M66.8,41l-2.62.15-.06-.79,2.74-.1Z" />
        <path d="M72.56,32.78l-3.5.11-.18-1.19,3.67,0Z" />
        <path d="M53.12,28.58,47.8,30.71l-.2-1,4.9-2Z" />
        <path d="M45.94,30.61l.41,3.68-.44,0-.4-3.4Z" />
        <path d="M74.12,30.67l-6.3-3.5.59-1,5.85,3.19Z" />
        <path d="M66.71,27.4l-6.94.05.12-1.24,6.41-.11Z" />
        <path d="M56.22,32.25l-3.49,0,.05-.71H56Z" />
        <path d="M57.39,29l-1.14-.07,0-1.24,1-.07Z" />
        <path d="M56.09,38.68,55,38.61l0-1.23,1-.08C56,37.76,56,38.22,56.09,38.68Z" />
        <path d="M65.57,30.4l-6.85-.56.11-1.42,7,.68Z" />
        <path d="M117.6,41.26q-2.88.47-5.8,1-4.69.82-9.24,1.72a43.3,43.3,0,0,0-1.29-9.38,41.8,41.8,0,0,0-4.56-11.1l22.08,3.21c2.35.66,12,3.53,12,7.15,0,1.72-2.17,3.12-4.22,4.45A18.91,18.91,0,0,1,117.6,41.26Z" />
        <path d="M80.56,73.47a19.41,19.41,0,0,0-6.08-.37A15.07,15.07,0,0,0,68,74.93c-6.27,3.62-8,11.84-7.79,14.47a.63.63,0,0,0,0,.11,9.37,9.37,0,0,0,2.54,5.11c2.68,2.69,7.79,1.19,10.3-.07,4-2,5.82-5.59,6.74-7.41s1.88-3.76,1.38-5.92a6.36,6.36,0,0,0-6.67-4.83,10.63,10.63,0,0,0-8.64,4.24,9.68,9.68,0,0,0-1.69,4.87c-.22,1.81-.61,5,1.35,6.2,1.33.8,3.11.28,4.05,0,3.16-.92,4.62-4,5.16-5.1.74-1.49,1.8-3.62,1-4.89-.91-1.56-4.29-1.4-6.25.5s-2.46,5.17-1.66,5.84c1,.85,4.27-2.6,4.54-2.88" />
        <path d="M157.38,67.12a23.46,23.46,0,0,0-6.09-.31,17.67,17.67,0,0,0-6.44,1.52c-6.28,3-8.08,9.83-7.85,12a.58.58,0,0,1,0,.1,7.23,7.23,0,0,0,2.53,4.23c2.66,2.24,7.77,1,10.29,0a14.23,14.23,0,0,0,6.77-6.15c1-1.6,1.89-3.13,1.4-4.92a5.6,5.6,0,0,0-2.58-3.1,7.51,7.51,0,0,0-4.07-.91,11.54,11.54,0,0,0-8.65,3.52,7.09,7.09,0,0,0-1.71,4c-.23,1.5-.63,4.17,1.33,5.14,1.32.66,3.1.23,4.05,0A8.39,8.39,0,0,0,151.54,78c.75-1.23,1.81-3,1.07-4.05-.9-1.29-4.28-1.16-6.25.41s-2.48,4.3-1.68,4.86c1,.7,4.28-2.17,4.54-2.4" />
    </g>
    <ellipse class="cls-3" cx="84.78" cy="33.31" rx="80.36" ry="22.37" />
    <path d="M84.78,57.45c-21.63,0-42-2.35-57.34-6.62C11.18,46.3,2.58,40.24,2.58,33.31s8.6-13,24.86-17.52c15.35-4.27,35.71-6.62,57.34-6.62s42,2.35,57.34,6.62C158.39,20.32,167,26.38,167,33.31s-8.6,13-24.87,17.52C126.78,55.1,106.42,57.45,84.78,57.45Zm0-44.74c-47,0-78.51,10.65-78.51,20.6s31.55,20.6,78.51,20.6,78.51-10.65,78.51-20.6S131.75,12.71,84.78,12.71Z" />
    <path class="cls-4" d="M153.34,119.33a229.2,229.2,0,0,1-64.74,10,229.52,229.52,0,0,1-76.54-12.45,9.47,9.47,0,0,1-6.12-3.35A10.73,10.73,0,0,1,4,110s-.86-4.59-.86-4.79V54.49c0-2.4.16-4.79.22-7.18.2-8.25.4-13.82,1.08-13.88.43,0,.44,2.28,1.94,4.79A11.91,11.91,0,0,0,12.06,43a145.37,145.37,0,0,0,29.27,9.09s17.6,3.49,49.21,3.59c0,0,31.67.86,58.06-8.61a58.18,58.18,0,0,0,7.55-3.35c1.73-.95,1.6-1,3.67-2.15,2.56-1.4,3.36-1.56,4.1-2.64a9.14,9.14,0,0,0,1.29-4.06c.16,0,0,12.21,0,13.63,0,0,0,.28,0,4.55q.12,25.73.22,51.44a15.1,15.1,0,0,1-.86,5.51C161.92,117.25,154.29,119.11,153.34,119.33Z" />
    <path d="M86.4,131.16a230.87,230.87,0,0,1-74.78-12.5,11.37,11.37,0,0,1-7.13-4,12.43,12.43,0,0,1-2.26-4.18l-.06-.2c-.89-4.75-.89-4.9-.89-5.1V54.49c0-1.52.06-3,.12-4.51,0-.91.08-1.81.1-2.71.11-4.47.21-7.72.37-10.08.2-3.09.35-5.33,2.37-5.52,1.77-.16,2.21,1.49,2.45,2.38A12.43,12.43,0,0,0,8,37.34a10.17,10.17,0,0,0,4.85,4,143.42,143.42,0,0,0,28.89,9c.17,0,17.82,3.45,48.84,3.55,1.32,0,31.71.72,57.4-8.5a58.94,58.94,0,0,0,7.28-3.22c.76-.42,1.13-.66,1.52-.9s1-.63,2.15-1.26c.7-.38,1.26-.67,1.74-.91,1.25-.64,1.47-.77,1.73-1.15a6.79,6.79,0,0,0,1-3,1.88,1.88,0,0,1,.76-1.48l.64-.46.8.14c1.55.26,1.56,1.56,1.58,2.94,0,.76,0,1.81,0,3,0,2.34,0,5.17,0,7.15,0,1.13,0,2,0,2.29v.11s0,.56,0,4.43l.22,51.45a16.53,16.53,0,0,1-1,6.09c-2.84,7.8-10.72,10-12.47,10.45a230.65,230.65,0,0,1-65.22,10.11ZM5.79,109.58a9,9,0,0,0,1.59,2.9,7.64,7.64,0,0,0,4.93,2.7l.19,0,.19.06a226.73,226.73,0,0,0,75.89,12.34,226.76,226.76,0,0,0,64.2-10l.14,0c1.26-.29,7.65-2,9.9-8.2a13,13,0,0,0,.76-4.87l-.21-51.48c0-1.51,0-4,0-4.57,0-.33,0-1.18,0-2.31s0-2.78,0-4.49c-.32.18-.66.36-1,.55l-1.65.86c-1,.57-1.48.85-1.94,1.14s-.86.54-1.72,1a58.28,58.28,0,0,1-7.82,3.47c-26.36,9.46-57.45,8.77-58.76,8.73C59.1,57.35,41.68,54,41,53.83a147.4,147.4,0,0,1-29.65-9.22,13.89,13.89,0,0,1-5.89-4.53c-.1,2.44-.17,5.19-.23,7.27,0,.92-.06,1.84-.09,2.76C5,51.55,5,53,5,54.49v50.62C5,105.53,5.37,107.31,5.79,109.58Z" />
    <ellipse class="cls-5" cx="64.42" cy="104.85" rx="15.43" ry="6.7" />
    <ellipse class="cls-5" cx="147.16" cy="100.55" rx="15.33" ry="6.09" transform="translate(-14.46 25.42) rotate(-9.41)" />
    <g class="cls-6">
        <polygon class="cls-7" points="120.94 121.32 121.48 121.31 121.48 121.32 120.94 121.32" />
        <polygon class="cls-8" points="102.77 121.32 121.48 120.98 121.48 121.31 120.94 121.32 102.77 121.32" />
        <polygon class="cls-9" points="91.62 121.19 121.48 120.66 121.48 120.98 102.77 121.32 91.62 121.32 91.62 121.19" />
        <polygon class="cls-10" points="91.62 120.87 121.48 120.33 121.48 120.66 91.62 121.19 91.62 120.87" />
        <polygon class="cls-11" points="91.62 120.54 121.48 120 121.48 120.33 91.62 120.87 91.62 120.54" />
        <polygon class="cls-12" points="91.62 120.21 121.48 119.68 121.48 120 91.62 120.54 91.62 120.21" />
        <polygon class="cls-13" points="91.62 119.89 121.48 119.35 121.48 119.68 91.62 120.21 91.62 119.89" />
        <polygon class="cls-14" points="91.62 119.56 121.48 119.02 121.48 119.35 91.62 119.89 91.62 119.56" />
        <polygon class="cls-15" points="91.62 119.23 121.48 118.7 121.48 119.02 91.62 119.56 91.62 119.23" />
        <polygon class="cls-16" points="91.62 118.91 121.48 118.37 121.48 118.7 91.62 119.23 91.62 118.91" />
        <polygon class="cls-17" points="91.62 118.58 121.48 118.05 121.48 118.37 91.62 118.91 91.62 118.58" />
        <polygon class="cls-18" points="91.62 118.25 121.48 117.72 121.48 118.05 91.62 118.58 91.62 118.25" />
        <polygon class="cls-19" points="91.62 117.93 121.48 117.39 121.48 117.72 91.62 118.25 91.62 117.93" />
        <polygon class="cls-20" points="91.62 117.6 121.48 117.06 121.48 117.39 91.62 117.93 91.62 117.6" />
        <polygon class="cls-21" points="91.62 117.28 121.48 116.74 121.48 117.06 91.62 117.6 91.62 117.28" />
        <polygon class="cls-22" points="91.62 116.95 121.48 116.41 121.48 116.74 91.62 117.28 91.62 116.95" />
        <polygon class="cls-23" points="91.62 116.62 121.48 116.09 121.48 116.41 91.62 116.95 91.62 116.62" />
        <polygon class="cls-24" points="91.62 116.3 121.48 115.76 121.48 116.09 91.62 116.62 91.62 116.3" />
        <polygon class="cls-25" points="91.62 115.97 121.48 115.43 121.48 115.76 91.62 116.3 91.62 115.97" />
        <polygon class="cls-26" points="91.62 115.64 121.48 115.11 121.48 115.43 91.62 115.97 91.62 115.64" />
        <polygon class="cls-27" points="91.62 115.32 121.48 114.78 121.48 115.11 91.62 115.64 91.62 115.32" />
        <polygon class="cls-28" points="91.62 114.99 121.48 114.45 121.48 114.78 91.62 115.32 91.62 114.99" />
        <polygon class="cls-29" points="91.62 114.66 121.48 114.13 121.48 114.45 91.62 114.99 91.62 114.66" />
        <polygon class="cls-30" points="91.62 114.34 121.48 113.8 121.48 114.13 91.62 114.66 91.62 114.34" />
        <polygon class="cls-31" points="91.62 114.01 121.48 113.47 121.48 113.8 91.62 114.34 91.62 114.01" />
        <polygon class="cls-32" points="91.62 113.68 121.48 113.15 121.48 113.47 91.62 114.01 91.62 113.68" />
        <polygon class="cls-33" points="91.62 113.36 121.48 112.82 121.48 113.15 91.62 113.68 91.62 113.36" />
        <polygon class="cls-34" points="91.62 113.03 121.48 112.49 121.48 112.82 91.62 113.36 91.62 113.03" />
        <polygon class="cls-35" points="91.62 112.7 121.48 112.17 121.48 112.49 91.62 113.03 91.62 112.7" />
        <polygon class="cls-36" points="91.62 112.38 121.48 111.84 121.48 112.17 91.62 112.7 91.62 112.38" />
        <polygon class="cls-37" points="91.62 112.05 121.48 111.52 121.48 111.84 91.62 112.38 91.62 112.05" />
        <polygon class="cls-38" points="91.62 111.72 121.48 111.19 121.48 111.52 91.62 112.05 91.62 111.72" />
        <polygon class="cls-39" points="91.62 111.4 121.48 110.86 121.48 111.19 91.62 111.72 91.62 111.4" />
        <polygon class="cls-40" points="91.62 111.07 121.48 110.53 121.48 110.86 91.62 111.4 91.62 111.07" />
        <polygon class="cls-41" points="91.62 110.75 121.48 110.21 121.48 110.53 91.62 111.07 91.62 110.75" />
        <polygon class="cls-42" points="91.62 110.42 121.48 109.88 121.48 110.21 91.62 110.75 91.62 110.42" />
        <polygon class="cls-43" points="91.62 110.09 121.48 109.56 121.48 109.88 91.62 110.42 91.62 110.09" />
        <polygon class="cls-44" points="91.62 109.77 121.48 109.23 121.48 109.56 91.62 110.09 91.62 109.77" />
        <polygon class="cls-45" points="91.62 109.44 121.48 108.9 121.48 109.23 91.62 109.77 91.62 109.44" />
        <polygon class="cls-46" points="91.62 109.11 121.48 108.58 121.48 108.9 91.62 109.44 91.62 109.11" />
        <polygon class="cls-47" points="91.62 108.79 121.48 108.25 121.48 108.58 91.62 109.11 91.62 108.79" />
        <polygon class="cls-48" points="91.62 108.46 121.48 107.92 121.48 108.25 91.62 108.79 91.62 108.46" />
        <polygon class="cls-49" points="91.62 108.13 121.48 107.6 121.48 107.92 91.62 108.46 91.62 108.13" />
        <polygon class="cls-50" points="91.62 107.81 121.48 107.27 121.48 107.6 91.62 108.13 91.62 107.81" />
        <polygon class="cls-51" points="91.62 107.48 121.48 106.94 121.48 107.27 91.62 107.81 91.62 107.48" />
        <polygon class="cls-52" points="91.62 107.15 121.48 106.62 121.48 106.94 91.62 107.48 91.62 107.15" />
        <polygon class="cls-53" points="91.62 106.83 121.48 106.29 121.48 106.62 91.62 107.15 91.62 106.83" />
        <polygon class="cls-54" points="91.62 106.5 121.48 105.96 121.48 106.29 91.62 106.83 91.62 106.5" />
        <polygon class="cls-55" points="91.62 106.17 121.48 105.64 121.48 105.96 91.62 106.5 91.62 106.17" />
        <polygon class="cls-56" points="91.62 105.85 121.48 105.31 121.48 105.64 91.62 106.17 91.62 105.85" />
        <polygon class="cls-57" points="91.62 105.52 121.48 104.98 121.48 105.31 91.62 105.85 91.62 105.52" />
        <polygon class="cls-58" points="91.62 105.19 121.48 104.66 121.48 104.98 91.62 105.52 91.62 105.19" />
        <polygon class="cls-59" points="91.62 104.87 121.48 104.33 121.48 104.66 91.62 105.19 91.62 104.87" />
        <polygon class="cls-60" points="91.62 104.54 121.48 104 121.48 104.33 91.62 104.87 91.62 104.54" />
        <polygon class="cls-61" points="91.62 104.22 121.48 103.68 121.48 104 91.62 104.54 91.62 104.22" />
        <polygon class="cls-62" points="91.62 103.89 121.48 103.35 121.48 103.68 91.62 104.22 91.62 103.89" />
        <polygon class="cls-63" points="91.62 103.56 121.48 103.03 121.48 103.35 91.62 103.89 91.62 103.56" />
        <polygon class="cls-64" points="91.62 103.23 121.48 102.7 121.48 103.03 91.62 103.56 91.62 103.23" />
        <polygon class="cls-65" points="91.62 102.91 121.48 102.37 121.48 102.7 91.62 103.23 91.62 102.91" />
        <polygon class="cls-66" points="91.62 102.58 121.48 102.05 121.48 102.37 91.62 102.91 91.62 102.58" />
        <polygon class="cls-67" points="91.62 102.26 121.48 101.72 121.48 102.05 91.62 102.58 91.62 102.26" />
        <polygon class="cls-68" points="91.62 101.93 121.48 101.39 121.48 101.72 91.62 102.26 91.62 101.93" />
        <polygon class="cls-69" points="91.62 101.6 121.48 101.07 121.48 101.39 91.62 101.93 91.62 101.6" />
        <polygon class="cls-70" points="91.62 101.28 121.48 100.74 121.48 101.07 91.62 101.6 91.62 101.28" />
        <polygon class="cls-71" points="91.62 100.95 121.48 100.41 121.48 100.74 91.62 101.28 91.62 100.95" />
        <polygon class="cls-72" points="91.62 100.62 121.48 100.09 121.48 100.41 91.62 100.95 91.62 100.62" />
        <polygon class="cls-73" points="91.62 100.3 121.48 99.76 121.48 100.09 91.62 100.62 91.62 100.3" />
        <polygon class="cls-74" points="91.62 99.97 121.48 99.43 121.48 99.76 91.62 100.3 91.62 99.97" />
        <polygon class="cls-75" points="91.62 99.64 121.48 99.11 121.48 99.43 91.62 99.97 91.62 99.64" />
        <polygon class="cls-76" points="91.62 99.32 121.48 98.78 121.48 99.11 91.62 99.64 91.62 99.32" />
        <polygon class="cls-77" points="91.62 98.99 121.48 98.45 121.48 98.78 91.62 99.32 91.62 98.99" />
        <polygon class="cls-78" points="91.62 98.66 121.48 98.13 121.48 98.45 91.62 98.99 91.62 98.66" />
        <polygon class="cls-79" points="91.62 98.34 121.48 97.8 121.48 98.13 91.62 98.66 91.62 98.34" />
        <polygon class="cls-80" points="91.62 98.01 121.48 97.47 121.48 97.8 91.62 98.34 91.62 98.01" />
        <polygon class="cls-81" points="91.62 97.69 121.48 97.15 121.48 97.47 91.62 98.01 91.62 97.69" />
        <polygon class="cls-82" points="91.62 97.36 121.48 96.82 121.48 97.15 91.62 97.69 91.62 97.36" />
        <polygon class="cls-83" points="91.62 97.03 121.48 96.5 121.48 96.82 91.62 97.36 91.62 97.03" />
        <polygon class="cls-84" points="91.62 96.7 121.48 96.17 121.48 96.5 91.62 97.03 91.62 96.7" />
        <polygon class="cls-85" points="91.62 96.38 121.48 95.84 121.48 96.17 91.62 96.7 91.62 96.38" />
        <polygon class="cls-86" points="91.62 96.05 121.48 95.52 121.48 95.84 91.62 96.38 91.62 96.05" />
        <polygon class="cls-87" points="91.62 95.73 121.48 95.19 121.48 95.52 91.62 96.05 91.62 95.73" />
        <polygon class="cls-88" points="91.62 95.4 121.48 94.86 121.48 95.19 91.62 95.73 91.62 95.4" />
        <polygon class="cls-89" points="91.62 95.07 121.48 94.54 121.48 94.86 91.62 95.4 91.62 95.07" />
        <polygon class="cls-90" points="91.62 94.75 121.48 94.21 121.48 94.54 91.62 95.07 91.62 94.75" />
        <polygon class="cls-91" points="91.62 94.42 121.48 93.88 121.48 94.21 91.62 94.75 91.62 94.42" />
        <polygon class="cls-92" points="91.62 94.09 121.48 93.56 121.48 93.88 91.62 94.42 91.62 94.09" />
        <polygon class="cls-93" points="91.62 93.77 121.48 93.23 121.48 93.56 91.62 94.09 91.62 93.77" />
        <polygon class="cls-94" points="91.62 93.44 116.59 92.99 121.48 92.99 121.48 93.23 91.62 93.77 91.62 93.44" />
        <polygon class="cls-95" points="91.62 93.11 98.41 92.99 116.59 92.99 91.62 93.44 91.62 93.11" />
        <polygon class="cls-96" points="98.41 92.99 91.62 93.11 91.62 92.99 98.41 92.99" />
    </g>
    <path d="M91.78,122.05l-.29-.15c-.51-.28-.8-.43,1-4.47.1-.22.17-.38.24-.51l.1-.23a16.65,16.65,0,0,0,1.44-7.06,20.12,20.12,0,0,0-.57-4,28.11,28.11,0,0,0-1.2-4.23c-.35-.92-.72-1.75-1-2.36-.55-1.21-.75-1.67-.21-2.06l.25-.18.33,0a1.1,1.1,0,0,1,.73.57,2.34,2.34,0,0,0,1,.92c.71.2,1.63-.63,2-.94l0,0c.13-.12,3.27-2.88,9.76-4.54,3.11-.8,6.64.1,10.5,2.67l.11.07.07.09c1.05,1.38,2,2.07,2.68,1.94s1.37-1.18,1.67-1.68c.21-.35.35-.59.71-.67l.31-.06.28.17c.57.38.44.67-.4,2.56-.28.63-.61,1.37-.9,2.08a34.84,34.84,0,0,0-1.32,4,22.61,22.61,0,0,0-.69,3.93,13.43,13.43,0,0,0,.93,6.9c.08.21.12.28.18.42s.19.42.44,1c1.43,3.37,1.61,3.81,1,4.22l-.26.18-.33-.06c-.37-.08-.54-.33-.86-.82a11.19,11.19,0,0,0-1.2-1.58,6.52,6.52,0,0,0-4.44-1.78,45.22,45.22,0,0,0-17.65,1.08,6,6,0,0,0-2.09,1.43,8.15,8.15,0,0,0-1.49,2.36c-.14.33-.25.57-.58.68Zm1.66-22.28c.16.37.32.77.48,1.19a30.37,30.37,0,0,1,1.26,4.43,22.15,22.15,0,0,1,.6,4.2,18.08,18.08,0,0,1-1.39,7.27,7.39,7.39,0,0,1,1.34-.7l.09,0a47,47,0,0,1,10.12-1.53,47.81,47.81,0,0,1,8.11.39,8.34,8.34,0,0,1,4.45,1.43l-.27-.61c-.08-.17-.12-.26-.22-.5a14.88,14.88,0,0,1-1-7.46,25.19,25.19,0,0,1,.73-4.21,37,37,0,0,1,1.38-4.13l.24-.56a1.14,1.14,0,0,1-.25.06c-1.3.24-2.64-.55-4.08-2.39-3.45-2.28-6.53-3.08-9.18-2.41-6.13,1.57-9.1,4.19-9.13,4.21l-.5-.51.5.51-.5-.51.46.55C96.17,98.91,94.89,100.05,93.44,99.77Z" />
    <ellipse class="cls-97" cx="84.44" cy="32" rx="44.73" ry="10.29" />
    <path class="cls-4" d="M100.68,41.91l-24.17.25a23.41,23.41,0,0,1-2.37-5.76c-.19-.7-.15-.67-.87-8-.22-2.28-.35-3.54.22-5a6.5,6.5,0,0,1,1.73-2.51,17.65,17.65,0,0,1,9.71-2.75,18,18,0,0,1,10.14,3.5c1.59,3.85,2.77,6.65,3.45,8.27,1.39,3.28,2.18,5.08,2.38,7.77A17.43,17.43,0,0,1,100.68,41.91Z" />
    <path d="M54.6,33.79l-8.84,1V31.88l8.84.71Z" />
    <path d="M63.76,35.46l-7.52,2.19-.37-2.84,7.74-.53Z" />
    <path d="M64.21,31.76l-7.56-.48-.21-1.44,7.34.72Z" />
    <path d="M73.92,38.93l-6.34-1.49L67.37,36l5.47.53Z" />
    <path d="M72,33l-4.75,1.92L67,33.67l5-1.91Z" />
    <path d="M65,39l-2.63.14,0-.77,2.74-.1Z" />
    <path d="M70.93,31l-3.5.1-.15-1.15,3.66,0Z" />
    <path d="M51.58,26.88,46.22,29,46,28l5-2Z" />
    <path d="M44.36,28.85l.33,3.57-.44,0-.32-3.3Z" />
    <path d="M72.54,28.91l-6.23-3.39.62-1,5.78,3.09Z" />
    <path d="M65.2,25.74l-6.93.05.14-1.21,6.42-.1Z" />
    <path d="M54.6,30.44l-3.48,0,.06-.68h3.23Z" />
    <path d="M55.85,27.28l-1.14-.07V26l1-.07Z" />
    <path d="M54.34,36.68l-1.14-.07v-1.2l1-.08C54.22,35.78,54.28,36.23,54.34,36.68Z" />
    <path d="M64,28.65l-6.83-.55.14-1.37,7,.66Z" />
    <path d="M115.79,39.17l-5.83,1c-3.14.54-6.23,1.09-9.28,1.68a40.05,40.05,0,0,0-1.08-9.1A39,39,0,0,0,95.29,22l22,3.11c2.34.64,11.94,3.42,11.87,6.94,0,1.66-2.23,3-4.32,4.3A19.54,19.54,0,0,1,115.79,39.17Z" />
    <path class="cls-98" d="M78,70.4A19.79,19.79,0,0,0,72,70.05a15.56,15.56,0,0,0-6.48,1.76c-6.35,3.51-8.3,11.48-8.11,14a.63.63,0,0,0,0,.11,8.75,8.75,0,0,0,2.43,5c2.62,2.61,7.76,1.15,10.29-.07A15.71,15.71,0,0,0,77,83.65c1-1.86,2-3.64,1.51-5.74A6.14,6.14,0,0,0,76,74.29,6.54,6.54,0,0,0,72,73.23a11,11,0,0,0-8.73,4.11,9.22,9.22,0,0,0-1.8,4.72c-.26,1.76-.72,4.87,1.21,6,1.32.78,3.1.27,4,0,3.18-.89,4.71-3.89,5.27-4.95.77-1.43,1.88-3.5,1.16-4.73-.87-1.51-4.26-1.36-6.26.48s-2.58,5-1.79,5.67c1,.82,4.33-2.53,4.6-2.8" />
    <path class="cls-98" d="M155,64.24a24,24,0,0,0-6.08-.29,18.36,18.36,0,0,0-6.48,1.46c-6.34,2.92-8.29,9.53-8.11,11.65a.51.51,0,0,1,0,.09,6.75,6.75,0,0,0,2.43,4.11c2.62,2.17,7.76,1,10.3-.06a14.43,14.43,0,0,0,6.9-6c1-1.55,2-3,1.51-4.77a5.31,5.31,0,0,0-2.51-3,7.64,7.64,0,0,0-4.05-.88A12,12,0,0,0,140.18,70a7,7,0,0,0-1.8,3.92c-.26,1.46-.72,4,1.22,5,1.31.64,3.09.23,4.05,0a8.58,8.58,0,0,0,5.26-4.11c.78-1.19,1.88-2.9,1.17-3.92-.88-1.26-4.26-1.13-6.26.39S141.24,75.44,142,76c1,.68,4.32-2.1,4.59-2.32" />
</svg>
