<svg id="Layer_1" data-name="Layer 1" xmlns="http://www.w3.org/2000/svg" xmlns:xlink="http://www.w3.org/1999/xlink" width="180" height="140" viewBox="0 0 180 140"><defs><style>.cls-1{fill:none;}.cls-2{opacity:0.45;}.cls-3{fill:#fff;}.cls-4{fill:#333;}.cls-5{fill:#f58add;}.cls-6{clip-path:url(#clip-path);}.cls-7{fill:#fffefe;}.cls-8{fill:#fffdfd;}.cls-9{fill:#fffcfc;}.cls-10{fill:#fffbfb;}.cls-11{fill:snow;}.cls-12{fill:#fff9f9;}.cls-13{fill:#fff8f8;}.cls-14{fill:#fff7f7;}.cls-15{fill:#fff6f6;}.cls-16{fill:#fff5f5;}.cls-17{fill:#fff4f4;}.cls-18{fill:#fff3f3;}.cls-19{fill:#fff2f2;}.cls-20{fill:#fff1f1;}.cls-21{fill:#fff0f0;}.cls-22{fill:#ffefef;}.cls-23{fill:#fee;}.cls-24{fill:#ffeded;}.cls-25{fill:#ffecec;}.cls-26{fill:#ffebeb;}.cls-27{fill:#ffeaea;}.cls-28{fill:#ffe9e9;}.cls-29{fill:#ffe8e8;}.cls-30{fill:#ffe7e7;}.cls-31{fill:#ffe6e6;}.cls-32{fill:#ffe5e5;}.cls-33{fill:#ffe4e4;}.cls-34{fill:#ffe3e3;}.cls-35{fill:#ffe2e2;}.cls-36{fill:#ffe1e1;}.cls-37{fill:#ffe0e0;}.cls-38{fill:#ffe0df;}.cls-39{fill:#ffdfde;}.cls-40{fill:#ffdedd;}.cls-41{fill:#ffdddc;}.cls-42{fill:#ffdcdb;}.cls-43{fill:#ffdbda;}.cls-44{fill:#ffdad9;}.cls-45{fill:#ffd9d8;}.cls-46{fill:#ffd8d7;}.cls-47{fill:#ffd7d6;}.cls-48{fill:#ffd6d5;}.cls-49{fill:#ffd5d4;}.cls-50{fill:#ffd4d3;}.cls-51{fill:#ffd3d2;}.cls-52{fill:#ffd2d1;}.cls-53{fill:#ffd1d0;}.cls-54{fill:#ffd0cf;}.cls-55{fill:#ffcfce;}.cls-56{fill:#ffcecd;}.cls-57{fill:#ffcdcc;}.cls-58{fill:#ffcccb;}.cls-59{fill:#ffcbca;}.cls-60{fill:#ffcac9;}.cls-61{fill:#ffc9c8;}.cls-62{fill:#ffc8c7;}.cls-63{fill:#ffc7c6;}.cls-64{fill:#ffc6c5;}.cls-65{fill:#ffc5c4;}.cls-66{fill:#ffc4c3;}.cls-67{fill:#ffc3c2;}.cls-68{fill:#ffc2c1;}.cls-69{fill:#ffc1c0;}.cls-70{fill:#ffc0bf;}.cls-71{fill:#ffbfbe;}.cls-72{fill:#ffbebd;}.cls-73{fill:#ffbdbc;}.cls-74{fill:#ffbcbb;}.cls-75{fill:#ffbbba;}.cls-76{fill:#ffbab9;}.cls-77{fill:#ffb9b8;}.cls-78{fill:#ffb8b7;}.cls-79{fill:#ffb7b6;}.cls-80{fill:#ffb6b5;}.cls-81{fill:#ffb5b4;}.cls-82{fill:#ffb4b3;}.cls-83{fill:#ffb3b2;}.cls-84{fill:#ffb2b1;}.cls-85{fill:#ffb1b0;}.cls-86{fill:#ffb0af;}.cls-87{fill:#ffafae;}.cls-88{fill:#ffaead;}.cls-89{fill:#ffadac;}.cls-90{fill:#ffacab;}.cls-91{fill:#ffabaa;}.cls-92{fill:#ffaaa9;}.cls-93{fill:#ffa9a8;}.cls-94{fill:#ffa8a7;}.cls-95{fill:#ffa7a6;}.cls-96{fill:#ffa6a5;}.cls-97{fill:#ffa5a4;}.cls-98{fill:#ffa4a3;}.cls-99{fill:#ffa3a2;}.cls-100{fill:#ffa2a1;}.cls-101{fill:#ffa2a0;}.cls-102{fill:#ffa19f;}.cls-103{fill:#ffa09e;}.cls-104{fill:#ff9f9d;}.cls-105{fill:#ff9e9c;}.cls-106{fill:#ff9d9b;}.cls-107{fill:#ff9c9a;}.cls-108{fill:#ff9b99;}.cls-109{fill:#ff9a98;}.cls-110{fill:#ff9997;}.cls-111{fill:#ff9896;}.cls-112{fill:#ff9795;}.cls-113{fill:#ff9694;}.cls-114{fill:#ff9593;}.cls-115{fill:#ff9492;}.cls-116{fill:#ff9391;}.cls-117{fill:#ff9290;}.cls-118{fill:#ff918f;}.cls-119{fill:#ff908e;}.cls-120{fill:#ff8f8d;}.cls-121{fill:#ff8e8c;}.cls-122{fill:#ff8d8b;}.cls-123{fill:#ff8c8a;}.cls-124{fill:#ff8b89;}.cls-125{fill:#ff8a88;}.cls-126{fill:#ff8987;}.cls-127{fill:#ff8886;}.cls-128{fill:#ff8785;}.cls-129{fill:#ff8684;}.cls-130{fill:#ff8583;}.cls-131{fill:#ff8482;}.cls-132{fill:#ff8381;}.cls-133{fill:#ff827f;}.cls-134{fill:#ff817e;}.cls-135{fill:#ff807d;}.cls-136{fill:#ff7f7c;}.cls-137{fill:#ff7e7b;}.cls-138{fill:#ff7d7a;}.cls-139{fill:#ff7c79;}.cls-140{fill:#ff7b78;}.cls-141{fill:#ff7a77;}.cls-142{fill:#ff7976;}.cls-143{fill:#ff7875;}.cls-144{fill:#ff7774;}.cls-145{fill:#ff7673;}.cls-146{fill:#ff7572;}.cls-147{fill:#ff7471;}.cls-148{fill:#ff7370;}.cls-149{fill:#ff726f;}.cls-150{fill:#ff716e;}.cls-151{fill:#ff706d;}.cls-152{fill:#ff6f6c;}.cls-153{fill:#ff6e6b;}.cls-154{fill:#ff6d6a;}.cls-155{fill:#ff6c69;}.cls-156{fill:#ff6b68;}.cls-157{fill:#ff6a67;}.cls-158{fill:#ff6966;}.cls-159{fill:#ff6865;}.cls-160{fill:#ff6764;}.cls-161{fill:#ff6663;}.cls-162{fill:#ff6562;}.cls-163{fill:#ff6461;}.cls-164{fill:#ff6360;}.cls-165{fill:#ff635f;}.cls-166{fill:#ff625e;}.cls-167{fill:#ff615d;}.cls-168{fill:#ff605c;}.cls-169{fill:#ff5f5b;}.cls-170{fill:#ff5e5a;}.cls-171{fill:#ff5d59;}.cls-172{fill:#ff5c58;}.cls-173{fill:#ff5b57;}.cls-174{fill:#ff5a56;}.cls-175{fill:#ff5955;}.cls-176{fill:#ff5854;}.cls-177{fill:#ff5753;}.cls-178{fill:#ff5652;}.cls-179{fill:#ff5551;}.cls-180{fill:#ff5450;}.cls-181{fill:#ff534f;}.cls-182{fill:#ff524e;}.cls-183{fill:#ff514d;}.cls-184{fill:#ff504c;}.cls-185{fill:#ff4f4b;}.cls-186{fill:#ff4e4a;}.cls-187{fill:#ff4d49;}.cls-188{fill:#ff4c48;}.cls-189{fill:#ff4b47;}.cls-190{fill:#ff4a46;}.cls-191{fill:#ff4945;}.cls-192{fill:#ff4844;}.cls-193{fill:#ff4743;}.cls-194{fill:#ff4642;}.cls-195{fill:#ff4541;}.cls-196{fill:#ff4440;}.cls-197{fill:#ff433f;}.cls-198{fill:#ff423e;}.cls-199{fill:#ff413d;}.cls-200{fill:#ff403c;}.cls-201{fill:#ff3f3b;}.cls-202{fill:#ff3e3a;}.cls-203{fill:#ff3d39;}.cls-204{fill:#ff3c38;}.cls-205{fill:#ff3b37;}.cls-206{fill:#ff3a36;}.cls-207{fill:#ff3935;}.cls-208{fill:#ff3834;}.cls-209{fill:#ff3733;}.cls-210{fill:#ff3632;}.cls-211{fill:#ff3531;}.cls-212{fill:#ff3430;}.cls-213{fill:#ff332f;}.cls-214{fill:#ff322e;}.cls-215{fill:#ff312d;}.cls-216{fill:#ff302c;}.cls-217{fill:#ff2f2b;}.cls-218{fill:#ff2e2a;}.cls-219{fill:#ff2d29;}.cls-220{fill:#ff2c28;}.cls-221{fill:#ff2b27;}.cls-222{fill:#ff2a26;}.cls-223{fill:#ff2925;}.cls-224{fill:#ff2824;}.cls-225{fill:#ff2723;}.cls-226{fill:#ff2622;}.cls-227{fill:#ff2521;}.cls-228{fill:#ff2520;}.cls-229{fill:#ff241f;}.cls-230{fill:#ff231e;}.cls-231{fill:#ff221d;}.cls-232{fill:#ff211c;}.cls-233{fill:#ff201b;}.cls-234{fill:#ff1f1a;}.cls-235{fill:#ff1e19;}.cls-236{fill:#ff1d18;}.cls-237{fill:#ff1c17;}.cls-238{fill:#ff1b16;}.cls-239{fill:#ff1a15;}.cls-240{fill:#ff1914;}.cls-241{fill:#ff1813;}.cls-242{fill:#ff1712;}.cls-243{fill:#ff1611;}.cls-244{fill:#ff1510;}.cls-245{fill:#ff140f;}.cls-246{fill:#ff130e;}.cls-247{fill:#ff120d;}.cls-248{fill:#ff110c;}.cls-249{fill:#ff100b;}.cls-250{fill:#ff0f0a;}.cls-251{fill:#ff0e09;}.cls-252{fill:#ff0d08;}.cls-253{fill:#ff0c07;}.cls-254{fill:#ff0b06;}.cls-255{fill:#ff0a05;}.cls-256{fill:#ff0904;}.cls-257{fill:#ff0803;}.cls-258{fill:#ff0702;}.cls-259{fill:#ff0601;}.cls-260{fill:#006837;}.cls-261{fill:#7ac943;}.cls-262{fill:#a6cf52;}.cls-263{fill:url(#linear-gradient);}.cls-264{fill:url(#linear-gradient-2);}</style><clipPath id="clip-path"><path id="SVGID" class="cls-1" d="M122.75,118.85s-3.12,2.88-9.68,4.68c-2.15.6-5.46.6-10.24-2.46-1-1.26-2.29-2.47-3.56-2.22-1.52.3-2.32,2.54-2.45,2.46s.84-2.08,1.56-3.94a35.62,35.62,0,0,0,1.34-4.19,23.66,23.66,0,0,0,.66-4.19,14.85,14.85,0,0,0,0-3.2,15.79,15.79,0,0,0-1.11-4.19c-.19-.48-.16-.33-.67-1.48a15,15,0,0,1-1.33-3.45c.13-.09.74,1.2,1.78,2.22a7.44,7.44,0,0,0,5.12,2,47.2,47.2,0,0,0,18.48-1.48,7.07,7.07,0,0,0,2.45-1.72,12.09,12.09,0,0,0,1.78-3,20.26,20.26,0,0,1-1.34,3.7c-.17.39-.28.61-.34.77a18.08,18.08,0,0,0-1.44,7.6,21.79,21.79,0,0,0,.67,4.19,29.25,29.25,0,0,0,1.33,4.44c.82,2.06,1.71,3.58,1.56,3.7s-.7-1.21-1.78-1.48S123.17,118.46,122.75,118.85Z"/></clipPath><linearGradient id="linear-gradient" x1="90.87" y1="30.5" x2="87.87" y2="7.75" gradientUnits="userSpaceOnUse"><stop offset="0" stop-color="#fff"/><stop offset="0.49" stop-color="#fff"/><stop offset="1" stop-color="#ff94d3"/></linearGradient><linearGradient id="linear-gradient-2" x1="92.76" y1="38.88" x2="89.83" y2="16.72" xlink:href="#linear-gradient"/></defs><title>God_sushi</title><g class="cls-2"><ellipse cx="88.79" cy="33.74" rx="24.21" ry="83.04" transform="translate(54.82 122.44) rotate(-89.86)"/><path d="M161.86,126.83a223.11,223.11,0,0,1-66.5,10.88,230,230,0,0,1-79.3-13.47,10.05,10.05,0,0,1-6.42-3.62,12.22,12.22,0,0,1-2.11-3.89s-1-5-1-5.18L5,56.66c-.07-2.59,0-5.18,0-7.77,0-8.92,0-15,.71-15,.44,0,.53,2.47,2.14,5.18a12.94,12.94,0,0,0,6,5.18,148.71,148.71,0,0,0,30.45,9.84S62.62,57.84,95.22,58c0,0,32.7.93,59.64-9.32a57.78,57.78,0,0,0,7.7-3.62c1.75-1,1.62-1.12,3.72-2.33,2.6-1.52,3.42-1.68,4.15-2.85a10.28,10.28,0,0,0,1.22-4.4c.16,0,.35,13.22.4,14.76,0,0,0,.29.13,4.92q.85,27.83,1.72,55.67a16.84,16.84,0,0,1-.73,6C170.65,124.58,162.83,126.6,161.86,126.83Z"/><ellipse cx="68.28" cy="86.83" rx="12.45" ry="14.52" transform="translate(-8.48 7.4) rotate(-5.84)"/><ellipse cx="150.97" cy="81.91" rx="12.45" ry="14.52" transform="translate(-7.55 15.78) rotate(-5.84)"/><ellipse cx="150.74" cy="77.37" rx="5.56" ry="6.48" transform="translate(-7.09 15.74) rotate(-5.84)"/><ellipse cx="67.57" cy="80.87" rx="5.11" ry="6.09" transform="translate(-7.09 6.5) rotate(-5.23)"/><ellipse cx="69.72" cy="111.17" rx="7.25" ry="15.92" transform="translate(-41.94 180.1) rotate(-89.6)"/><ellipse cx="154.93" cy="106.51" rx="15.77" ry="6.61" transform="translate(-15.86 27.9) rotate(-9.79)"/><path d="M124,124s-3,3-9.54,4.92c-2.14.63-5.45.63-10.31-2.59-1-1.32-2.37-2.59-3.63-2.33-1.51.32-2.25,2.68-2.38,2.59s.78-2.19,1.45-4.14a40.1,40.1,0,0,0,1.22-4.4,28.69,28.69,0,0,0,.55-4.4,18.5,18.5,0,0,0-.09-3.37,18,18,0,0,0-1.24-4.4c-.2-.5-.16-.35-.71-1.56a17.41,17.41,0,0,1-1.43-3.62c.13-.09.78,1.26,1.84,2.33a7.48,7.48,0,0,0,5.18,2.07,45,45,0,0,0,18.44-1.55,6.83,6.83,0,0,0,2.4-1.82,12.11,12.11,0,0,0,1.7-3.1,21.35,21.35,0,0,1-1.24,3.88c-.16.42-.26.65-.32.82a19.46,19.46,0,0,0-1.22,8,23.62,23.62,0,0,0,.79,4.4,32,32,0,0,0,1.46,4.66c.87,2.16,1.81,3.76,1.66,3.88s-.74-1.27-1.82-1.55S124.45,123.57,124,124Z"/><ellipse cx="88.25" cy="32.32" rx="11.13" ry="46.14" transform="translate(55.78 120.51) rotate(-89.9)"/><path d="M105.29,43.05l-24.93.27a27.26,27.26,0,0,1-2.62-6.23c-.21-.76-.16-.73-1.12-8.68-.3-2.46-.46-3.83.08-5.42a6.76,6.76,0,0,1,1.71-2.71,17.28,17.28,0,0,1,9.93-3,18.47,18.47,0,0,1,10.57,3.8c1.75,4.16,3,7.18,3.8,8.94,1.53,3.55,2.39,5.5,2.68,8.4A19.41,19.41,0,0,1,105.29,43.05Z"/><path d="M57.52,34.26l-9.1,1-.08-3.11,9.14.78Z"/><path d="M67,36.07l-7.7,2.37-.47-3.08,8-.57Z"/><path d="M67.37,32.06l-7.81-.52L59.3,30l7.59.77Z"/><path d="M77.59,39.83,71,38.21l-.26-1.55,5.66.58C76.81,38.1,77.2,39,77.59,39.83Z"/><path d="M75.42,33.35l-4.85,2.08-.25-1.3,5.06-2.07Z"/><path d="M68.38,39.84l-2.7.16-.07-.83,2.83-.11Z"/><path d="M74.28,31.19l-3.61.11-.19-1.24,3.78,0Z"/><path d="M54.2,26.78,48.73,29,48.52,28l5-2.12Z"/><path d="M46.81,28.92l.45,3.86-.46-.05-.43-3.57Z"/><path d="M75.88,29l-6.52-3.67.6-1.1L76,27.56Z"/><path d="M68.22,25.55l-7.16.05.12-1.31,6.61-.11Z"/><path d="M57.42,30.64l-3.6,0,0-.75H57.2Z"/><path d="M58.61,27.22l-1.17-.08,0-1.3,1-.08Z"/><path d="M57.33,37.39l-1.18-.08,0-1.3,1-.08C57.18,36.42,57.26,36.9,57.33,37.39Z"/><path d="M67.05,28.69,60,28.11l.11-1.49,7.21.71Z"/><path d="M120.79,40.09q-3,.49-6,1c-3.22.58-6.4,1.19-9.53,1.81a46.19,46.19,0,0,0-1.37-9.83,44.75,44.75,0,0,0-4.77-11.66l22.8,3.37c2.43.7,12.42,3.7,12.45,7.51,0,1.8-2.22,3.27-4.33,4.66A19.07,19.07,0,0,1,120.79,40.09Z"/></g><ellipse class="cls-3" cx="90.66" cy="33.71" rx="83.04" ry="23.04"/><path d="M90.66,58.61c-22.34,0-43.37-2.42-59.21-6.81-11.72-3.26-25.69-9-25.69-18.09s14-14.84,25.69-18.09c15.84-4.39,36.87-6.81,59.21-6.81s43.38,2.42,59.22,6.81c11.72,3.25,25.69,9,25.69,18.09s-14,14.83-25.69,18.09C134,56.19,113,58.61,90.66,58.61Zm0-46.08c-47.84,0-81.18,11.16-81.18,21.18S42.82,54.89,90.66,54.89s81.19-11.16,81.19-21.18S138.51,12.53,90.66,12.53Z"/><path class="cls-4" d="M161.24,122.31a236.92,236.92,0,0,1-66.79,10.35A236.94,236.94,0,0,1,15.5,119.84a9.84,9.84,0,0,1-6.32-3.45,11,11,0,0,1-2-3.7s-.89-4.72-.89-4.92V55.52c0-2.47.16-4.93.22-7.39.21-8.5.42-14.23,1.11-14.3.45,0,.47,2.35,2,4.93a12.27,12.27,0,0,0,5.87,4.93,150.25,150.25,0,0,0,30.19,9.37s18.16,3.58,50.76,3.69c0,0,32.67.88,59.89-8.87a60.4,60.4,0,0,0,7.79-3.45c1.78-1,1.66-1.06,3.79-2.22,2.64-1.44,3.47-1.6,4.23-2.71a9.4,9.4,0,0,0,1.33-4.19c.17,0,0,12.59,0,14,0,0,0,.28,0,4.68q.12,26.49.23,53a15.36,15.36,0,0,1-.89,5.66C170.09,120.16,162.21,122.09,161.24,122.31Z"/><path d="M92.18,134.53a238.59,238.59,0,0,1-77.11-12.87,11.66,11.66,0,0,1-7.32-4.08,12.8,12.8,0,0,1-2.34-4.32h0c-.32-1.2-1-5.46-1-5.5V55.52c0-1.56.06-3.13.12-4.64,0-.94.08-1.87.1-2.8.12-4.6.22-7.95.38-10.38.2-3.09.36-5.53,2.42-5.72,1.75-.15,2.21,1.54,2.46,2.46a12.47,12.47,0,0,0,1.31,3.37,10.48,10.48,0,0,0,5,4.17,148.49,148.49,0,0,0,29.81,9.25c.18,0,18.4,3.55,50.41,3.66,1.37,0,32.73.74,59.25-8.76a60,60,0,0,0,7.53-3.33c.78-.43,1.17-.67,1.58-.93s1-.65,2.21-1.29c.71-.39,1.3-.69,1.78-.94,1.3-.66,1.53-.79,1.8-1.19a6.87,6.87,0,0,0,1-3.09,2,2,0,0,1,.77-1.53l.65-.49.79.14c1.57.26,1.59,1.62,1.61,3.07,0,.78,0,1.87,0,3.08,0,2.41,0,5.33-.06,7.37,0,1.16,0,2,0,2.36v.12s0,.57,0,4.55l.23,53a17.06,17.06,0,0,1-1,6.31c-2.94,8-11.05,10.36-12.84,10.77a238.35,238.35,0,0,1-67.25,10.42ZM9,112.23a9.2,9.2,0,0,0,1.63,3,8,8,0,0,0,5.13,2.8l.18,0,.18.06A234.94,234.94,0,0,0,94.43,130.8a235.13,235.13,0,0,0,66.27-10.27l.13,0c1.3-.29,7.92-2.09,10.24-8.43a13.65,13.65,0,0,0,.78-5l-.23-53c0-1.88,0-4.14,0-4.71,0-.34,0-1.22,0-2.38s0-2.87,0-4.62c-.35.2-.74.4-1.18.62s-1,.52-1.69.89c-1.09.58-1.54.87-2,1.17s-.89.56-1.77,1A61.9,61.9,0,0,1,157,49.63c-27.17,9.73-59.21,9-60.56,9C64,58.5,45.52,54.92,45.33,54.88A151.67,151.67,0,0,1,14.77,45.4,14.34,14.34,0,0,1,8.6,40.59c-.1,2.54-.18,5.41-.23,7.58,0,.95-.06,1.91-.1,2.86-.06,1.47-.12,3-.12,4.49v52.13C8.24,108.27,8.82,111.36,9,112.23Z"/><ellipse cx="67.99" cy="83.49" rx="12.47" ry="13.8"/><ellipse cx="150.81" cy="78.8" rx="12.47" ry="13.8"/><ellipse class="cls-3" cx="150.7" cy="74.67" rx="5.57" ry="6.35"/><ellipse class="cls-3" cx="67.43" cy="77.82" rx="5.12" ry="5.79"/><ellipse class="cls-5" cx="68.77" cy="106.65" rx="15.92" ry="6.9"/><ellipse class="cls-5" cx="154.11" cy="102.22" rx="15.82" ry="6.27" transform="matrix(0.99, -0.16, 0.16, 0.99, -14.62, 26.53)"/><g class="cls-6"><polygon class="cls-3" points="96.7 122.45 127.47 121.75 127.47 124.13 96.7 124.13 96.7 122.45"/><polygon class="cls-3" points="96.7 122.37 127.47 121.67 127.47 121.75 96.7 122.45 96.7 122.37"/><polygon class="cls-7" points="96.7 122.3 127.47 121.6 127.47 121.67 96.7 122.37 96.7 122.3"/><polygon class="cls-8" points="96.7 122.22 127.47 121.52 127.47 121.6 96.7 122.3 96.7 122.22"/><polygon class="cls-9" points="96.7 122.14 127.47 121.44 127.47 121.52 96.7 122.22 96.7 122.14"/><polygon class="cls-10" points="96.7 122.07 127.47 121.37 127.47 121.44 96.7 122.14 96.7 122.07"/><polygon class="cls-11" points="96.7 121.99 127.47 121.29 127.47 121.37 96.7 122.07 96.7 121.99"/><polygon class="cls-12" points="96.7 121.91 127.47 121.22 127.47 121.29 96.7 121.99 96.7 121.91"/><polygon class="cls-13" points="96.7 121.84 127.47 121.14 127.47 121.22 96.7 121.91 96.7 121.84"/><polygon class="cls-14" points="96.7 121.76 127.47 121.06 127.47 121.14 96.7 121.84 96.7 121.76"/><polygon class="cls-15" points="96.7 121.68 127.47 120.98 127.47 121.06 96.7 121.76 96.7 121.68"/><polygon class="cls-16" points="96.7 121.61 127.47 120.91 127.47 120.98 96.7 121.68 96.7 121.61"/><polygon class="cls-17" points="96.7 121.53 127.47 120.83 127.47 120.91 96.7 121.61 96.7 121.53"/><polygon class="cls-18" points="96.7 121.45 127.47 120.75 127.47 120.83 96.7 121.53 96.7 121.45"/><polygon class="cls-19" points="96.7 121.38 127.47 120.68 127.47 120.75 96.7 121.45 96.7 121.38"/><polygon class="cls-20" points="96.7 121.3 127.47 120.6 127.47 120.68 96.7 121.38 96.7 121.3"/><polygon class="cls-21" points="96.7 121.22 127.47 120.53 127.47 120.6 96.7 121.3 96.7 121.22"/><polygon class="cls-22" points="96.7 121.15 127.47 120.45 127.47 120.53 96.7 121.22 96.7 121.15"/><polygon class="cls-23" points="96.7 121.07 127.47 120.37 127.47 120.45 96.7 121.15 96.7 121.07"/><polygon class="cls-24" points="96.7 120.99 127.47 120.3 127.47 120.37 96.7 121.07 96.7 120.99"/><polygon class="cls-25" points="96.7 120.92 127.47 120.22 127.47 120.3 96.7 120.99 96.7 120.92"/><polygon class="cls-26" points="96.7 120.84 127.47 120.14 127.47 120.22 96.7 120.92 96.7 120.84"/><polygon class="cls-27" points="96.7 120.76 127.47 120.07 127.47 120.14 96.7 120.84 96.7 120.76"/><polygon class="cls-28" points="96.7 120.69 127.47 119.99 127.47 120.07 96.7 120.76 96.7 120.69"/><polygon class="cls-29" points="96.7 120.61 127.47 119.91 127.47 119.99 96.7 120.69 96.7 120.61"/><polygon class="cls-30" points="96.7 120.53 127.47 119.84 127.47 119.91 96.7 120.61 96.7 120.53"/><polygon class="cls-31" points="96.7 120.46 127.47 119.76 127.47 119.84 96.7 120.53 96.7 120.46"/><polygon class="cls-32" points="96.7 120.38 127.47 119.68 127.47 119.76 96.7 120.46 96.7 120.38"/><polygon class="cls-33" points="96.7 120.31 127.47 119.61 127.47 119.68 96.7 120.38 96.7 120.31"/><polygon class="cls-34" points="96.7 120.23 127.47 119.53 127.47 119.61 96.7 120.31 96.7 120.23"/><polygon class="cls-35" points="96.7 120.15 127.47 119.45 127.47 119.53 96.7 120.23 96.7 120.15"/><polygon class="cls-36" points="96.7 120.08 127.47 119.38 127.47 119.45 96.7 120.15 96.7 120.08"/><polygon class="cls-37" points="96.7 120 127.47 119.3 127.47 119.38 96.7 120.08 96.7 120"/><polygon class="cls-38" points="96.7 119.92 127.47 119.22 127.47 119.3 96.7 120 96.7 119.92"/><polygon class="cls-39" points="96.7 119.84 127.47 119.15 127.47 119.22 96.7 119.92 96.7 119.84"/><polygon class="cls-40" points="96.7 119.77 127.47 119.07 127.47 119.15 96.7 119.84 96.7 119.77"/><polygon class="cls-41" points="96.7 119.69 127.47 118.99 127.47 119.07 96.7 119.77 96.7 119.69"/><polygon class="cls-42" points="96.7 119.61 127.47 118.92 127.47 118.99 96.7 119.69 96.7 119.61"/><polygon class="cls-43" points="96.7 119.54 127.47 118.84 127.47 118.92 96.7 119.61 96.7 119.54"/><polygon class="cls-44" points="96.7 119.46 127.47 118.76 127.47 118.84 96.7 119.54 96.7 119.46"/><polygon class="cls-45" points="96.7 119.39 127.47 118.69 127.47 118.76 96.7 119.46 96.7 119.39"/><polygon class="cls-46" points="96.7 119.31 127.47 118.61 127.47 118.69 96.7 119.39 96.7 119.31"/><polygon class="cls-47" points="96.7 119.23 127.47 118.53 127.47 118.61 96.7 119.31 96.7 119.23"/><polygon class="cls-48" points="96.7 119.16 127.47 118.46 127.47 118.53 96.7 119.23 96.7 119.16"/><polygon class="cls-49" points="96.7 119.08 127.47 118.38 127.47 118.46 96.7 119.16 96.7 119.08"/><polygon class="cls-50" points="96.7 119 127.47 118.3 127.47 118.38 96.7 119.08 96.7 119"/><polygon class="cls-51" points="96.7 118.93 127.47 118.23 127.47 118.3 96.7 119 96.7 118.93"/><polygon class="cls-52" points="96.7 118.85 127.47 118.15 127.47 118.23 96.7 118.93 96.7 118.85"/><polygon class="cls-53" points="96.7 118.77 127.47 118.07 127.47 118.15 96.7 118.85 96.7 118.77"/><polygon class="cls-54" points="96.7 118.7 127.47 118 127.47 118.07 96.7 118.77 96.7 118.7"/><polygon class="cls-55" points="96.7 118.62 127.47 117.92 127.47 118 96.7 118.7 96.7 118.62"/><polygon class="cls-56" points="96.7 118.54 127.47 117.84 127.47 117.92 96.7 118.62 96.7 118.54"/><polygon class="cls-57" points="96.7 118.47 127.47 117.77 127.47 117.84 96.7 118.54 96.7 118.47"/><polygon class="cls-58" points="96.7 118.39 127.47 117.69 127.47 117.77 96.7 118.47 96.7 118.39"/><polygon class="cls-59" points="96.7 118.31 127.47 117.61 127.47 117.69 96.7 118.39 96.7 118.31"/><polygon class="cls-60" points="96.7 118.24 127.47 117.54 127.47 117.61 96.7 118.31 96.7 118.24"/><polygon class="cls-61" points="96.7 118.16 127.47 117.46 127.47 117.54 96.7 118.24 96.7 118.16"/><polygon class="cls-62" points="96.7 118.08 127.47 117.39 127.47 117.46 96.7 118.16 96.7 118.08"/><polygon class="cls-63" points="96.7 118.01 127.47 117.31 127.47 117.39 96.7 118.08 96.7 118.01"/><polygon class="cls-64" points="96.7 117.93 127.47 117.23 127.47 117.31 96.7 118.01 96.7 117.93"/><polygon class="cls-65" points="96.7 117.85 127.47 117.16 127.47 117.23 96.7 117.93 96.7 117.85"/><polygon class="cls-66" points="96.7 117.78 127.47 117.08 127.47 117.16 96.7 117.85 96.7 117.78"/><polygon class="cls-67" points="96.7 117.7 127.47 117 127.47 117.08 96.7 117.78 96.7 117.7"/><polygon class="cls-68" points="96.7 117.62 127.47 116.93 127.47 117 96.7 117.7 96.7 117.62"/><polygon class="cls-69" points="96.7 117.55 127.47 116.85 127.47 116.93 96.7 117.62 96.7 117.55"/><polygon class="cls-70" points="96.7 117.47 127.47 116.77 127.47 116.85 96.7 117.55 96.7 117.47"/><polygon class="cls-71" points="96.7 117.39 127.47 116.7 127.47 116.77 96.7 117.47 96.7 117.39"/><polygon class="cls-72" points="96.7 117.32 127.47 116.62 127.47 116.7 96.7 117.39 96.7 117.32"/><polygon class="cls-73" points="96.7 117.24 127.47 116.54 127.47 116.62 96.7 117.32 96.7 117.24"/><polygon class="cls-74" points="96.7 117.16 127.47 116.47 127.47 116.54 96.7 117.24 96.7 117.16"/><polygon class="cls-75" points="96.7 117.09 127.47 116.39 127.47 116.47 96.7 117.16 96.7 117.09"/><polygon class="cls-76" points="96.7 117.01 127.47 116.31 127.47 116.39 96.7 117.09 96.7 117.01"/><polygon class="cls-77" points="96.7 116.94 127.47 116.24 127.47 116.31 96.7 117.01 96.7 116.94"/><polygon class="cls-78" points="96.7 116.86 127.47 116.16 127.47 116.24 96.7 116.94 96.7 116.86"/><polygon class="cls-79" points="96.7 116.78 127.47 116.08 127.47 116.16 96.7 116.86 96.7 116.78"/><polygon class="cls-80" points="96.7 116.7 127.47 116.01 127.47 116.08 96.7 116.78 96.7 116.7"/><polygon class="cls-81" points="96.7 116.63 127.47 115.93 127.47 116.01 96.7 116.7 96.7 116.63"/><polygon class="cls-82" points="96.7 116.55 127.47 115.85 127.47 115.93 96.7 116.63 96.7 116.55"/><polygon class="cls-83" points="96.7 116.47 127.47 115.78 127.47 115.85 96.7 116.55 96.7 116.47"/><polygon class="cls-84" points="96.7 116.4 127.47 115.7 127.47 115.78 96.7 116.47 96.7 116.4"/><polygon class="cls-85" points="96.7 116.32 127.47 115.62 127.47 115.7 96.7 116.4 96.7 116.32"/><polygon class="cls-86" points="96.7 116.25 127.47 115.55 127.47 115.62 96.7 116.32 96.7 116.25"/><polygon class="cls-87" points="96.7 116.17 127.47 115.47 127.47 115.55 96.7 116.25 96.7 116.17"/><polygon class="cls-88" points="96.7 116.09 127.47 115.39 127.47 115.47 96.7 116.17 96.7 116.09"/><polygon class="cls-89" points="96.7 116.02 127.47 115.32 127.47 115.39 96.7 116.09 96.7 116.02"/><polygon class="cls-90" points="96.7 115.94 127.47 115.24 127.47 115.32 96.7 116.02 96.7 115.94"/><polygon class="cls-91" points="96.7 115.86 127.47 115.16 127.47 115.24 96.7 115.94 96.7 115.86"/><polygon class="cls-92" points="96.7 115.79 127.47 115.09 127.47 115.16 96.7 115.86 96.7 115.79"/><polygon class="cls-93" points="96.7 115.71 127.47 115.01 127.47 115.09 96.7 115.79 96.7 115.71"/><polygon class="cls-94" points="96.7 115.63 127.47 114.93 127.47 115.01 96.7 115.71 96.7 115.63"/><polygon class="cls-95" points="96.7 115.56 127.47 114.86 127.47 114.93 96.7 115.63 96.7 115.56"/><polygon class="cls-96" points="96.7 115.48 127.47 114.78 127.47 114.86 96.7 115.56 96.7 115.48"/><polygon class="cls-97" points="96.7 115.4 127.47 114.7 127.47 114.78 96.7 115.48 96.7 115.4"/><polygon class="cls-98" points="96.7 115.33 127.47 114.63 127.47 114.7 96.7 115.4 96.7 115.33"/><polygon class="cls-99" points="96.7 115.25 127.47 114.55 127.47 114.63 96.7 115.33 96.7 115.25"/><polygon class="cls-100" points="96.7 115.17 127.47 114.47 127.47 114.55 96.7 115.25 96.7 115.17"/><polygon class="cls-101" points="96.7 115.1 127.47 114.4 127.47 114.47 96.7 115.17 96.7 115.1"/><polygon class="cls-102" points="96.7 115.02 127.47 114.32 127.47 114.4 96.7 115.1 96.7 115.02"/><polygon class="cls-103" points="96.7 114.94 127.47 114.25 127.47 114.32 96.7 115.02 96.7 114.94"/><polygon class="cls-104" points="96.7 114.87 127.47 114.17 127.47 114.25 96.7 114.94 96.7 114.87"/><polygon class="cls-105" points="96.7 114.79 127.47 114.09 127.47 114.17 96.7 114.87 96.7 114.79"/><polygon class="cls-106" points="96.7 114.71 127.47 114.02 127.47 114.09 96.7 114.79 96.7 114.71"/><polygon class="cls-107" points="96.7 114.64 127.47 113.94 127.47 114.02 96.7 114.71 96.7 114.64"/><polygon class="cls-108" points="96.7 114.56 127.47 113.86 127.47 113.94 96.7 114.64 96.7 114.56"/><polygon class="cls-109" points="96.7 114.48 127.47 113.78 127.47 113.86 96.7 114.56 96.7 114.48"/><polygon class="cls-110" points="96.7 114.41 127.47 113.71 127.47 113.78 96.7 114.48 96.7 114.41"/><polygon class="cls-111" points="96.7 114.33 127.47 113.63 127.47 113.71 96.7 114.41 96.7 114.33"/><polygon class="cls-112" points="96.7 114.25 127.47 113.56 127.47 113.63 96.7 114.33 96.7 114.25"/><polygon class="cls-113" points="96.7 114.18 127.47 113.48 127.47 113.56 96.7 114.25 96.7 114.18"/><polygon class="cls-114" points="96.7 114.1 127.47 113.4 127.47 113.48 96.7 114.18 96.7 114.1"/><polygon class="cls-115" points="96.7 114.02 127.47 113.33 127.47 113.4 96.7 114.1 96.7 114.02"/><polygon class="cls-116" points="96.7 113.95 127.47 113.25 127.47 113.33 96.7 114.02 96.7 113.95"/><polygon class="cls-117" points="96.7 113.87 127.47 113.17 127.47 113.25 96.7 113.95 96.7 113.87"/><polygon class="cls-118" points="96.7 113.79 127.47 113.1 127.47 113.17 96.7 113.87 96.7 113.79"/><polygon class="cls-119" points="96.7 113.72 127.47 113.02 127.47 113.1 96.7 113.79 96.7 113.72"/><polygon class="cls-120" points="96.7 113.64 127.47 112.94 127.47 113.02 96.7 113.72 96.7 113.64"/><polygon class="cls-121" points="96.7 113.56 127.47 112.87 127.47 112.94 96.7 113.64 96.7 113.56"/><polygon class="cls-122" points="96.7 113.49 127.47 112.79 127.47 112.87 96.7 113.56 96.7 113.49"/><polygon class="cls-123" points="96.7 113.41 127.47 112.71 127.47 112.79 96.7 113.49 96.7 113.41"/><polygon class="cls-124" points="96.7 113.33 127.47 112.64 127.47 112.71 96.7 113.41 96.7 113.33"/><polygon class="cls-125" points="96.7 113.26 127.47 112.56 127.47 112.64 96.7 113.33 96.7 113.26"/><polygon class="cls-126" points="96.7 113.18 127.47 112.48 127.47 112.56 96.7 113.26 96.7 113.18"/><polygon class="cls-127" points="96.7 113.11 127.47 112.41 127.47 112.48 96.7 113.18 96.7 113.11"/><polygon class="cls-128" points="96.7 113.03 127.47 112.33 127.47 112.41 96.7 113.11 96.7 113.03"/><polygon class="cls-129" points="96.7 112.95 127.47 112.25 127.47 112.33 96.7 113.03 96.7 112.95"/><polygon class="cls-130" points="96.7 112.88 127.47 112.18 127.47 112.25 96.7 112.95 96.7 112.88"/><polygon class="cls-131" points="96.7 112.8 127.47 112.1 127.47 112.18 96.7 112.88 96.7 112.8"/><polygon class="cls-132" points="96.7 112.72 127.47 112.02 127.47 112.1 96.7 112.8 96.7 112.72"/><polygon class="cls-133" points="96.7 112.64 127.47 111.95 127.47 112.02 96.7 112.72 96.7 112.64"/><polygon class="cls-134" points="96.7 112.57 127.47 111.87 127.47 111.95 96.7 112.64 96.7 112.57"/><polygon class="cls-135" points="96.7 112.49 127.47 111.79 127.47 111.87 96.7 112.57 96.7 112.49"/><polygon class="cls-136" points="96.7 112.42 127.47 111.72 127.47 111.79 96.7 112.49 96.7 112.42"/><polygon class="cls-137" points="96.7 112.34 127.47 111.64 127.47 111.72 96.7 112.42 96.7 112.34"/><polygon class="cls-138" points="96.7 112.26 127.47 111.56 127.47 111.64 96.7 112.34 96.7 112.26"/><polygon class="cls-139" points="96.7 112.19 127.47 111.49 127.47 111.56 96.7 112.26 96.7 112.19"/><polygon class="cls-140" points="96.7 112.11 127.47 111.41 127.47 111.49 96.7 112.19 96.7 112.11"/><polygon class="cls-141" points="96.7 112.03 127.47 111.33 127.47 111.41 96.7 112.11 96.7 112.03"/><polygon class="cls-142" points="96.7 111.96 127.47 111.26 127.47 111.33 96.7 112.03 96.7 111.96"/><polygon class="cls-143" points="96.7 111.88 127.47 111.18 127.47 111.26 96.7 111.96 96.7 111.88"/><polygon class="cls-144" points="96.7 111.8 127.47 111.1 127.47 111.18 96.7 111.88 96.7 111.8"/><polygon class="cls-145" points="96.7 111.73 127.47 111.03 127.47 111.1 96.7 111.8 96.7 111.73"/><polygon class="cls-146" points="96.7 111.65 127.47 110.95 127.47 111.03 96.7 111.73 96.7 111.65"/><polygon class="cls-147" points="96.7 111.57 127.47 110.88 127.47 110.95 96.7 111.65 96.7 111.57"/><polygon class="cls-148" points="96.7 111.5 127.47 110.8 127.47 110.88 96.7 111.57 96.7 111.5"/><polygon class="cls-149" points="96.7 111.42 127.47 110.72 127.47 110.8 96.7 111.5 96.7 111.42"/><polygon class="cls-150" points="96.7 111.34 127.47 110.64 127.47 110.72 96.7 111.42 96.7 111.34"/><polygon class="cls-151" points="96.7 111.27 127.47 110.57 127.47 110.64 96.7 111.34 96.7 111.27"/><polygon class="cls-152" points="96.7 111.19 127.47 110.49 127.47 110.57 96.7 111.27 96.7 111.19"/><polygon class="cls-153" points="96.7 111.11 127.47 110.42 127.47 110.49 96.7 111.19 96.7 111.11"/><polygon class="cls-154" points="96.7 111.04 127.47 110.34 127.47 110.42 96.7 111.11 96.7 111.04"/><polygon class="cls-155" points="96.7 110.96 127.47 110.26 127.47 110.34 96.7 111.04 96.7 110.96"/><polygon class="cls-156" points="96.7 110.88 127.47 110.19 127.47 110.26 96.7 110.96 96.7 110.88"/><polygon class="cls-157" points="96.7 110.81 127.47 110.11 127.47 110.19 96.7 110.88 96.7 110.81"/><polygon class="cls-158" points="96.7 110.73 127.47 110.03 127.47 110.11 96.7 110.81 96.7 110.73"/><polygon class="cls-159" points="96.7 110.65 127.47 109.96 127.47 110.03 96.7 110.73 96.7 110.65"/><polygon class="cls-160" points="96.7 110.58 127.47 109.88 127.47 109.96 96.7 110.65 96.7 110.58"/><polygon class="cls-161" points="96.7 110.5 127.47 109.8 127.47 109.88 96.7 110.58 96.7 110.5"/><polygon class="cls-162" points="96.7 110.42 127.47 109.73 127.47 109.8 96.7 110.5 96.7 110.42"/><polygon class="cls-163" points="96.7 110.35 127.47 109.65 127.47 109.73 96.7 110.42 96.7 110.35"/><polygon class="cls-164" points="96.7 110.27 127.47 109.57 127.47 109.65 96.7 110.35 96.7 110.27"/><polygon class="cls-165" points="96.7 110.19 127.47 109.5 127.47 109.57 96.7 110.27 96.7 110.19"/><polygon class="cls-166" points="96.7 110.12 127.47 109.42 127.47 109.5 96.7 110.19 96.7 110.12"/><polygon class="cls-167" points="96.7 110.04 127.47 109.34 127.47 109.42 96.7 110.12 96.7 110.04"/><polygon class="cls-168" points="96.7 109.97 127.47 109.27 127.47 109.34 96.7 110.04 96.7 109.97"/><polygon class="cls-169" points="96.7 109.89 127.47 109.19 127.47 109.27 96.7 109.97 96.7 109.89"/><polygon class="cls-170" points="96.7 109.81 127.47 109.11 127.47 109.19 96.7 109.89 96.7 109.81"/><polygon class="cls-171" points="96.7 109.73 127.47 109.04 127.47 109.11 96.7 109.81 96.7 109.73"/><polygon class="cls-172" points="96.7 109.66 127.47 108.96 127.47 109.04 96.7 109.73 96.7 109.66"/><polygon class="cls-173" points="96.7 109.58 127.47 108.88 127.47 108.96 96.7 109.66 96.7 109.58"/><polygon class="cls-174" points="96.7 109.5 127.47 108.81 127.47 108.88 96.7 109.58 96.7 109.5"/><polygon class="cls-175" points="96.7 109.43 127.47 108.73 127.47 108.81 96.7 109.5 96.7 109.43"/><polygon class="cls-176" points="96.7 109.35 127.47 108.65 127.47 108.73 96.7 109.43 96.7 109.35"/><polygon class="cls-177" points="96.7 109.28 127.47 108.58 127.47 108.65 96.7 109.35 96.7 109.28"/><polygon class="cls-178" points="96.7 109.2 127.47 108.5 127.47 108.58 96.7 109.28 96.7 109.2"/><polygon class="cls-179" points="96.7 109.12 127.47 108.42 127.47 108.5 96.7 109.2 96.7 109.12"/><polygon class="cls-180" points="96.7 109.05 127.47 108.35 127.47 108.42 96.7 109.12 96.7 109.05"/><polygon class="cls-181" points="96.7 108.97 127.47 108.27 127.47 108.35 96.7 109.05 96.7 108.97"/><polygon class="cls-182" points="96.7 108.89 127.47 108.19 127.47 108.27 96.7 108.97 96.7 108.89"/><polygon class="cls-183" points="96.7 108.82 127.47 108.12 127.47 108.19 96.7 108.89 96.7 108.82"/><polygon class="cls-184" points="96.7 108.74 127.47 108.04 127.47 108.12 96.7 108.82 96.7 108.74"/><polygon class="cls-185" points="96.7 108.66 127.47 107.96 127.47 108.04 96.7 108.74 96.7 108.66"/><polygon class="cls-186" points="96.7 108.59 127.47 107.89 127.47 107.96 96.7 108.66 96.7 108.59"/><polygon class="cls-187" points="96.7 108.51 127.47 107.81 127.47 107.89 96.7 108.59 96.7 108.51"/><polygon class="cls-188" points="96.7 108.43 127.47 107.73 127.47 107.81 96.7 108.51 96.7 108.43"/><polygon class="cls-189" points="96.7 108.36 127.47 107.66 127.47 107.73 96.7 108.43 96.7 108.36"/><polygon class="cls-190" points="96.7 108.28 127.47 107.58 127.47 107.66 96.7 108.36 96.7 108.28"/><polygon class="cls-191" points="96.7 108.2 127.47 107.5 127.47 107.58 96.7 108.28 96.7 108.2"/><polygon class="cls-192" points="96.7 108.13 127.47 107.43 127.47 107.5 96.7 108.2 96.7 108.13"/><polygon class="cls-193" points="96.7 108.05 127.47 107.35 127.47 107.43 96.7 108.13 96.7 108.05"/><polygon class="cls-194" points="96.7 107.97 127.47 107.28 127.47 107.35 96.7 108.05 96.7 107.97"/><polygon class="cls-195" points="96.7 107.9 127.47 107.2 127.47 107.28 96.7 107.97 96.7 107.9"/><polygon class="cls-196" points="96.7 107.82 127.47 107.12 127.47 107.2 96.7 107.9 96.7 107.82"/><polygon class="cls-197" points="96.7 107.74 127.47 107.05 127.47 107.12 96.7 107.82 96.7 107.74"/><polygon class="cls-198" points="96.7 107.67 127.47 106.97 127.47 107.05 96.7 107.74 96.7 107.67"/><polygon class="cls-199" points="96.7 107.59 127.47 106.89 127.47 106.97 96.7 107.67 96.7 107.59"/><polygon class="cls-200" points="96.7 107.51 127.47 106.81 127.47 106.89 96.7 107.59 96.7 107.51"/><polygon class="cls-201" points="96.7 107.44 127.47 106.74 127.47 106.81 96.7 107.51 96.7 107.44"/><polygon class="cls-202" points="96.7 107.36 127.47 106.66 127.47 106.74 96.7 107.44 96.7 107.36"/><polygon class="cls-203" points="96.7 107.28 127.47 106.58 127.47 106.66 96.7 107.36 96.7 107.28"/><polygon class="cls-204" points="96.7 107.21 127.47 106.51 127.47 106.58 96.7 107.28 96.7 107.21"/><polygon class="cls-205" points="96.7 107.13 127.47 106.43 127.47 106.51 96.7 107.21 96.7 107.13"/><polygon class="cls-206" points="96.7 107.05 127.47 106.36 127.47 106.43 96.7 107.13 96.7 107.05"/><polygon class="cls-207" points="96.7 106.98 127.47 106.28 127.47 106.36 96.7 107.05 96.7 106.98"/><polygon class="cls-208" points="96.7 106.9 127.47 106.2 127.47 106.28 96.7 106.98 96.7 106.9"/><polygon class="cls-209" points="96.7 106.82 127.47 106.13 127.47 106.2 96.7 106.9 96.7 106.82"/><polygon class="cls-210" points="96.7 106.75 127.47 106.05 127.47 106.13 96.7 106.82 96.7 106.75"/><polygon class="cls-211" points="96.7 106.67 127.47 105.97 127.47 106.05 96.7 106.75 96.7 106.67"/><polygon class="cls-212" points="96.7 106.59 127.47 105.9 127.47 105.97 96.7 106.67 96.7 106.59"/><polygon class="cls-213" points="96.7 106.52 127.47 105.82 127.47 105.9 96.7 106.59 96.7 106.52"/><polygon class="cls-214" points="96.7 106.44 127.47 105.74 127.47 105.82 96.7 106.52 96.7 106.44"/><polygon class="cls-215" points="96.7 106.36 127.47 105.67 127.47 105.74 96.7 106.44 96.7 106.36"/><polygon class="cls-216" points="96.7 106.29 127.47 105.59 127.47 105.67 96.7 106.36 96.7 106.29"/><polygon class="cls-217" points="96.7 106.21 127.47 105.51 127.47 105.59 96.7 106.29 96.7 106.21"/><polygon class="cls-218" points="96.7 106.14 127.47 105.44 127.47 105.51 96.7 106.21 96.7 106.14"/><polygon class="cls-219" points="96.7 106.06 127.47 105.36 127.47 105.44 96.7 106.14 96.7 106.06"/><polygon class="cls-220" points="96.7 105.98 127.47 105.28 127.47 105.36 96.7 106.06 96.7 105.98"/><polygon class="cls-221" points="96.7 105.91 127.47 105.21 127.47 105.28 96.7 105.98 96.7 105.91"/><polygon class="cls-222" points="96.7 105.83 127.47 105.13 127.47 105.21 96.7 105.91 96.7 105.83"/><polygon class="cls-223" points="96.7 105.75 127.47 105.05 127.47 105.13 96.7 105.83 96.7 105.75"/><polygon class="cls-224" points="96.7 105.67 127.47 104.98 127.47 105.05 96.7 105.75 96.7 105.67"/><polygon class="cls-225" points="96.7 105.6 127.47 104.9 127.47 104.98 96.7 105.67 96.7 105.6"/><polygon class="cls-226" points="96.7 105.52 127.47 104.82 127.47 104.9 96.7 105.6 96.7 105.52"/><polygon class="cls-227" points="96.7 105.45 127.47 104.75 127.47 104.82 96.7 105.52 96.7 105.45"/><polygon class="cls-228" points="96.7 105.37 127.47 104.67 127.47 104.75 96.7 105.45 96.7 105.37"/><polygon class="cls-229" points="96.7 105.29 127.47 104.59 127.47 104.67 96.7 105.37 96.7 105.29"/><polygon class="cls-230" points="96.7 105.22 127.47 104.52 127.47 104.59 96.7 105.29 96.7 105.22"/><polygon class="cls-231" points="96.7 105.14 127.47 104.44 127.47 104.52 96.7 105.22 96.7 105.14"/><polygon class="cls-232" points="96.7 105.06 127.47 104.36 127.47 104.44 96.7 105.14 96.7 105.06"/><polygon class="cls-233" points="96.7 104.99 127.47 104.29 127.47 104.36 96.7 105.06 96.7 104.99"/><polygon class="cls-234" points="96.7 104.91 127.47 104.21 127.47 104.29 96.7 104.99 96.7 104.91"/><polygon class="cls-235" points="96.7 104.83 127.47 104.13 127.47 104.21 96.7 104.91 96.7 104.83"/><polygon class="cls-236" points="96.7 104.76 127.47 104.06 127.47 104.13 96.7 104.83 96.7 104.76"/><polygon class="cls-237" points="96.7 104.68 127.47 103.98 127.47 104.06 96.7 104.76 96.7 104.68"/><polygon class="cls-238" points="96.7 104.6 127.47 103.91 127.47 103.98 96.7 104.68 96.7 104.6"/><polygon class="cls-239" points="96.7 104.53 127.47 103.83 127.47 103.91 96.7 104.6 96.7 104.53"/><polygon class="cls-240" points="96.7 104.45 127.47 103.75 127.47 103.83 96.7 104.53 96.7 104.45"/><polygon class="cls-241" points="96.7 104.37 127.47 103.67 127.47 103.75 96.7 104.45 96.7 104.37"/><polygon class="cls-242" points="96.7 104.3 127.47 103.6 127.47 103.67 96.7 104.37 96.7 104.3"/><polygon class="cls-243" points="96.7 104.22 127.47 103.52 127.47 103.6 96.7 104.3 96.7 104.22"/><polygon class="cls-244" points="96.7 104.14 127.47 103.44 127.47 103.52 96.7 104.22 96.7 104.14"/><polygon class="cls-245" points="96.7 104.07 127.47 103.37 127.47 103.44 96.7 104.14 96.7 104.07"/><polygon class="cls-246" points="96.7 103.99 127.47 103.29 127.47 103.37 96.7 104.07 96.7 103.99"/><polygon class="cls-247" points="96.7 103.91 127.47 103.22 127.47 103.29 96.7 103.99 96.7 103.91"/><polygon class="cls-248" points="96.7 103.84 127.47 103.14 127.47 103.22 96.7 103.91 96.7 103.84"/><polygon class="cls-249" points="96.7 103.76 127.47 103.06 127.47 103.14 96.7 103.84 96.7 103.76"/><polygon class="cls-250" points="96.7 103.68 127.47 102.99 127.47 103.06 96.7 103.76 96.7 103.68"/><polygon class="cls-251" points="96.7 103.61 127.47 102.91 127.47 102.99 96.7 103.68 96.7 103.61"/><polygon class="cls-252" points="96.7 103.53 127.47 102.83 127.47 102.91 96.7 103.61 96.7 103.53"/><polygon class="cls-253" points="96.7 103.45 127.47 102.76 127.47 102.83 96.7 103.53 96.7 103.45"/><polygon class="cls-254" points="96.7 103.38 127.47 102.68 127.47 102.76 96.7 103.45 96.7 103.38"/><polygon class="cls-255" points="96.7 103.3 127.47 102.6 127.47 102.68 96.7 103.38 96.7 103.3"/><polygon class="cls-256" points="96.7 103.22 127.47 102.53 127.47 102.6 96.7 103.3 96.7 103.22"/><polygon class="cls-257" points="96.7 103.15 127.47 102.45 127.47 102.53 96.7 103.22 96.7 103.15"/><polygon class="cls-258" points="96.7 103.07 127.47 102.37 127.47 102.45 96.7 103.15 96.7 103.07"/><polygon class="cls-259" points="96.7 103 127.47 102.3 127.47 102.37 96.7 103.07 96.7 103"/><polygon class="cls-259" points="127.47 102.3 96.7 103 96.7 94.66 127.47 94.66 127.47 102.3"/></g><path d="M110.77,124.58a15.69,15.69,0,0,1-8.34-2.89l-.1-.06-.08-.1c-1.11-1.4-2.11-2.09-2.83-2s-1.41,1.24-1.71,1.76c-.21.37-.35.61-.7.7l-.31.07-.28-.17c-.6-.38-.45-.74.38-2.68.28-.66.6-1.42.89-2.16A32.54,32.54,0,0,0,99,113a23.21,23.21,0,0,0,.65-4.06,15,15,0,0,0,0-3.07,15.43,15.43,0,0,0-1.07-4,3.81,3.81,0,0,0-.19-.43l-.47-1c-1.54-3.47-1.73-3.91-1.07-4.37l.25-.17.33.06c.37.07.54.32.88.82a10.23,10.23,0,0,0,1.26,1.6,6.71,6.71,0,0,0,4.62,1.76,46.67,46.67,0,0,0,8.17.24,47.14,47.14,0,0,0,10-1.68,6.39,6.39,0,0,0,2.15-1.53A8.35,8.35,0,0,0,126,94.7c.14-.34.25-.58.58-.7l.3-.11.3.15c.54.27.84.42-1,4.65-.09.23-.17.4-.23.53l-.11.24a17.36,17.36,0,0,0-1.38,7.28,21.31,21.31,0,0,0,.65,4.06,29.4,29.4,0,0,0,1.31,4.33c.37.94.77,1.79,1.06,2.41.58,1.22.81,1.73.25,2.15s-.86.18-1.31-.41a2.43,2.43,0,0,0-1.1-.94c-.76-.19-1.7.68-2.06,1h0l0,.05c-.13.12-3.32,3-10,4.85A9.42,9.42,0,0,1,110.77,124.58Zm-7.43-4.07c3.59,2.28,6.8,3.06,9.54,2.31,6.31-1.74,9.33-4.49,9.36-4.52h0l.51.55-.46-.59c.5-.46,1.8-1.67,3.28-1.4-.16-.37-.33-.77-.5-1.19a30.25,30.25,0,0,1-1.37-4.54,22.49,22.49,0,0,1-.68-4.33,18.56,18.56,0,0,1,1.32-7.51,8.25,8.25,0,0,1-1.4.78l-.09,0a48.54,48.54,0,0,1-10.4,1.75,47.78,47.78,0,0,1-8.37-.25,8.52,8.52,0,0,1-4.64-1.42l.29.63a4.35,4.35,0,0,1,.23.51,16.47,16.47,0,0,1,1.16,4.38,16.64,16.64,0,0,1,0,3.31,26,26,0,0,1-.69,4.35,37.39,37.39,0,0,1-1.37,4.28l-.21.55.26-.07C100.45,117.86,101.83,118.64,103.34,120.51Z"/><ellipse class="cls-260" cx="89.42" cy="31.61" rx="46.14" ry="10.6"/><path d="M89.42,43c-22.73,0-46.88-4-46.88-11.34S66.69,20.27,89.42,20.27s46.88,4,46.88,11.34S112.15,43,89.42,43Zm0-21.19C62.67,21.76,44,27,44,31.61s18.65,9.85,45.4,9.85,45.4-5.19,45.4-9.85S116.17,21.76,89.42,21.76Z"/><path class="cls-5" d="M106.17,41.83l-24.93.25a24.19,24.19,0,0,1-2.45-5.93c-.19-.73-.15-.7-.89-8.26-.23-2.34-.36-3.64.22-5.16a6.9,6.9,0,0,1,1.78-2.58,18.32,18.32,0,0,1,10-2.83,18.52,18.52,0,0,1,10.46,3.61c1.64,4,2.86,6.84,3.57,8.51,1.43,3.38,2.24,5.23,2.45,8A18,18,0,0,1,106.17,41.83Z"/><path class="cls-261" d="M58.64,33.46l-9.13,1V31.49l9.13.74Z"/><path class="cls-261" d="M68.09,35.18l-7.76,2.25-.39-2.92,8-.55Z"/><path class="cls-261" d="M68.55,31.36l-7.79-.49-.23-1.48,7.57.74Z"/><path class="cls-261" d="M78.57,38.78l-5.66-1.33-.2-1.28,4.89.48Z"/><path class="cls-261" d="M76.56,32.6l-4.9,2-.22-1.23,5.12-2Z"/><path class="cls-261" d="M70.59,38.79l-2.34.13,0-.69,2.45-.08Z"/><path class="cls-261" d="M75.48,30.54l-3.61.1-.15-1.18,3.78,0Z"/><path class="cls-261" d="M55.52,26.34,50,28.47l-.18-1,5.1-2Z"/><path class="cls-261" d="M48.08,28.37l.34,3.68L48,32l-.33-3.39Z"/><path class="cls-261" d="M77.14,28.44l-6.42-3.5.64-1,6,3.18Z"/><path class="cls-261" d="M69.57,25.17l-7.15,0L62.57,24l6.61-.1Z"/><path class="cls-261" d="M58.64,30,55,30l.07-.71h3.33Z"/><path class="cls-261" d="M59.92,26.75l-1.17-.07V25.45l1-.08Z"/><path class="cls-261" d="M58.37,36.43l-1.18-.07V35.13l1-.08Z"/><path class="cls-261" d="M68.33,28.16l-7-.56.14-1.41,7.2.67Z"/><path class="cls-262" d="M121.76,39l-6,1c-3.24.55-6.43,1.13-9.58,1.72a41.52,41.52,0,0,0-1.11-9.36,40.12,40.12,0,0,0-4.45-11.09l22.71,3.2c2.41.67,12.31,3.53,12.24,7.15,0,1.72-2.31,3.12-4.45,4.44A20.2,20.2,0,0,1,121.76,39Z"/><path class="cls-263" d="M101.51,27.53a72.19,72.19,0,0,0-22.15-1.25,3.94,3.94,0,0,1,0-2.48,38.34,38.34,0,0,1,12-.75,39.18,39.18,0,0,1,9.1,2Z"/><path class="cls-264" d="M104.19,35.84A96.9,96.9,0,0,0,80.4,34.79c-.08-.34-.16-.72-.22-1.13a11.67,11.67,0,0,1-.13-1.21A53.18,53.18,0,0,1,104,33.8Z"/></svg>
