<svg id="Layer_1" data-name="Layer 1" xmlns="http://www.w3.org/2000/svg" width="250" height="250" viewBox="0 0 250 250"><defs><style>.cls-1,.cls-3{opacity:0.45;}.cls-2{fill:#ffe675;}.cls-4{stroke:#000;}.cls-4,.cls-5{stroke-miterlimit:10;}.cls-5{fill:#f58add;stroke:#f58add;}</style></defs><title>Hjem_knap</title><ellipse class="cls-1" cx="125.77" cy="125" rx="120.22" ry="122.62" transform="translate(-35.49 51.26) rotate(-20.25)"/><circle class="cls-2" cx="124.22" cy="123.17" r="120.5"/><g class="cls-3"><path class="cls-4" d="M81.89,124l3.53,50.66h34.91l-2-31.43,26.85.65q1.28,15.39,2.54,30.78h33.67l-3.35-53.7L126.59,75.1Z"/><polygon class="cls-4" points="65.02 127.49 71.74 135.19 126.51 73.79 188.87 134.04 194.61 126.18 125.61 59.38 65.02 127.49"/></g><path class="cls-5" d="M78.81,119.44l.37,48.23h34.91V137.74l26.81.63q.3,14.64.62,29.3h33.66V116.55L126.56,72.91Z"/><polygon class="cls-5" points="61.72 122.78 67.96 130.11 126.56 71.66 185.16 129.01 191.39 121.53 126.56 57.95 61.72 122.78"/></svg>
