<svg id="Layer_1" data-name="Layer 1" xmlns="http://www.w3.org/2000/svg" xmlns:xlink="http://www.w3.org/1999/xlink" width="130" height="110" viewBox="0 0 130 110"><defs><style>.cls-1{fill:none;}.cls-2{fill:#f176ad;}.cls-3{opacity:0.45;}.cls-4{fill:#fff;}.cls-5{fill:#333;}.cls-6{fill:#f58add;}.cls-7{clip-path:url(#clip-path);}.cls-8{fill:#fffefe;}.cls-9{fill:#fffdfd;}.cls-10{fill:#fffcfc;}.cls-11{fill:#fffbfb;}.cls-12{fill:snow;}.cls-13{fill:#fff9f9;}.cls-14{fill:#fff8f8;}.cls-15{fill:#fff7f7;}.cls-16{fill:#fff6f6;}.cls-17{fill:#fff5f5;}.cls-18{fill:#fff4f4;}.cls-19{fill:#fff3f3;}.cls-20{fill:#fff2f2;}.cls-21{fill:#fff1f1;}.cls-22{fill:#fff0f0;}.cls-23{fill:#ffefef;}.cls-24{fill:#fee;}.cls-25{fill:#ffeded;}.cls-26{fill:#ffecec;}.cls-27{fill:#ffebeb;}.cls-28{fill:#ffeaea;}.cls-29{fill:#ffe9e9;}.cls-30{fill:#ffe8e8;}.cls-31{fill:#ffe7e7;}.cls-32{fill:#ffe6e6;}.cls-33{fill:#ffe5e5;}.cls-34{fill:#ffe4e4;}.cls-35{fill:#ffe3e3;}.cls-36{fill:#ffe2e2;}.cls-37{fill:#ffe1e1;}.cls-38{fill:#ffe0e0;}.cls-39{fill:#ffe0df;}.cls-40{fill:#ffdfde;}.cls-41{fill:#ffdedd;}.cls-42{fill:#ffdddc;}.cls-43{fill:#ffdcdb;}.cls-44{fill:#ffdbda;}.cls-45{fill:#ffdad9;}.cls-46{fill:#ffd9d8;}.cls-47{fill:#ffd8d7;}.cls-48{fill:#ffd7d6;}.cls-49{fill:#ffd6d5;}.cls-50{fill:#ffd5d4;}.cls-51{fill:#ffd4d3;}.cls-52{fill:#ffd3d2;}.cls-53{fill:#ffd2d1;}.cls-54{fill:#ffd1d0;}.cls-55{fill:#ffd0cf;}.cls-56{fill:#ffcfce;}.cls-57{fill:#ffcecd;}.cls-58{fill:#ffcdcc;}.cls-59{fill:#ffcccb;}.cls-60{fill:#ffcbca;}.cls-61{fill:#ffcac9;}.cls-62{fill:#ffc9c8;}.cls-63{fill:#ffc8c7;}.cls-64{fill:#ffc7c6;}.cls-65{fill:#ffc6c5;}.cls-66{fill:#ffc5c4;}.cls-67{fill:#ffc4c3;}.cls-68{fill:#ffc3c2;}.cls-69{fill:#ffc2c1;}.cls-70{fill:#ffc1c0;}.cls-71{fill:#ffc0bf;}.cls-72{fill:#ffbfbe;}.cls-73{fill:#ffbebd;}.cls-74{fill:#ffbdbc;}.cls-75{fill:#ffbcbb;}.cls-76{fill:#ffbbba;}.cls-77{fill:#ffbab9;}.cls-78{fill:#ffb9b8;}.cls-79{fill:#ffb8b7;}.cls-80{fill:#ffb7b6;}.cls-81{fill:#ffb6b5;}.cls-82{fill:#ffb5b4;}.cls-83{fill:#ffb4b3;}.cls-84{fill:#ffb3b2;}.cls-85{fill:#ffb2b1;}.cls-86{fill:#ffb1b0;}.cls-87{fill:#ffb0af;}.cls-88{fill:#ffafae;}.cls-89{fill:#ffaead;}.cls-90{fill:#ffadac;}.cls-91{fill:#ffacab;}.cls-92{fill:#ffabaa;}.cls-93{fill:#ffaaa9;}.cls-94{fill:#ffa9a8;}.cls-95{fill:#ffa8a7;}.cls-96{fill:#ffa7a6;}.cls-97{fill:#ffa6a5;}.cls-98{fill:#ffa5a4;}.cls-99{fill:#ffa4a3;}.cls-100{fill:#ffa3a2;}.cls-101{fill:#ffa2a1;}.cls-102{fill:#ffa2a0;}.cls-103{fill:#ffa19f;}.cls-104{fill:#ffa09e;}.cls-105{fill:#ff9f9d;}.cls-106{fill:#ff9e9c;}.cls-107{fill:#ff9d9b;}.cls-108{fill:#ff9c9a;}.cls-109{fill:#ff9b99;}.cls-110{fill:#ff9a98;}.cls-111{fill:#ff9997;}.cls-112{fill:#ff9896;}.cls-113{fill:#ff9795;}.cls-114{fill:#ff9694;}.cls-115{fill:#ff9593;}.cls-116{fill:#ff9492;}.cls-117{fill:#ff9391;}.cls-118{fill:#ff9290;}.cls-119{fill:#ff918f;}.cls-120{fill:#ff908e;}.cls-121{fill:#ff8f8d;}.cls-122{fill:#ff8e8c;}.cls-123{fill:#ff8d8b;}.cls-124{fill:#ff8c8a;}.cls-125{fill:#ff8b89;}.cls-126{fill:#ff8a88;}.cls-127{fill:#ff8987;}.cls-128{fill:#ff8886;}.cls-129{fill:#ff8785;}.cls-130{fill:#ff8684;}.cls-131{fill:#ff8583;}.cls-132{fill:#ff8482;}.cls-133{fill:#ff8381;}.cls-134{fill:#ff827f;}.cls-135{fill:#ff817e;}.cls-136{fill:#ff807d;}.cls-137{fill:#ff7f7c;}.cls-138{fill:#ff7e7b;}.cls-139{fill:#ff7d7a;}.cls-140{fill:#ff7c79;}.cls-141{fill:#ff7b78;}.cls-142{fill:#ff7a77;}.cls-143{fill:#ff7976;}.cls-144{fill:#ff7875;}.cls-145{fill:#ff7774;}.cls-146{fill:#ff7673;}.cls-147{fill:#ff7572;}.cls-148{fill:#ff7471;}.cls-149{fill:#ff7370;}.cls-150{fill:#ff726f;}.cls-151{fill:#ff716e;}.cls-152{fill:#ff706d;}.cls-153{fill:#ff6f6c;}.cls-154{fill:#ff6e6b;}.cls-155{fill:#ff6d6a;}.cls-156{fill:#ff6c69;}.cls-157{fill:#ff6b68;}.cls-158{fill:#ff6a67;}.cls-159{fill:#ff6966;}.cls-160{fill:#ff6865;}.cls-161{fill:#ff6764;}.cls-162{fill:#ff6663;}.cls-163{fill:#ff6562;}.cls-164{fill:#ff6461;}.cls-165{fill:#ff6360;}.cls-166{fill:#ff635f;}.cls-167{fill:#ff625e;}.cls-168{fill:#ff615d;}.cls-169{fill:#ff605c;}.cls-170{fill:#ff5f5b;}.cls-171{fill:#ff5e5a;}.cls-172{fill:#ff5d59;}.cls-173{fill:#ff5c58;}.cls-174{fill:#ff5b57;}.cls-175{fill:#ff5a56;}.cls-176{fill:#ff5955;}.cls-177{fill:#ff5854;}.cls-178{fill:#ff5753;}.cls-179{fill:#ff5652;}.cls-180{fill:#ff5551;}.cls-181{fill:#ff5450;}.cls-182{fill:#ff534f;}.cls-183{fill:#ff524e;}.cls-184{fill:#ff514d;}.cls-185{fill:#ff504c;}.cls-186{fill:#ff4f4b;}.cls-187{fill:#ff4e4a;}.cls-188{fill:#ff4d49;}.cls-189{fill:#ff4c48;}.cls-190{fill:#ff4b47;}.cls-191{fill:#ff4a46;}.cls-192{fill:#ff4945;}.cls-193{fill:#ff4844;}.cls-194{fill:#ff4743;}.cls-195{fill:#ff4642;}.cls-196{fill:#ff4541;}.cls-197{fill:#ff4440;}.cls-198{fill:#ff433f;}.cls-199{fill:#ff423e;}.cls-200{fill:#ff413d;}.cls-201{fill:#ff403c;}.cls-202{fill:#ff3f3b;}.cls-203{fill:#ff3e3a;}.cls-204{fill:#ff3d39;}.cls-205{fill:#ff3c38;}.cls-206{fill:#ff3b37;}.cls-207{fill:#ff3a36;}.cls-208{fill:#ff3935;}.cls-209{fill:#ff3834;}.cls-210{fill:#ff3733;}.cls-211{fill:#ff3632;}.cls-212{fill:#ff3531;}.cls-213{fill:#ff3430;}.cls-214{fill:#ff332f;}.cls-215{fill:#ff322e;}.cls-216{fill:#ff312d;}.cls-217{fill:#ff302c;}.cls-218{fill:#ff2f2b;}.cls-219{fill:#ff2e2a;}.cls-220{fill:#ff2d29;}.cls-221{fill:#ff2c28;}.cls-222{fill:#ff2b27;}.cls-223{fill:#ff2a26;}.cls-224{fill:#ff2925;}.cls-225{fill:#ff2824;}.cls-226{fill:#ff2723;}.cls-227{fill:#ff2622;}.cls-228{fill:#ff2521;}.cls-229{fill:#ff2520;}.cls-230{fill:#ff241f;}.cls-231{fill:#ff231e;}.cls-232{fill:#ff221d;}.cls-233{fill:#ff211c;}.cls-234{fill:#ff201b;}.cls-235{fill:#ff1f1a;}.cls-236{fill:#ff1e19;}.cls-237{fill:#ff1d18;}.cls-238{fill:#ff1c17;}.cls-239{fill:#ff1b16;}.cls-240{fill:#ff1a15;}.cls-241{fill:#ff1914;}.cls-242{fill:#ff1813;}.cls-243{fill:#ff1712;}.cls-244{fill:#ff1611;}.cls-245{fill:#ff1510;}.cls-246{fill:#ff140f;}.cls-247{fill:#ff130e;}.cls-248{fill:#ff120d;}.cls-249{fill:#ff110c;}.cls-250{fill:#ff100b;}.cls-251{fill:#ff0f0a;}.cls-252{fill:#ff0e09;}.cls-253{fill:#ff0d08;}.cls-254{fill:#ff0c07;}.cls-255{fill:#ff0b06;}.cls-256{fill:#ff0a05;}.cls-257{fill:#ff0904;}.cls-258{fill:#ff0803;}.cls-259{fill:#ff0702;}.cls-260{fill:#ff0601;}.cls-261{fill:#006837;}.cls-262{fill:#7ac943;}.cls-263{fill:#a6cf52;}.cls-264{fill:url(#linear-gradient);}.cls-265{fill:url(#linear-gradient-2);}</style><clipPath id="clip-path"><path class="cls-1" d="M81.51,86.62a14.35,14.35,0,0,1-5.64,2.73c-1.26.35-3.19.35-6-1.43-.58-.74-1.34-1.45-2.08-1.3s-1.35,1.49-1.43,1.44a23.44,23.44,0,0,1,.91-2.3,20.58,20.58,0,0,0,.78-2.44,14.82,14.82,0,0,0,.39-2.45,9.71,9.71,0,0,0,0-1.87,9.34,9.34,0,0,0-.65-2.44c-.11-.28-.09-.19-.39-.86a9.9,9.9,0,0,1-.78-2c.08-.06.44.7,1,1.29a4.38,4.38,0,0,0,3,1.15,27.19,27.19,0,0,0,4.8.14,27.81,27.81,0,0,0,6-1,4.3,4.3,0,0,0,1.43-1,6.68,6.68,0,0,0,1-1.72,10.85,10.85,0,0,1-.78,2.15l-.2.45a10.63,10.63,0,0,0-.83,4.44A11.82,11.82,0,0,0,82.5,82a17.34,17.34,0,0,0,.77,2.59,17.72,17.72,0,0,1,.91,2.16c-.07,0-.41-.71-1-.87S81.76,86.39,81.51,86.62Z"/></clipPath><linearGradient id="linear-gradient" x1="62.92" y1="35.09" x2="61.17" y2="21.82" gradientUnits="userSpaceOnUse"><stop offset="0" stop-color="#fff"/><stop offset="0.49" stop-color="#fff"/><stop offset="1" stop-color="#ff94d3"/></linearGradient><linearGradient id="linear-gradient-2" x1="64.02" y1="39.98" x2="62.32" y2="27.05" xlink:href="#linear-gradient"/></defs><title>liv</title><path class="cls-2" d="M121.27,57.88c-7,13.25-20.36,21.38-24.08,23.66-5.81,3.54-11,8-16.78,11.61a62.84,62.84,0,0,0-6,4.3,72.84,72.84,0,0,0-6.45,6,21.14,21.14,0,0,0-3,3.44c-.94,1.5-1.23,2.62-1.72,2.58s-.5-1.9-1.72-3.87A9,9,0,0,0,58.91,103c-3.12-2.29-5.85-5.11-9-7.31C7.19,66.2,3.43,44.12,3.43,44.12c-.22-1.27-2.86-18.33,8.17-31A32.48,32.48,0,0,1,30.52,2.4C39.61.91,49.46,3.53,55,8.85A34.37,34.37,0,0,1,61.49,17c1.36,4.61,2.34,5.63,3,5.6,1.27-.07,1.82-3.45,3-6.49,2.18-5.63,7.07-11.44,13-14,8.43-3.64,18-.27,23.14,1.56.39.14.91.33,1.59.6,4,1.61,12.56,5.85,17.76,15.31C132.21,36.4,122.86,54.89,121.27,57.88Z"/><g class="cls-3"><ellipse cx="61.71" cy="36.98" rx="14.12" ry="48.44" transform="translate(24.57 98.59) rotate(-89.86)"/><path d="M104.33,91.28a130.07,130.07,0,0,1-38.79,6.34,134,134,0,0,1-46.26-7.85,5.89,5.89,0,0,1-3.74-2.12,7.13,7.13,0,0,1-1.23-2.26s-.6-2.9-.6-3l-.86-32c0-1.51,0-3,0-4.53,0-5.21,0-8.73.41-8.77s.31,1.44,1.25,3a7.57,7.57,0,0,0,3.51,3,86.51,86.51,0,0,0,17.76,5.74S46.44,51,65.46,51.1c0,0,19.07.54,34.79-5.44a33.08,33.08,0,0,0,4.49-2.11c1-.6.94-.65,2.17-1.36,1.52-.88,2-1,2.42-1.66A6,6,0,0,0,110,38c.09,0,.21,7.71.23,8.61,0,0,0,.17.08,2.87q.5,16.23,1,32.47a9.79,9.79,0,0,1-.43,3.48C109.45,90,104.89,91.14,104.33,91.28Z"/><ellipse cx="49.75" cy="67.94" rx="7.26" ry="8.47" transform="translate(-6.65 5.41) rotate(-5.84)"/><ellipse cx="97.98" cy="65.07" rx="7.26" ry="8.47" transform="translate(-6.11 10.31) rotate(-5.84)"/><ellipse cx="97.84" cy="62.43" rx="3.24" ry="3.78" transform="translate(-5.84 10.28) rotate(-5.84)"/><ellipse cx="49.33" cy="64.47" rx="2.98" ry="3.55" transform="translate(-5.67 4.76) rotate(-5.23)"/><ellipse cx="50.58" cy="82.14" rx="4.23" ry="9.29" transform="translate(-31.91 132.14) rotate(-89.6)"/><ellipse cx="100.29" cy="79.42" rx="9.2" ry="3.85" transform="translate(-12.05 18.21) rotate(-9.79)"/><path d="M82.27,89.62a13.82,13.82,0,0,1-5.57,2.87c-1.25.36-3.18.36-6-1.51-.6-.78-1.38-1.52-2.12-1.36s-1.31,1.56-1.38,1.51A22.25,22.25,0,0,1,68,88.71a22.83,22.83,0,0,0,.71-2.57,15.72,15.72,0,0,0,.32-2.57,10.1,10.1,0,0,0,0-2A10.86,10.86,0,0,0,68.29,79c-.12-.29-.1-.2-.41-.9A9.22,9.22,0,0,1,67,76c.07,0,.45.74,1.08,1.36a4.33,4.33,0,0,0,3,1.21,26.4,26.4,0,0,0,4.81.15,26,26,0,0,0,6-1.06,4,4,0,0,0,1.4-1.05,7.22,7.22,0,0,0,1-1.82,12.18,12.18,0,0,1-.72,2.27c-.09.24-.15.38-.19.48a11.45,11.45,0,0,0-.71,4.66,14,14,0,0,0,.46,2.56A17.57,17.57,0,0,0,84,87.5a21.15,21.15,0,0,1,1,2.27c-.08.06-.43-.74-1.06-.91S82.51,89.38,82.27,89.62Z"/><ellipse cx="61.39" cy="36.15" rx="6.49" ry="26.91" transform="translate(25.14 97.48) rotate(-89.9)"/><path d="M71.33,42.41l-14.54.16a16.1,16.1,0,0,1-1.53-3.64c-.12-.44-.09-.43-.65-5.06a6.84,6.84,0,0,1,0-3.16,4,4,0,0,1,1-1.58,10.09,10.09,0,0,1,5.8-1.74,10.81,10.81,0,0,1,6.16,2.21c1,2.43,1.78,4.2,2.22,5.22a15.44,15.44,0,0,1,1.56,4.9A11.23,11.23,0,0,1,71.33,42.41Z"/><path d="M43.47,37.28l-5.31.61,0-1.82,5.34.46Z"/><path d="M49,38.34l-4.49,1.38-.28-1.8,4.65-.33Z"/><path d="M49.21,36l-4.55-.3-.16-.91,4.43.45Z"/><path d="M55.18,40.53l-3.84-.94-.16-.91,3.31.34Z"/><path d="M53.91,36.75,51.08,38l-.15-.75,3-1.21Z"/><path d="M49.8,40.54l-1.57.09,0-.49,1.65-.06Z"/><path d="M53.24,35.49l-2.1.07L51,34.83l2.2,0Z"/><path d="M41.53,32.92l-3.19,1.31-.12-.62,2.94-1.24Z"/><path d="M37.22,34.17l.26,2.25-.26,0L37,34.31Z"/><path d="M54.18,34.2l-3.81-2.14.36-.64,3.53,1.95Z"/><path d="M49.71,32.2l-4.18,0,.07-.76,3.86-.07Z"/><path d="M43.41,35.17l-2.1,0,0-.43h1.94Z"/><path d="M44.11,33.17l-.69,0,0-.76.58,0Z"/><path d="M43.36,39.1l-.69,0,0-.76.58,0Z"/><path d="M49,34l-4.12-.34.06-.86,4.21.41Z"/><path d="M80.37,40.68l-3.49.6q-2.82.51-5.55,1.06a27.22,27.22,0,0,0-.8-5.74,26,26,0,0,0-2.78-6.79l13.29,2c1.42.41,7.25,2.16,7.26,4.38,0,1.05-1.29,1.91-2.52,2.72A11.1,11.1,0,0,1,80.37,40.68Z"/></g><ellipse class="cls-4" cx="62.8" cy="36.96" rx="48.44" ry="13.44"/><path d="M62.8,51.49c-13,0-25.3-1.42-34.54-4-6.83-1.9-15-5.27-15-10.55s8.15-8.65,15-10.55c9.24-2.56,21.51-4,34.54-4s25.3,1.42,34.54,4c6.84,1.9,15,5.27,15,10.55s-8.14,8.65-15,10.55C88.1,50.07,75.83,51.49,62.8,51.49Zm0-26.89C34.9,24.6,15.45,31.12,15.45,37S34.9,49.32,62.8,49.32,110.15,42.8,110.15,37,90.71,24.6,62.8,24.6Z"/><path class="cls-5" d="M104,88.64a138.45,138.45,0,0,1-39,6A138.44,138.44,0,0,1,19,87.2a5.79,5.79,0,0,1-3.69-2A6.38,6.38,0,0,1,14.1,83s-.52-2.75-.52-2.87V49.68c0-1.44.1-2.87.13-4.31.13-5,.25-8.3.65-8.34s.27,1.37,1.17,2.88A7.21,7.21,0,0,0,19,42.78a87.27,87.27,0,0,0,17.61,5.46s10.59,2.1,29.61,2.16c0,0,19,.51,34.93-5.17a34.76,34.76,0,0,0,4.55-2c1-.57,1-.61,2.2-1.29,1.55-.84,2-.93,2.47-1.58a5.64,5.64,0,0,0,.78-2.45c.09,0,0,7.34,0,8.2,0,0,0,.16,0,2.73q.06,15.45.13,30.91a9.08,9.08,0,0,1-.52,3.3C109.13,87.39,104.53,88.51,104,88.64Z"/><path d="M63.69,95.77a139.19,139.19,0,0,1-45-7.51,6.8,6.8,0,0,1-4.27-2.38,7.25,7.25,0,0,1-1.37-2.52h0c-.18-.7-.58-3.18-.58-3.2V49.68c0-.91,0-1.82.07-2.71,0-.54,0-1.08.06-1.63.07-2.68.13-4.63.22-6.05.12-1.8.21-3.23,1.41-3.34,1-.09,1.29.9,1.43,1.43a7.43,7.43,0,0,0,.77,2,6.1,6.1,0,0,0,2.93,2.43,85.85,85.85,0,0,0,17.39,5.4c.1,0,10.73,2.07,29.4,2.14.8,0,19.1.43,34.56-5.12a33.64,33.64,0,0,0,4.39-1.94c.46-.25.69-.39.92-.54s.6-.38,1.29-.75l1-.55c.75-.38.89-.46,1-.69a4.13,4.13,0,0,0,.58-1.81,1.15,1.15,0,0,1,.45-.89l.37-.28.47.08c.91.15.92.94.93,1.78,0,.46,0,1.1,0,1.81,0,1.4,0,3.1,0,4.29,0,.68,0,1.19,0,1.38v.07s0,.33,0,2.65l.13,30.91a9.83,9.83,0,0,1-.58,3.68c-1.72,4.7-6.45,6-7.49,6.29A139.2,139.2,0,0,1,65,95.76Zm-48.53-13a4.93,4.93,0,0,0,.95,1.73,4.6,4.6,0,0,0,3,1.63l.11,0,.1,0A136.89,136.89,0,0,0,65,93.59a137,137,0,0,0,38.65-6l.08,0c.76-.17,4.62-1.22,6-4.92a7.73,7.73,0,0,0,.45-2.91L110,48.82V46.08c0-.2,0-.71,0-1.39s0-1.67,0-2.7l-.69.37-1,.51c-.63.35-.89.51-1.17.69s-.52.32-1,.6a35.53,35.53,0,0,1-4.7,2.09c-15.85,5.67-34.54,5.26-35.33,5.24-18.88-.07-29.68-2.16-29.79-2.18a89.56,89.56,0,0,1-17.83-5.53A8.34,8.34,0,0,1,14.94,41c-.07,1.48-.11,3.15-.14,4.42,0,.55,0,1.11-.06,1.66,0,.86-.07,1.76-.07,2.62V80.09C14.73,80.45,15.06,82.25,15.16,82.76Z"/><ellipse cx="49.58" cy="65.99" rx="7.27" ry="8.05"/><ellipse cx="97.88" cy="63.26" rx="7.27" ry="8.05"/><ellipse class="cls-4" cx="97.82" cy="60.86" rx="3.25" ry="3.7"/><ellipse class="cls-4" cx="49.25" cy="62.69" rx="2.99" ry="3.38"/><ellipse class="cls-6" cx="50.03" cy="79.51" rx="9.28" ry="4.02"/><ellipse class="cls-6" cx="99.81" cy="76.92" rx="9.23" ry="3.66" transform="translate(-11.22 17.32) rotate(-9.39)"/><g class="cls-7"><polygon class="cls-4" points="66.32 88.72 84.27 88.31 84.27 89.7 66.32 89.7 66.32 88.72"/><polygon class="cls-4" points="66.32 88.68 84.27 88.27 84.27 88.31 66.32 88.72 66.32 88.68"/><polygon class="cls-8" points="66.32 88.63 84.27 88.22 84.27 88.27 66.32 88.68 66.32 88.63"/><polygon class="cls-9" points="66.32 88.59 84.27 88.18 84.27 88.22 66.32 88.63 66.32 88.59"/><polygon class="cls-10" points="66.32 88.54 84.27 88.14 84.27 88.18 66.32 88.59 66.32 88.54"/><polygon class="cls-11" points="66.32 88.5 84.27 88.09 84.27 88.14 66.32 88.54 66.32 88.5"/><polygon class="cls-12" points="66.32 88.45 84.27 88.05 84.27 88.09 66.32 88.5 66.32 88.45"/><polygon class="cls-13" points="66.32 88.41 84.27 88 84.27 88.05 66.32 88.45 66.32 88.41"/><polygon class="cls-14" points="66.32 88.36 84.27 87.96 84.27 88 66.32 88.41 66.32 88.36"/><polygon class="cls-15" points="66.32 88.32 84.27 87.91 84.27 87.96 66.32 88.36 66.32 88.32"/><polygon class="cls-16" points="66.32 88.28 84.27 87.87 84.27 87.91 66.32 88.32 66.32 88.28"/><polygon class="cls-17" points="66.32 88.23 84.27 87.82 84.27 87.87 66.32 88.28 66.32 88.23"/><polygon class="cls-18" points="66.32 88.19 84.27 87.78 84.27 87.82 66.32 88.23 66.32 88.19"/><polygon class="cls-19" points="66.32 88.14 84.27 87.73 84.27 87.78 66.32 88.19 66.32 88.14"/><polygon class="cls-20" points="66.32 88.1 84.27 87.69 84.27 87.73 66.32 88.14 66.32 88.1"/><polygon class="cls-21" points="66.32 88.05 84.27 87.64 84.27 87.69 66.32 88.1 66.32 88.05"/><polygon class="cls-22" points="66.32 88.01 84.27 87.6 84.27 87.64 66.32 88.05 66.32 88.01"/><polygon class="cls-23" points="66.32 87.96 84.27 87.56 84.27 87.6 66.32 88.01 66.32 87.96"/><polygon class="cls-24" points="66.32 87.92 84.27 87.51 84.27 87.56 66.32 87.96 66.32 87.92"/><polygon class="cls-25" points="66.32 87.87 84.27 87.47 84.27 87.51 66.32 87.92 66.32 87.87"/><polygon class="cls-26" points="66.32 87.83 84.27 87.42 84.27 87.47 66.32 87.87 66.32 87.83"/><polygon class="cls-27" points="66.32 87.78 84.27 87.38 84.27 87.42 66.32 87.83 66.32 87.78"/><polygon class="cls-28" points="66.32 87.74 84.27 87.33 84.27 87.38 66.32 87.78 66.32 87.74"/><polygon class="cls-29" points="66.32 87.69 84.27 87.29 84.27 87.33 66.32 87.74 66.32 87.69"/><polygon class="cls-30" points="66.32 87.65 84.27 87.24 84.27 87.29 66.32 87.69 66.32 87.65"/><polygon class="cls-31" points="66.32 87.61 84.27 87.2 84.27 87.24 66.32 87.65 66.32 87.61"/><polygon class="cls-32" points="66.32 87.56 84.27 87.15 84.27 87.2 66.32 87.61 66.32 87.56"/><polygon class="cls-33" points="66.32 87.52 84.27 87.11 84.27 87.15 66.32 87.56 66.32 87.52"/><polygon class="cls-34" points="66.32 87.47 84.27 87.06 84.27 87.11 66.32 87.52 66.32 87.47"/><polygon class="cls-35" points="66.32 87.43 84.27 87.02 84.27 87.06 66.32 87.47 66.32 87.43"/><polygon class="cls-36" points="66.32 87.38 84.27 86.97 84.27 87.02 66.32 87.43 66.32 87.38"/><polygon class="cls-37" points="66.32 87.34 84.27 86.93 84.27 86.97 66.32 87.38 66.32 87.34"/><polygon class="cls-38" points="66.32 87.29 84.27 86.89 84.27 86.93 66.32 87.34 66.32 87.29"/><polygon class="cls-39" points="66.32 87.25 84.27 86.84 84.27 86.89 66.32 87.29 66.32 87.25"/><polygon class="cls-40" points="66.32 87.2 84.27 86.8 84.27 86.84 66.32 87.25 66.32 87.2"/><polygon class="cls-41" points="66.32 87.16 84.27 86.75 84.27 86.8 66.32 87.2 66.32 87.16"/><polygon class="cls-42" points="66.32 87.11 84.27 86.71 84.27 86.75 66.32 87.16 66.32 87.11"/><polygon class="cls-43" points="66.32 87.07 84.27 86.66 84.27 86.71 66.32 87.11 66.32 87.07"/><polygon class="cls-44" points="66.32 87.02 84.27 86.62 84.27 86.66 66.32 87.07 66.32 87.02"/><polygon class="cls-45" points="66.32 86.98 84.27 86.57 84.27 86.62 66.32 87.02 66.32 86.98"/><polygon class="cls-46" points="66.32 86.94 84.27 86.53 84.27 86.57 66.32 86.98 66.32 86.94"/><polygon class="cls-47" points="66.32 86.89 84.27 86.48 84.27 86.53 66.32 86.94 66.32 86.89"/><polygon class="cls-48" points="66.32 86.84 84.27 86.44 84.27 86.48 66.32 86.89 66.32 86.84"/><polygon class="cls-49" points="66.32 86.8 84.27 86.39 84.27 86.44 66.32 86.84 66.32 86.8"/><polygon class="cls-50" points="66.32 86.76 84.27 86.35 84.27 86.39 66.32 86.8 66.32 86.76"/><polygon class="cls-51" points="66.32 86.71 84.27 86.3 84.27 86.35 66.32 86.76 66.32 86.71"/><polygon class="cls-52" points="66.32 86.67 84.27 86.26 84.27 86.3 66.32 86.71 66.32 86.67"/><polygon class="cls-53" points="66.32 86.62 84.27 86.22 84.27 86.26 66.32 86.67 66.32 86.62"/><polygon class="cls-54" points="66.32 86.58 84.27 86.17 84.27 86.22 66.32 86.62 66.32 86.58"/><polygon class="cls-55" points="66.32 86.53 84.27 86.13 84.27 86.17 66.32 86.58 66.32 86.53"/><polygon class="cls-56" points="66.32 86.49 84.27 86.08 84.27 86.13 66.32 86.53 66.32 86.49"/><polygon class="cls-57" points="66.32 86.44 84.27 86.04 84.27 86.08 66.32 86.49 66.32 86.44"/><polygon class="cls-58" points="66.32 86.4 84.27 85.99 84.27 86.04 66.32 86.44 66.32 86.4"/><polygon class="cls-59" points="66.32 86.35 84.27 85.95 84.27 85.99 66.32 86.4 66.32 86.35"/><polygon class="cls-60" points="66.32 86.31 84.27 85.9 84.27 85.95 66.32 86.35 66.32 86.31"/><polygon class="cls-61" points="66.32 86.26 84.27 85.86 84.27 85.9 66.32 86.31 66.32 86.26"/><polygon class="cls-62" points="66.32 86.22 84.27 85.81 84.27 85.86 66.32 86.26 66.32 86.22"/><polygon class="cls-63" points="66.32 86.17 84.27 85.77 84.27 85.81 66.32 86.22 66.32 86.17"/><polygon class="cls-64" points="66.32 86.13 84.27 85.72 84.27 85.77 66.32 86.17 66.32 86.13"/><polygon class="cls-65" points="66.32 86.09 84.27 85.68 84.27 85.72 66.32 86.13 66.32 86.09"/><polygon class="cls-66" points="66.32 86.04 84.27 85.63 84.27 85.68 66.32 86.09 66.32 86.04"/><polygon class="cls-67" points="66.32 86 84.27 85.59 84.27 85.63 66.32 86.04 66.32 86"/><polygon class="cls-68" points="66.32 85.95 84.27 85.54 84.27 85.59 66.32 86 66.32 85.95"/><polygon class="cls-69" points="66.32 85.91 84.27 85.5 84.27 85.54 66.32 85.95 66.32 85.91"/><polygon class="cls-70" points="66.32 85.86 84.27 85.45 84.27 85.5 66.32 85.91 66.32 85.86"/><polygon class="cls-71" points="66.32 85.82 84.27 85.41 84.27 85.45 66.32 85.86 66.32 85.82"/><polygon class="cls-72" points="66.32 85.77 84.27 85.37 84.27 85.41 66.32 85.82 66.32 85.77"/><polygon class="cls-73" points="66.32 85.73 84.27 85.32 84.27 85.37 66.32 85.77 66.32 85.73"/><polygon class="cls-74" points="66.32 85.68 84.27 85.28 84.27 85.32 66.32 85.73 66.32 85.68"/><polygon class="cls-75" points="66.32 85.64 84.27 85.23 84.27 85.28 66.32 85.68 66.32 85.64"/><polygon class="cls-76" points="66.32 85.59 84.27 85.19 84.27 85.23 66.32 85.64 66.32 85.59"/><polygon class="cls-77" points="66.32 85.55 84.27 85.14 84.27 85.19 66.32 85.59 66.32 85.55"/><polygon class="cls-78" points="66.32 85.5 84.27 85.1 84.27 85.14 66.32 85.55 66.32 85.5"/><polygon class="cls-79" points="66.32 85.46 84.27 85.05 84.27 85.1 66.32 85.5 66.32 85.46"/><polygon class="cls-80" points="66.32 85.42 84.27 85.01 84.27 85.05 66.32 85.46 66.32 85.42"/><polygon class="cls-81" points="66.32 85.37 84.27 84.96 84.27 85.01 66.32 85.42 66.32 85.37"/><polygon class="cls-82" points="66.32 85.33 84.27 84.92 84.27 84.96 66.32 85.37 66.32 85.33"/><polygon class="cls-83" points="66.32 85.28 84.27 84.87 84.27 84.92 66.32 85.33 66.32 85.28"/><polygon class="cls-84" points="66.32 85.24 84.27 84.83 84.27 84.87 66.32 85.28 66.32 85.24"/><polygon class="cls-85" points="66.32 85.19 84.27 84.78 84.27 84.83 66.32 85.24 66.32 85.19"/><polygon class="cls-86" points="66.32 85.15 84.27 84.74 84.27 84.78 66.32 85.19 66.32 85.15"/><polygon class="cls-87" points="66.32 85.1 84.27 84.7 84.27 84.74 66.32 85.15 66.32 85.1"/><polygon class="cls-88" points="66.32 85.06 84.27 84.65 84.27 84.7 66.32 85.1 66.32 85.06"/><polygon class="cls-89" points="66.32 85.01 84.27 84.61 84.27 84.65 66.32 85.06 66.32 85.01"/><polygon class="cls-90" points="66.32 84.97 84.27 84.56 84.27 84.61 66.32 85.01 66.32 84.97"/><polygon class="cls-91" points="66.32 84.92 84.27 84.52 84.27 84.56 66.32 84.97 66.32 84.92"/><polygon class="cls-92" points="66.32 84.88 84.27 84.47 84.27 84.52 66.32 84.92 66.32 84.88"/><polygon class="cls-93" points="66.32 84.83 84.27 84.43 84.27 84.47 66.32 84.88 66.32 84.83"/><polygon class="cls-94" points="66.32 84.79 84.27 84.38 84.27 84.43 66.32 84.83 66.32 84.79"/><polygon class="cls-95" points="66.32 84.75 84.27 84.34 84.27 84.38 66.32 84.79 66.32 84.75"/><polygon class="cls-96" points="66.32 84.7 84.27 84.29 84.27 84.34 66.32 84.75 66.32 84.7"/><polygon class="cls-97" points="66.32 84.66 84.27 84.25 84.27 84.29 66.32 84.7 66.32 84.66"/><polygon class="cls-98" points="66.32 84.61 84.27 84.2 84.27 84.25 66.32 84.66 66.32 84.61"/><polygon class="cls-99" points="66.32 84.57 84.27 84.16 84.27 84.2 66.32 84.61 66.32 84.57"/><polygon class="cls-100" points="66.32 84.52 84.27 84.11 84.27 84.16 66.32 84.57 66.32 84.52"/><polygon class="cls-101" points="66.32 84.48 84.27 84.07 84.27 84.11 66.32 84.52 66.32 84.48"/><polygon class="cls-102" points="66.32 84.43 84.27 84.03 84.27 84.07 66.32 84.48 66.32 84.43"/><polygon class="cls-103" points="66.32 84.39 84.27 83.98 84.27 84.03 66.32 84.43 66.32 84.39"/><polygon class="cls-104" points="66.32 84.34 84.27 83.94 84.27 83.98 66.32 84.39 66.32 84.34"/><polygon class="cls-105" points="66.32 84.3 84.27 83.89 84.27 83.94 66.32 84.34 66.32 84.3"/><polygon class="cls-106" points="66.32 84.25 84.27 83.85 84.27 83.89 66.32 84.3 66.32 84.25"/><polygon class="cls-107" points="66.32 84.21 84.27 83.8 84.27 83.85 66.32 84.25 66.32 84.21"/><polygon class="cls-108" points="66.32 84.17 84.27 83.76 84.27 83.8 66.32 84.21 66.32 84.17"/><polygon class="cls-109" points="66.32 84.12 84.27 83.71 84.27 83.76 66.32 84.17 66.32 84.12"/><polygon class="cls-110" points="66.32 84.08 84.27 83.67 84.27 83.71 66.32 84.12 66.32 84.08"/><polygon class="cls-111" points="66.32 84.03 84.27 83.62 84.27 83.67 66.32 84.08 66.32 84.03"/><polygon class="cls-112" points="66.32 83.99 84.27 83.58 84.27 83.62 66.32 84.03 66.32 83.99"/><polygon class="cls-113" points="66.32 83.94 84.27 83.53 84.27 83.58 66.32 83.99 66.32 83.94"/><polygon class="cls-114" points="66.32 83.9 84.27 83.49 84.27 83.53 66.32 83.94 66.32 83.9"/><polygon class="cls-115" points="66.32 83.85 84.27 83.44 84.27 83.49 66.32 83.9 66.32 83.85"/><polygon class="cls-116" points="66.32 83.81 84.27 83.4 84.27 83.44 66.32 83.85 66.32 83.81"/><polygon class="cls-117" points="66.32 83.76 84.27 83.36 84.27 83.4 66.32 83.81 66.32 83.76"/><polygon class="cls-118" points="66.32 83.72 84.27 83.31 84.27 83.36 66.32 83.76 66.32 83.72"/><polygon class="cls-119" points="66.32 83.67 84.27 83.27 84.27 83.31 66.32 83.72 66.32 83.67"/><polygon class="cls-120" points="66.32 83.63 84.27 83.22 84.27 83.27 66.32 83.67 66.32 83.63"/><polygon class="cls-121" points="66.32 83.58 84.27 83.18 84.27 83.22 66.32 83.63 66.32 83.58"/><polygon class="cls-122" points="66.32 83.54 84.27 83.13 84.27 83.18 66.32 83.58 66.32 83.54"/><polygon class="cls-123" points="66.32 83.5 84.27 83.09 84.27 83.13 66.32 83.54 66.32 83.5"/><polygon class="cls-124" points="66.32 83.45 84.27 83.04 84.27 83.09 66.32 83.5 66.32 83.45"/><polygon class="cls-125" points="66.32 83.41 84.27 83 84.27 83.04 66.32 83.45 66.32 83.41"/><polygon class="cls-126" points="66.32 83.36 84.27 82.95 84.27 83 66.32 83.41 66.32 83.36"/><polygon class="cls-127" points="66.32 83.32 84.27 82.91 84.27 82.95 66.32 83.36 66.32 83.32"/><polygon class="cls-128" points="66.32 83.27 84.27 82.86 84.27 82.91 66.32 83.32 66.32 83.27"/><polygon class="cls-129" points="66.32 83.23 84.27 82.82 84.27 82.86 66.32 83.27 66.32 83.23"/><polygon class="cls-130" points="66.32 83.18 84.27 82.77 84.27 82.82 66.32 83.23 66.32 83.18"/><polygon class="cls-131" points="66.32 83.14 84.27 82.73 84.27 82.77 66.32 83.18 66.32 83.14"/><polygon class="cls-132" points="66.32 83.09 84.27 82.69 84.27 82.73 66.32 83.14 66.32 83.09"/><polygon class="cls-133" points="66.32 83.05 84.27 82.64 84.27 82.69 66.32 83.09 66.32 83.05"/><polygon class="cls-134" points="66.32 83 84.27 82.6 84.27 82.64 66.32 83.05 66.32 83"/><polygon class="cls-135" points="66.32 82.96 84.27 82.55 84.27 82.6 66.32 83 66.32 82.96"/><polygon class="cls-136" points="66.32 82.91 84.27 82.51 84.27 82.55 66.32 82.96 66.32 82.91"/><polygon class="cls-137" points="66.32 82.87 84.27 82.46 84.27 82.51 66.32 82.91 66.32 82.87"/><polygon class="cls-138" points="66.32 82.82 84.27 82.42 84.27 82.46 66.32 82.87 66.32 82.82"/><polygon class="cls-139" points="66.32 82.78 84.27 82.37 84.27 82.42 66.32 82.82 66.32 82.78"/><polygon class="cls-140" points="66.32 82.73 84.27 82.33 84.27 82.37 66.32 82.78 66.32 82.73"/><polygon class="cls-141" points="66.32 82.69 84.27 82.28 84.27 82.33 66.32 82.73 66.32 82.69"/><polygon class="cls-142" points="66.32 82.65 84.27 82.24 84.27 82.28 66.32 82.69 66.32 82.65"/><polygon class="cls-143" points="66.32 82.6 84.27 82.19 84.27 82.24 66.32 82.65 66.32 82.6"/><polygon class="cls-144" points="66.32 82.56 84.27 82.15 84.27 82.19 66.32 82.6 66.32 82.56"/><polygon class="cls-145" points="66.32 82.51 84.27 82.1 84.27 82.15 66.32 82.56 66.32 82.51"/><polygon class="cls-146" points="66.32 82.47 84.27 82.06 84.27 82.1 66.32 82.51 66.32 82.47"/><polygon class="cls-147" points="66.32 82.42 84.27 82.02 84.27 82.06 66.32 82.47 66.32 82.42"/><polygon class="cls-148" points="66.32 82.38 84.27 81.97 84.27 82.02 66.32 82.42 66.32 82.38"/><polygon class="cls-149" points="66.32 82.33 84.27 81.93 84.27 81.97 66.32 82.38 66.32 82.33"/><polygon class="cls-150" points="66.32 82.29 84.27 81.88 84.27 81.93 66.32 82.33 66.32 82.29"/><polygon class="cls-151" points="66.32 82.24 84.27 81.84 84.27 81.88 66.32 82.29 66.32 82.24"/><polygon class="cls-152" points="66.32 82.2 84.27 81.79 84.27 81.84 66.32 82.24 66.32 82.2"/><polygon class="cls-153" points="66.32 82.15 84.27 81.75 84.27 81.79 66.32 82.2 66.32 82.15"/><polygon class="cls-154" points="66.32 82.11 84.27 81.7 84.27 81.75 66.32 82.15 66.32 82.11"/><polygon class="cls-155" points="66.32 82.06 84.27 81.66 84.27 81.7 66.32 82.11 66.32 82.06"/><polygon class="cls-156" points="66.32 82.02 84.27 81.61 84.27 81.66 66.32 82.06 66.32 82.02"/><polygon class="cls-157" points="66.32 81.98 84.27 81.57 84.27 81.61 66.32 82.02 66.32 81.98"/><polygon class="cls-158" points="66.32 81.93 84.27 81.52 84.27 81.57 66.32 81.98 66.32 81.93"/><polygon class="cls-159" points="66.32 81.89 84.27 81.48 84.27 81.52 66.32 81.93 66.32 81.89"/><polygon class="cls-160" points="66.32 81.84 84.27 81.43 84.27 81.48 66.32 81.89 66.32 81.84"/><polygon class="cls-161" points="66.32 81.8 84.27 81.39 84.27 81.43 66.32 81.84 66.32 81.8"/><polygon class="cls-162" points="66.32 81.75 84.27 81.34 84.27 81.39 66.32 81.8 66.32 81.75"/><polygon class="cls-163" points="66.32 81.71 84.27 81.3 84.27 81.34 66.32 81.75 66.32 81.71"/><polygon class="cls-164" points="66.32 81.66 84.27 81.25 84.27 81.3 66.32 81.71 66.32 81.66"/><polygon class="cls-165" points="66.32 81.62 84.27 81.21 84.27 81.25 66.32 81.66 66.32 81.62"/><polygon class="cls-166" points="66.32 81.57 84.27 81.17 84.27 81.21 66.32 81.62 66.32 81.57"/><polygon class="cls-167" points="66.32 81.53 84.27 81.12 84.27 81.17 66.32 81.57 66.32 81.53"/><polygon class="cls-168" points="66.32 81.48 84.27 81.08 84.27 81.12 66.32 81.53 66.32 81.48"/><polygon class="cls-169" points="66.32 81.44 84.27 81.03 84.27 81.08 66.32 81.48 66.32 81.44"/><polygon class="cls-170" points="66.32 81.39 84.27 80.99 84.27 81.03 66.32 81.44 66.32 81.39"/><polygon class="cls-171" points="66.32 81.35 84.27 80.94 84.27 80.99 66.32 81.39 66.32 81.35"/><polygon class="cls-172" points="66.32 81.31 84.27 80.9 84.27 80.94 66.32 81.35 66.32 81.31"/><polygon class="cls-173" points="66.32 81.26 84.27 80.85 84.27 80.9 66.32 81.31 66.32 81.26"/><polygon class="cls-174" points="66.32 81.22 84.27 80.81 84.27 80.85 66.32 81.26 66.32 81.22"/><polygon class="cls-175" points="66.32 81.17 84.27 80.76 84.27 80.81 66.32 81.22 66.32 81.17"/><polygon class="cls-176" points="66.32 81.13 84.27 80.72 84.27 80.76 66.32 81.17 66.32 81.13"/><polygon class="cls-177" points="66.32 81.08 84.27 80.67 84.27 80.72 66.32 81.13 66.32 81.08"/><polygon class="cls-178" points="66.32 81.04 84.27 80.63 84.27 80.67 66.32 81.08 66.32 81.04"/><polygon class="cls-179" points="66.32 80.99 84.27 80.58 84.27 80.63 66.32 81.04 66.32 80.99"/><polygon class="cls-180" points="66.32 80.95 84.27 80.54 84.27 80.58 66.32 80.99 66.32 80.95"/><polygon class="cls-181" points="66.32 80.9 84.27 80.5 84.27 80.54 66.32 80.95 66.32 80.9"/><polygon class="cls-182" points="66.32 80.86 84.27 80.45 84.27 80.5 66.32 80.9 66.32 80.86"/><polygon class="cls-183" points="66.32 80.81 84.27 80.41 84.27 80.45 66.32 80.86 66.32 80.81"/><polygon class="cls-184" points="66.32 80.77 84.27 80.36 84.27 80.41 66.32 80.81 66.32 80.77"/><polygon class="cls-185" points="66.32 80.72 84.27 80.32 84.27 80.36 66.32 80.77 66.32 80.72"/><polygon class="cls-186" points="66.32 80.68 84.27 80.27 84.27 80.32 66.32 80.72 66.32 80.68"/><polygon class="cls-187" points="66.32 80.64 84.27 80.23 84.27 80.27 66.32 80.68 66.32 80.64"/><polygon class="cls-188" points="66.32 80.59 84.27 80.18 84.27 80.23 66.32 80.64 66.32 80.59"/><polygon class="cls-189" points="66.32 80.55 84.27 80.14 84.27 80.18 66.32 80.59 66.32 80.55"/><polygon class="cls-190" points="66.32 80.5 84.27 80.09 84.27 80.14 66.32 80.55 66.32 80.5"/><polygon class="cls-191" points="66.32 80.46 84.27 80.05 84.27 80.09 66.32 80.5 66.32 80.46"/><polygon class="cls-192" points="66.32 80.41 84.27 80 84.27 80.05 66.32 80.46 66.32 80.41"/><polygon class="cls-193" points="66.32 80.37 84.27 79.96 84.27 80 66.32 80.41 66.32 80.37"/><polygon class="cls-194" points="66.32 80.32 84.27 79.92 84.27 79.96 66.32 80.37 66.32 80.32"/><polygon class="cls-195" points="66.32 80.28 84.27 79.87 84.27 79.92 66.32 80.32 66.32 80.28"/><polygon class="cls-196" points="66.32 80.23 84.27 79.83 84.27 79.87 66.32 80.28 66.32 80.23"/><polygon class="cls-197" points="66.32 80.19 84.27 79.78 84.27 79.83 66.32 80.23 66.32 80.19"/><polygon class="cls-198" points="66.32 80.14 84.27 79.74 84.27 79.78 66.32 80.19 66.32 80.14"/><polygon class="cls-199" points="66.32 80.1 84.27 79.69 84.27 79.74 66.32 80.14 66.32 80.1"/><polygon class="cls-200" points="66.32 80.05 84.27 79.65 84.27 79.69 66.32 80.1 66.32 80.05"/><polygon class="cls-201" points="66.32 80.01 84.27 79.6 84.27 79.65 66.32 80.05 66.32 80.01"/><polygon class="cls-202" points="66.32 79.97 84.27 79.56 84.27 79.6 66.32 80.01 66.32 79.97"/><polygon class="cls-203" points="66.32 79.92 84.27 79.51 84.27 79.56 66.32 79.97 66.32 79.92"/><polygon class="cls-204" points="66.32 79.88 84.27 79.47 84.27 79.51 66.32 79.92 66.32 79.88"/><polygon class="cls-205" points="66.32 79.83 84.27 79.42 84.27 79.47 66.32 79.88 66.32 79.83"/><polygon class="cls-206" points="66.32 79.79 84.27 79.38 84.27 79.42 66.32 79.83 66.32 79.79"/><polygon class="cls-207" points="66.32 79.74 84.27 79.33 84.27 79.38 66.32 79.79 66.32 79.74"/><polygon class="cls-208" points="66.32 79.7 84.27 79.29 84.27 79.33 66.32 79.74 66.32 79.7"/><polygon class="cls-209" points="66.32 79.65 84.27 79.25 84.27 79.29 66.32 79.7 66.32 79.65"/><polygon class="cls-210" points="66.32 79.61 84.27 79.2 84.27 79.25 66.32 79.65 66.32 79.61"/><polygon class="cls-211" points="66.32 79.56 84.27 79.16 84.27 79.2 66.32 79.61 66.32 79.56"/><polygon class="cls-212" points="66.32 79.52 84.27 79.11 84.27 79.16 66.32 79.56 66.32 79.52"/><polygon class="cls-213" points="66.32 79.47 84.27 79.07 84.27 79.11 66.32 79.52 66.32 79.47"/><polygon class="cls-214" points="66.32 79.43 84.27 79.02 84.27 79.07 66.32 79.47 66.32 79.43"/><polygon class="cls-215" points="66.32 79.38 84.27 78.98 84.27 79.02 66.32 79.43 66.32 79.38"/><polygon class="cls-216" points="66.32 79.34 84.27 78.93 84.27 78.98 66.32 79.38 66.32 79.34"/><polygon class="cls-217" points="66.32 79.3 84.27 78.89 84.27 78.93 66.32 79.34 66.32 79.3"/><polygon class="cls-218" points="66.32 79.25 84.27 78.84 84.27 78.89 66.32 79.3 66.32 79.25"/><polygon class="cls-219" points="66.32 79.21 84.27 78.8 84.27 78.84 66.32 79.25 66.32 79.21"/><polygon class="cls-220" points="66.32 79.16 84.27 78.75 84.27 78.8 66.32 79.21 66.32 79.16"/><polygon class="cls-221" points="66.32 79.12 84.27 78.71 84.27 78.75 66.32 79.16 66.32 79.12"/><polygon class="cls-222" points="66.32 79.07 84.27 78.66 84.27 78.71 66.32 79.12 66.32 79.07"/><polygon class="cls-223" points="66.32 79.03 84.27 78.62 84.27 78.66 66.32 79.07 66.32 79.03"/><polygon class="cls-224" points="66.32 78.98 84.27 78.58 84.27 78.62 66.32 79.03 66.32 78.98"/><polygon class="cls-225" points="66.32 78.94 84.27 78.53 84.27 78.58 66.32 78.98 66.32 78.94"/><polygon class="cls-226" points="66.32 78.89 84.27 78.49 84.27 78.53 66.32 78.94 66.32 78.89"/><polygon class="cls-227" points="66.32 78.85 84.27 78.44 84.27 78.49 66.32 78.89 66.32 78.85"/><polygon class="cls-228" points="66.32 78.8 84.27 78.4 84.27 78.44 66.32 78.85 66.32 78.8"/><polygon class="cls-229" points="66.32 78.76 84.27 78.35 84.27 78.4 66.32 78.8 66.32 78.76"/><polygon class="cls-230" points="66.32 78.71 84.27 78.31 84.27 78.35 66.32 78.76 66.32 78.71"/><polygon class="cls-231" points="66.32 78.67 84.27 78.26 84.27 78.31 66.32 78.71 66.32 78.67"/><polygon class="cls-232" points="66.32 78.63 84.27 78.22 84.27 78.26 66.32 78.67 66.32 78.63"/><polygon class="cls-233" points="66.32 78.58 84.27 78.17 84.27 78.22 66.32 78.63 66.32 78.58"/><polygon class="cls-234" points="66.32 78.53 84.27 78.13 84.27 78.17 66.32 78.58 66.32 78.53"/><polygon class="cls-235" points="66.32 78.49 84.27 78.08 84.27 78.13 66.32 78.53 66.32 78.49"/><polygon class="cls-236" points="66.32 78.45 84.27 78.04 84.27 78.08 66.32 78.49 66.32 78.45"/><polygon class="cls-237" points="66.32 78.4 84.27 77.99 84.27 78.04 66.32 78.45 66.32 78.4"/><polygon class="cls-238" points="66.32 78.36 84.27 77.95 84.27 77.99 66.32 78.4 66.32 78.36"/><polygon class="cls-239" points="66.32 78.31 84.27 77.91 84.27 77.95 66.32 78.36 66.32 78.31"/><polygon class="cls-240" points="66.32 78.27 84.27 77.86 84.27 77.91 66.32 78.31 66.32 78.27"/><polygon class="cls-241" points="66.32 78.22 84.27 77.81 84.27 77.86 66.32 78.27 66.32 78.22"/><polygon class="cls-242" points="66.32 78.18 84.27 77.77 84.27 77.81 66.32 78.22 66.32 78.18"/><polygon class="cls-243" points="66.32 78.13 84.27 77.73 84.27 77.77 66.32 78.18 66.32 78.13"/><polygon class="cls-244" points="66.32 78.09 84.27 77.68 84.27 77.73 66.32 78.13 66.32 78.09"/><polygon class="cls-245" points="66.32 78.04 84.27 77.64 84.27 77.68 66.32 78.09 66.32 78.04"/><polygon class="cls-246" points="66.32 78 84.27 77.59 84.27 77.64 66.32 78.04 66.32 78"/><polygon class="cls-247" points="66.32 77.95 84.27 77.55 84.27 77.59 66.32 78 66.32 77.95"/><polygon class="cls-248" points="66.32 77.91 84.27 77.5 84.27 77.55 66.32 77.95 66.32 77.91"/><polygon class="cls-249" points="66.32 77.86 84.27 77.46 84.27 77.5 66.32 77.91 66.32 77.86"/><polygon class="cls-250" points="66.32 77.82 84.27 77.41 84.27 77.46 66.32 77.86 66.32 77.82"/><polygon class="cls-251" points="66.32 77.78 84.27 77.37 84.27 77.41 66.32 77.82 66.32 77.78"/><polygon class="cls-252" points="66.32 77.73 84.27 77.32 84.27 77.37 66.32 77.78 66.32 77.73"/><polygon class="cls-253" points="66.32 77.69 84.27 77.28 84.27 77.32 66.32 77.73 66.32 77.69"/><polygon class="cls-254" points="66.32 77.64 84.27 77.23 84.27 77.28 66.32 77.69 66.32 77.64"/><polygon class="cls-255" points="66.32 77.6 84.27 77.19 84.27 77.23 66.32 77.64 66.32 77.6"/><polygon class="cls-256" points="66.32 77.55 84.27 77.14 84.27 77.19 66.32 77.6 66.32 77.55"/><polygon class="cls-257" points="66.32 77.51 84.27 77.1 84.27 77.14 66.32 77.55 66.32 77.51"/><polygon class="cls-258" points="66.32 77.46 84.27 77.06 84.27 77.1 66.32 77.51 66.32 77.46"/><polygon class="cls-259" points="66.32 77.42 84.27 77.01 84.27 77.06 66.32 77.46 66.32 77.42"/><polygon class="cls-260" points="66.32 77.37 84.27 76.97 84.27 77.01 66.32 77.42 66.32 77.37"/><polygon class="cls-260" points="84.27 76.97 66.32 77.37 66.32 72.51 84.27 72.51 84.27 76.97"/></g><path d="M74.53,90a9.22,9.22,0,0,1-4.87-1.69l-.06,0,0,0c-.65-.82-1.23-1.23-1.65-1.14s-.83.72-1,1-.2.35-.41.4l-.18,0-.16-.1c-.35-.23-.27-.43.22-1.57.16-.38.35-.83.52-1.26a20.1,20.1,0,0,0,.76-2.39A14.45,14.45,0,0,0,68,80.84a8.92,8.92,0,0,0,0-1.79,9,9,0,0,0-.62-2.33c0-.12-.07-.17-.11-.25l-.28-.6c-.89-2-1-2.28-.62-2.54l.15-.1.19,0c.21,0,.31.19.51.48a5.85,5.85,0,0,0,.74.93,3.85,3.85,0,0,0,2.69,1,27.16,27.16,0,0,0,10.62-.83A3.94,3.94,0,0,0,82.57,74a5.12,5.12,0,0,0,.87-1.43c.08-.2.14-.34.33-.41l.18-.07.17.09c.32.16.5.25-.58,2.71a1.92,1.92,0,0,1-.14.31,1,1,0,0,1-.06.14,10.22,10.22,0,0,0-.8,4.25,12.09,12.09,0,0,0,.38,2.36,16.28,16.28,0,0,0,.76,2.53c.22.55.45,1,.62,1.41.33.71.47,1,.14,1.25s-.5.11-.76-.24a1.44,1.44,0,0,0-.64-.55c-.44-.11-1,.4-1.2.59h0l0,0A14.71,14.71,0,0,1,76,89.77,5.47,5.47,0,0,1,74.53,90Zm-4.34-2.38c2.1,1.33,4,1.78,5.57,1.35a14.13,14.13,0,0,0,5.46-2.64h0l.29.32-.26-.34a2.44,2.44,0,0,1,1.91-.82l-.29-.69a18.43,18.43,0,0,1-.8-2.65,13.8,13.8,0,0,1-.4-2.52,11,11,0,0,1,.77-4.38,5.27,5.27,0,0,1-.81.45h-.06a27.85,27.85,0,0,1-6.06,1,28.41,28.41,0,0,1-4.88-.15,4.88,4.88,0,0,1-2.71-.83c.09.2.14.29.17.37s.07.15.13.3A9.41,9.41,0,0,1,68.9,79a9.6,9.6,0,0,1,0,1.93,15.12,15.12,0,0,1-.41,2.54,22,22,0,0,1-.79,2.5c0,.1-.09.21-.13.32l.16,0C68.51,86,69.31,86.5,70.19,87.59Z"/><ellipse class="cls-261" cx="62.08" cy="35.74" rx="26.91" ry="6.18"/><path d="M62.07,42.35c-13.25,0-27.34-2.32-27.34-6.61s14.09-6.62,27.34-6.62,27.35,2.32,27.35,6.62S75.33,42.35,62.07,42.35Zm0-12.36c-15.6,0-26.47,3-26.47,5.75s10.87,5.74,26.47,5.74,26.48-3,26.48-5.74S77.68,30,62.07,30Z"/><path class="cls-6" d="M71.85,41.69l-14.55.15a14.43,14.43,0,0,1-1.43-3.46,47.66,47.66,0,0,1-.52-4.81,6.18,6.18,0,0,1,.13-3,4,4,0,0,1,1-1.51,10.47,10.47,0,0,1,11.95.46c1,2.31,1.66,4,2.08,5A13.81,13.81,0,0,1,72,39.14,10.48,10.48,0,0,1,71.85,41.69Z"/><path class="cls-262" d="M44.12,36.81l-5.32.58V35.66l5.32.43Z"/><path class="cls-262" d="M49.63,37.82l-4.52,1.31-.23-1.71,4.66-.31Z"/><path class="cls-262" d="M49.9,35.59l-4.54-.29-.13-.86,4.41.43Z"/><path class="cls-262" d="M55.74,39.92l-3.3-.78-.11-.75,2.85.28Z"/><path class="cls-262" d="M54.58,36.31l-2.86,1.15-.13-.72,3-1.15Z"/><path class="cls-262" d="M51.09,39.92,49.73,40l0-.4,1.43-.05Z"/><path class="cls-262" d="M54,35.11l-2.11.06-.09-.69H54Z"/><path class="cls-262" d="M42.3,32.66l-3.22,1.25L39,33.32l3-1.18Z"/><path class="cls-262" d="M38,33.85l.2,2.14-.27,0-.19-2Z"/><path class="cls-262" d="M54.91,33.88l-3.74-2,.37-.6L55,33.09Z"/><path class="cls-262" d="M50.5,32l-4.18,0,.09-.73,3.86-.06Z"/><path class="cls-262" d="M44.12,34.8H42l0-.42H44Z"/><path class="cls-262" d="M44.87,32.9l-.68,0v-.72l.58,0Z"/><path class="cls-262" d="M44,38.55l-.68,0v-.72l.58,0Z"/><path class="cls-262" d="M49.77,33.72l-4.11-.32.09-.83,4.19.4Z"/><path class="cls-263" d="M80.94,40.05l-3.51.57q-2.84.48-5.58,1a24.51,24.51,0,0,0-.65-5.46,23.42,23.42,0,0,0-2.6-6.47l13.25,1.87c1.4.38,7.18,2,7.14,4.17,0,1-1.35,1.81-2.6,2.58A11.71,11.71,0,0,1,80.94,40.05Z"/><path class="cls-264" d="M69.13,33.35a43.25,43.25,0,0,0-6.64-.87,42.28,42.28,0,0,0-6.28.15,2.27,2.27,0,0,1-.12-.73,2.35,2.35,0,0,1,.12-.72,22.63,22.63,0,0,1,7-.44,22.86,22.86,0,0,1,5.31,1.16Z"/><path class="cls-265" d="M70.69,38.2a58.27,58.27,0,0,0-7.07-.74,57.59,57.59,0,0,0-6.81.13c0-.2-.09-.42-.13-.66a6.3,6.3,0,0,1-.07-.71,31.42,31.42,0,0,1,7.79-.34A30.68,30.68,0,0,1,70.57,37Z"/></svg>
