<svg id="Layer_1" data-name="Layer 1" xmlns="http://www.w3.org/2000/svg" width="120" height="180" viewBox="0 0 120 180"><defs><style>.cls-1{opacity:0.45;}.cls-2{fill:#ed1c24;}.cls-3{fill:#fff;}.cls-4{fill:#ff7bac;}.cls-5{fill:#ffe3af;}</style></defs><title>Ond_kylling</title><g class="cls-1"><path d="M91.75,118.17q-7.38,2.67-14.9,5.53c-3.53,1.34-6.47,2.48-8.48,3.25-3.18,1.24-6.14,2.41-8.85,3.48a66.43,66.43,0,0,1-3.77-6.05c-3.73-6.78-3.64-9.48-7.16-14.33a27.22,27.22,0,0,0-6.16-6.35c-4.4-3.27-7.17-2.13-12.56-4.58-3.73-1.69-5.74-3.76-9.64-7.74S10.74,81.67,7.09,72.71a44.19,44.19,0,0,1-2.64-27C5.77,39.84,10,26.79,23.29,18.11c3.18-2.09,10.75-7,21-7.21,0,0,11.13-.18,24.77,7.34l.57.32c.65.37,1.15.67,1.47.86A47,47,0,0,1,90.3,41.8c.89,2.11,8.23,20.1,1.59,31.6a48.58,48.58,0,0,0-4.8,10.43,31.16,31.16,0,0,0-1.64,8.66c-.08,3.72.72,6.28,1.84,10C88.32,106,89.85,111.22,91.75,118.17Z"/><ellipse cx="29.58" cy="64.36" rx="6.1" ry="6.35" transform="translate(-37.41 87.36) rotate(-84.27)"/><ellipse cx="66.4" cy="50.68" rx="6.1" ry="6.35" transform="translate(9.35 111.69) rotate(-84.27)"/><ellipse cx="66.4" cy="50.68" rx="3.88" ry="4.21" transform="translate(-16.93 44.9) rotate(-33.38)"/><ellipse cx="29.58" cy="64.36" rx="3.88" ry="4.21" transform="translate(-30.53 26.89) rotate(-33.38)"/><ellipse cx="31.21" cy="77.46" rx="7.95" ry="3.07" transform="translate(-24.66 15.4) rotate(-20.05)"/><ellipse cx="74.23" cy="61.48" rx="7.95" ry="3.07" transform="translate(-16.58 29.17) rotate(-20.05)"/><path d="M111.29,165.16a12.65,12.65,0,0,1-6.89,3.75c-4.72.71-7.72-2.24-10.3-.65C92,169.53,93,172,90.63,174a9,9,0,0,1-6.12,1.68c-1.24,0-8.88-.11-13.64-5.66-.78-.9-4.33-5-3.25-9.53.2-.85,1.62-3,4.45-7.32,2.1-3.18,2.64-3.88,3-5.29a11.56,11.56,0,0,0-.47-6.68,75.67,75.67,0,0,0-6.21-14.39L85,120.67c.88,2.74,1.77,5.12,2.58,7.09.37.92,1.33,3,3.24,7.14,1.65,3.59,1.89,4.06,2.57,4.71,1.9,1.8,4,1.89,6.58,2.62a23.52,23.52,0,0,1,9.75,5.62C114.84,153.1,112.1,162.63,111.29,165.16Z"/><line x1="20.25" y1="55.06" x2="42.77" y2="61.7"/><line x1="66.01" y1="39.56" x2="54.74" y2="58.38"/><path d="M62.45,63.17c2.5.56,4.09,6.15,2,8.18-1.86,1.86-5.13-.87-10,.76s-6,6-8.43,5.51-4.53-5.68-2.79-7.6c1.59-1.76,4.85.81,9.77-.65C58.68,67.68,59.92,62.61,62.45,63.17Z"/></g><path class="cls-2" d="M94.62,115.44q-7.31,2.63-14.76,5.4c-3.49,1.31-6.4,2.42-8.39,3.18-3.15,1.21-6.08,2.35-8.76,3.4a66.35,66.35,0,0,1-3.92-5.91c-3.9-6.62-3.88-9.26-7.52-14a27.91,27.91,0,0,0-6.33-6.2c-4.49-3.19-7.22-2.08-12.67-4.47-3.77-1.65-5.84-3.67-9.84-7.56S12.69,79.82,8.82,71.07A42,42,0,0,1,23.64,17.78c3.13-2,10.57-6.88,20.83-7,0,0,11.13-.18,25,7.17l.58.31c.66.36,1.16.65,1.49.84A47.88,47.88,0,0,1,91.25,40.9C92.19,43,100,60.52,93.64,71.75A44.84,44.84,0,0,0,89.1,81.93a29.67,29.67,0,0,0-1.42,8.45c0,3.63.88,6.13,2.1,9.8C90.89,103.54,92.55,108.66,94.62,115.44Z"/><ellipse cx="31.1" cy="62.92" rx="5.93" ry="6.37" transform="translate(-37.3 78.65) rotate(-76.66)"/><ellipse cx="67.58" cy="49.57" rx="5.93" ry="6.37" transform="translate(3.75 103.88) rotate(-76.66)"/><ellipse class="cls-3" cx="67.58" cy="49.57" rx="3.8" ry="4.2" transform="translate(-15.55 60.2) rotate(-43.55)"/><ellipse class="cls-3" cx="31.39" cy="63.33" rx="3.72" ry="3.7" transform="translate(-35 39.06) rotate(-43.55)"/><ellipse class="cls-4" cx="33.06" cy="75.71" rx="7.86" ry="3.03" transform="translate(-23.29 15.3) rotate(-19.42)"/><ellipse class="cls-4" cx="75.67" cy="60.11" rx="7.86" ry="3.03" transform="translate(-15.68 28.58) rotate(-19.42)"/><path class="cls-5" d="M115.35,161.31a12.22,12.22,0,0,1-6.79,3.66c-4.7.7-7.78-2.18-10.31-.63-2,1.24-1,3.65-3.33,5.62-1.8,1.51-4.32,1.7-6.07,1.64-1.25,0-8.9-.1-13.8-5.53-.79-.88-4.45-4.93-3.49-9.29.19-.83,1.55-2.95,4.27-7.15,2-3.11,2.54-3.79,2.89-5.16a11.12,11.12,0,0,0-.64-6.53,74.85,74.85,0,0,0-6.57-14l16.43-6c1,2.67,1.9,5,2.75,6.92.4.89,1.41,2.92,3.43,7,1.75,3.5,2,4,2.69,4.59,1.94,1.76,4,1.85,6.65,2.57a24.25,24.25,0,0,1,9.89,5.48C118.6,149.54,116.1,158.84,115.35,161.31Z"/><polygon points="42.01 61.36 20.29 54.01 21.07 52.63 42.78 59.98 42.01 61.36"/><rect x="53.12" y="45.49" width="18.1" height="1.53" transform="translate(122.11 -2.86) rotate(104.02)"/><path d="M63.43,59.4c2.86.87,5.19,7.92,3.11,10.3-1.91,2.17-5.85-1.45-11.21.22s-6.09,7-8.92,6.25-5.64-7.38-3.88-9.64c1.62-2.07,5.53,1.35,10.91-.11C59.64,64.73,60.54,58.52,63.43,59.4Z"/></svg>
