<svg id="Layer_1" data-name="Layer 1" xmlns="http://www.w3.org/2000/svg" width="292.31" height="92.94" viewBox="0 0 292.31 92.94"><defs><style>.cls-1{fill:#f58add;stroke:#fff;stroke-miterlimit:10;stroke-width:3px;}</style></defs><title>Point</title><path class="cls-1" d="M71.57,20.25Q88.66,34,88.66,49.89v2.83q0,21.82-33.6,32.47-10.68,2.3-16,2.3-28.81,0-37-26.76L1.5,55q0-25.11,23.68-38.09A43.23,43.23,0,0,1,46,11.22Q58.93,11.22,71.57,20.25ZM12.34,50.47v1.71h1.12q6.84-8.49,6.84-9.71l-1.12-.54Q12.34,47.11,12.34,50.47Zm6.84,13.68v.53q3,5.08,3.95,5.13h1.71q0-3.42-4.54-6.84C19.55,63.1,19.18,63.5,19.18,64.15Zm8.54-34.77v1.71q8.55-2.3,8.55-4.54a1,1,0,0,0-1.18-1.17Q27.73,28.26,27.72,29.38ZM29.43,55.6q0,3.42,9.67,4,13.23,0,21.63-8V50.47q0-6.24-15.92-13.67Q29.44,47.21,29.43,55.6ZM40.22,72.69c.78.1,1.17.47,1.17,1.12a30.4,30.4,0,0,1,8-1.7V71c0-.78-.37-1.17-1.12-1.17Q40.22,70.2,40.22,72.69ZM50.47,22.54c0,.53,2.51,1.67,7.43,3.42a.52.52,0,0,0,.58.59h2.25V25.38a11,11,0,0,0-8.55-4h-.53C50.87,21.52,50.47,21.89,50.47,22.54ZM64.73,65.86c.75.09,1.13.47,1.13,1.12l8-5.13V59.56H72.15Q64.83,64.35,64.73,65.86Zm4-30.77-.59,1.13q0,2.43,4.54,8.54H74.4v-.58Q71,35.09,68.74,35.09Z"/><path class="cls-1" d="M140.66,1.5Q153.22,4.14,153.21,14v3.42q0,4.83-17.09,38.18-13.38,22.12-22.8,33-5.17,2.83-9.09,2.83Q91.11,88.8,91.1,78.94V76.65q0-5.18,11.43-19.34a279.23,279.23,0,0,0,25-48.44Q131.88,1.51,140.66,1.5Zm-37,75.15v1.71q3.27,0,7.37-6.25V71l-.54-1.17Q109.22,69.81,103.65,76.65ZM115,59v.54c.13.78.5,1.17,1.12,1.17q1.95-1,5.13-6.3a4.17,4.17,0,0,1-.54-1.71h-1.17C119.18,52.75,117.66,54.85,115,59Zm12-18.26v.58c.13.75.5,1.13,1.12,1.13q2.4,0,5.71-9.67l-1.12-.59h-.58Zm9.13-18.22v1.13h1.12Q141.79,19,141.78,14l-1.12-.59Q139.3,13.41,136.12,22.54Z"/><path class="cls-1" d="M187,4.92q12.21,0,14.21,14.79-4,36.82-4,41A80,80,0,0,1,197.79,71v2.83q0,11.39-14.21,13.09-12.21,0-13.67-17.63V65.86q0-5.67.58-23.39a.48.48,0,0,0,.54-.54q-1-1-6.83-1.71-8.55-4.68-8.55-13.13,0-11,16.55-14.8Q181.19,4.93,187,4.92ZM169.32,27.09v2.29h.59q5.07,0,9.08-4.54V23.67h-.54Zm14.8,25.63,1.71,1.17q1.17,0,1.71-10.25l-1.13-.59C185.14,43.05,184.38,46.28,184.12,52.72Zm1.17,10.84-1.17,1.71v4.54l.58,2.88h1.13A1,1,0,0,0,187,71.52V65.27Q187,64.44,185.29,63.56ZM187,24.84V30.5c.1.79.47,1.18,1.12,1.18h1.12l.59-4V24.84c0-.78-.37-1.17-1.12-1.17h-.59C187.37,23.8,187,24.19,187,24.84Z"/><path class="cls-1" d="M273.72,20.25Q290.81,34,290.81,49.89v2.83q0,21.82-33.6,32.47-10.69,2.3-16,2.3-28.81,0-37-26.76L203.65,55q0-25.11,23.68-38.09a43.23,43.23,0,0,1,20.8-5.71Q261.08,11.22,273.72,20.25ZM214.49,50.47v1.71h1.12q6.84-8.49,6.84-9.71l-1.13-.54Q214.5,47.11,214.49,50.47Zm6.83,13.68v.53q3,5.08,4,5.13H227c0-2.28-1.52-4.56-4.54-6.84C221.7,63.1,221.32,63.5,221.32,64.15Zm8.55-34.77v1.71q8.55-2.3,8.54-4.54a1,1,0,0,0-1.17-1.17Q229.88,28.26,229.87,29.38Zm1.71,26.22q0,3.42,9.67,4,13.23,0,21.63-8V50.47q0-6.24-15.92-13.67Q231.59,47.21,231.58,55.6Zm10.79,17.09c.78.1,1.17.47,1.17,1.12a30.32,30.32,0,0,1,8-1.7V71c0-.78-.37-1.17-1.12-1.17Q242.37,70.2,242.37,72.69Zm10.25-50.15q.06.8,7.42,3.42a.52.52,0,0,0,.59.59h2.25V25.38a11,11,0,0,0-8.55-4h-.54C253,21.52,252.62,21.89,252.62,22.54Zm14.26,43.32c.75.09,1.12.47,1.12,1.12l8-5.13V59.56H274.3Q267,64.35,266.88,65.86Zm4-30.77-.58,1.13q0,2.43,4.54,8.54h1.71v-.58Q273.13,35.09,270.88,35.09Z"/></svg>
