<svg id="Layer_1" data-name="Layer 1" xmlns="http://www.w3.org/2000/svg" xmlns:xlink="http://www.w3.org/1999/xlink" width="1380" height="830" viewBox="0 0 1380 830"><defs><style>.cls-1{opacity:0.4;}.cls-2{fill:#3fa9f5;opacity:0.95;}.cls-3{opacity:0.45;}.cls-4,.cls-7{fill:#fff;}.cls-10,.cls-11,.cls-12,.cls-4,.cls-5,.cls-8,.cls-9{stroke:#000;}.cls-10,.cls-11,.cls-12,.cls-4,.cls-5,.cls-6,.cls-8,.cls-9{stroke-miterlimit:10;}.cls-4,.cls-5{stroke-width:5px;}.cls-5{fill:#333;}.cls-6{stroke:#fff;}.cls-11,.cls-6{stroke-width:0.5px;}.cls-15,.cls-8{fill:#f58add;}.cls-10,.cls-12,.cls-8,.cls-9{stroke-width:2px;}.cls-9{fill:url(#linear-gradient);}.cls-10{fill:#006837;}.cls-11{fill:#7ac943;}.cls-12{fill:#a6cf52;}.cls-13{fill:url(#linear-gradient-2);}.cls-14{fill:url(#linear-gradient-3);}</style><linearGradient id="linear-gradient" x1="709.89" y1="728.59" x2="708.66" y2="674.26" gradientUnits="userSpaceOnUse"><stop offset="0" stop-color="#fff"/><stop offset="0.58" stop-color="#ff0601"/></linearGradient><linearGradient id="linear-gradient-2" x1="676.17" y1="581.38" x2="671.37" y2="545.03" gradientUnits="userSpaceOnUse"><stop offset="0" stop-color="#fff"/><stop offset="0.49" stop-color="#fff"/><stop offset="1" stop-color="#ff94d3"/></linearGradient><linearGradient id="linear-gradient-3" x1="679.16" y1="594.84" x2="674.49" y2="559.46" xlink:href="#linear-gradient-2"/></defs><title>slutskaerm_vundet</title><path class="cls-1" d="M1261.33,819.72H118.8C57.42,819.72,7.44,769.24,7.16,707L4.56,116.44C4.29,54.16,53.82,3.68,115.2,3.68H1257.73c61.38,0,111.36,50.48,111.63,112.76L1372,707C1372.24,769.24,1322.71,819.72,1261.33,819.72Z"/><rect class="cls-2" x="2.68" y="6.45" width="1364.8" height="807.37" rx="120.76"/><g class="cls-3"><ellipse cx="672.86" cy="586.63" rx="38.9" ry="131.49" transform="translate(84.52 1258) rotate(-89.85)"/><path d="M788.57,736.19a348.66,348.66,0,0,1-105.29,17.47A359.41,359.41,0,0,1,557.71,732a15.83,15.83,0,0,1-10.17-5.82A20,20,0,0,1,544.2,720s-1.62-8-1.63-8.32l-2.33-88.2c-.11-4.16,0-8.32,0-12.48,0-14.34,0-24,1.12-24.13.71-.07.84,4,3.4,8.32a20.48,20.48,0,0,0,9.52,8.32,232.43,232.43,0,0,0,48.22,15.81s28.91,6.06,80.54,6.24c.05,0,51.76,1.49,94.42-15a90.15,90.15,0,0,0,12.19-5.83c2.77-1.65,2.57-1.79,5.89-3.74,4.13-2.43,5.42-2.7,6.58-4.58,2-3.18,1.82-7.09,1.93-7.07s.56,21.24.62,23.71c0,0,0,.48.21,7.91q1.36,44.71,2.72,89.44a27.18,27.18,0,0,1-1.15,9.57C802.48,732.57,790.1,735.82,788.57,736.19Z"/><ellipse cx="640.4" cy="671.92" rx="19.72" ry="23.33" transform="translate(-59.67 62.42) rotate(-5.33)"/><ellipse cx="771.32" cy="664.01" rx="19.72" ry="23.33" transform="translate(-58.37 74.56) rotate(-5.33)"/><ellipse cx="770.95" cy="656.73" rx="8.8" ry="10.41" transform="translate(-57.7 74.49) rotate(-5.33)"/><ellipse cx="639.26" cy="662.35" rx="8.1" ry="9.79" transform="translate(-53.45 56.12) rotate(-4.83)"/><ellipse cx="642.67" cy="711.02" rx="11.65" ry="25.21" transform="translate(-72.96 1348.56) rotate(-89.59)"/><ellipse cx="777.6" cy="703.54" rx="24.97" ry="10.61" transform="translate(-110.3 145.63) rotate(-9.99)"/><path d="M728.68,731.61s-4.81,4.87-15.11,7.91c-3.39,1-8.63,1-16.32-4.16-1.64-2.13-3.74-4.17-5.74-3.75-2.4.52-3.57,4.3-3.77,4.16s1.23-3.52,2.29-6.65a63.05,63.05,0,0,0,1.93-7.07,43.32,43.32,0,0,0,.87-7.08,28.48,28.48,0,0,0-.14-5.4,29.68,29.68,0,0,0-2-7.08c-.33-.8-.27-.55-1.13-2.49-1.22-2.78-2.5-5.66-2.27-5.83s1.24,2,2.92,3.75a11.76,11.76,0,0,0,8.2,3.33,70.34,70.34,0,0,0,29.19-2.5,10.78,10.78,0,0,0,3.8-2.91,19.6,19.6,0,0,0,2.69-5,33.71,33.71,0,0,1-1.95,6.25c-.26.67-.42,1-.51,1.3a31.82,31.82,0,0,0-1.94,12.84A39.37,39.37,0,0,0,731,718.3a53.24,53.24,0,0,0,2.31,7.49c1.38,3.48,2.87,6.05,2.63,6.24s-1.16-2-2.88-2.5C731.14,729,729.33,731,728.68,731.61Z"/><ellipse cx="672.01" cy="584.35" rx="17.89" ry="73.06" transform="translate(86.53 1255.37) rotate(-89.9)"/><path d="M699,601.59l-39.47.44a43.93,43.93,0,0,1-4.14-10c-.34-1.22-.27-1.18-1.78-13.94-.47-4-.74-6.15.12-8.71a11.11,11.11,0,0,1,2.71-4.35,27.06,27.06,0,0,1,15.73-4.79,29,29,0,0,1,16.73,6.1c2.77,6.69,4.82,11.54,6,14.37,2.42,5.7,3.79,8.83,4.24,13.5A31.53,31.53,0,0,1,699,601.59Z"/><path d="M623.36,587.47,609,589.13l-.13-5,14.48,1.25Z"/><path d="M638.39,590.37l-12.18,3.8-.74-4.93,12.61-.92Z"/><path d="M639,583.93l-12.36-.83-.42-2.5,12,1.25Z"/><path d="M655.14,596.41l-10.42-2.59-.42-2.5,9,.93C653.9,593.64,654.52,595,655.14,596.41Z"/><path d="M651.7,586,644,589.34c-.14-.69-.27-1.39-.41-2.08l8-3.33Z"/><path d="M640.56,596.43l-4.28.25-.11-1.33,4.47-.17Z"/><path d="M649.89,582.54l-5.72.18c-.09-.67-.19-1.33-.29-2l6-.05Z"/><path d="M618.1,575.45l-8.66,3.6-.33-1.7,8-3.4Z"/><path d="M606.4,578.88l.71,6.21-.72-.08-.69-5.73Z"/><path d="M652.43,579l-10.33-5.91,1-1.76,9.58,5.38Z"/><path d="M640.3,573.47l-11.33.09.18-2.1,10.47-.19Z"/><path d="M623.2,581.64l-5.69,0,.07-1.2h5.27Z"/><path d="M625.09,576.15l-1.86-.12-.05-2.08,1.57-.13C624.86,574.59,625,575.37,625.09,576.15Z"/><path d="M623.05,592.49l-1.85-.13-.06-2.08,1.57-.13C622.83,590.93,622.94,591.71,623.05,592.49Z"/><path d="M638.45,578.52l-11.18-.94c.05-.79.11-1.59.17-2.39l11.43,1.14Z"/><path d="M723.54,596.83q-4.69.79-9.47,1.66-7.67,1.39-15.08,2.91a76.41,76.41,0,0,0-2.18-15.81,72.14,72.14,0,0,0-7.55-18.72l36.1,5.41c3.84,1.12,19.66,6,19.71,12.07,0,2.9-3.52,5.26-6.86,7.48A29.9,29.9,0,0,1,723.54,596.83Z"/></g><ellipse class="cls-4" cx="674.66" cy="585.39" rx="131.48" ry="37.02"/><path class="cls-5" d="M786.4,727.72a367.68,367.68,0,0,1-230.75-4,15.5,15.5,0,0,1-10-5.54,17.72,17.72,0,0,1-3.17-5.94s-1.41-7.58-1.41-7.92V620.43c0-4,.26-7.92.35-11.88.34-13.65.67-22.86,1.77-23,.71-.06.73,3.78,3.17,7.92a19.52,19.52,0,0,0,9.3,7.92,235.08,235.08,0,0,0,47.8,15.05s28.75,5.76,80.38,5.94c0,0,51.72,1.41,94.82-14.26A94.32,94.32,0,0,0,791,602.61c2.82-1.57,2.61-1.7,6-3.56,4.19-2.32,5.49-2.57,6.7-4.36,2-3,2-6.75,2.11-6.73.26,0,0,20.22,0,22.57,0,0,0,.45,0,7.52q.18,42.57.35,85.12a24.76,24.76,0,0,1-1.41,9.11C800.41,724.28,787.94,727.37,786.4,727.72Z"/><ellipse class="cls-6" cx="639.94" cy="666.55" rx="19.74" ry="22.17"/><ellipse class="cls-6" cx="771.07" cy="659.03" rx="19.74" ry="22.17"/><ellipse class="cls-7" cx="770.89" cy="652.1" rx="8.81" ry="9.9"/><ellipse class="cls-7" cx="639.06" cy="657.45" rx="8.11" ry="9.3"/><ellipse class="cls-8" cx="641.17" cy="703.77" rx="25.2" ry="11.09"/><ellipse class="cls-8" cx="776.3" cy="696.65" rx="25.05" ry="10.07" transform="translate(-105.12 138.92) rotate(-9.58)"/><path class="cls-9" d="M726.63,723.37s-4.93,4.63-15.31,7.52c-3.42,1-8.66,1-16.21-4-1.58-2-3.64-4-5.64-3.56-2.42.49-3.68,4.09-3.88,4s1.32-3.36,2.47-6.34a58.78,58.78,0,0,0,2.11-6.73,40.38,40.38,0,0,0,1.06-6.73,26,26,0,0,0,0-5.15,26.55,26.55,0,0,0-1.76-6.73c-.31-.76-.25-.52-1.06-2.37-1.16-2.64-2.35-5.38-2.12-5.55s1.18,1.93,2.82,3.57a11.75,11.75,0,0,0,8.11,3.16,73.16,73.16,0,0,0,13,.4,74.76,74.76,0,0,0,16.22-2.77,11.43,11.43,0,0,0,3.88-2.77,19.26,19.26,0,0,0,2.82-4.75,32,32,0,0,1-2.12,5.94c-.27.64-.44,1-.55,1.24A29.46,29.46,0,0,0,728.24,704a35.6,35.6,0,0,0,1.06,6.73,48.32,48.32,0,0,0,2.11,7.12c1.29,3.32,2.71,5.76,2.47,5.94s-1.11-1.94-2.82-2.37C729.16,720.9,727.31,722.74,726.63,723.37Z"/><ellipse class="cls-10" cx="673.87" cy="583.21" rx="73.06" ry="17.02"/><path class="cls-8" d="M700.39,599.62l-39.48.42A40,40,0,0,1,657,590.5c-.3-1.16-.23-1.12-1.41-13.26-.36-3.77-.57-5.86.36-8.29a11,11,0,0,1,2.82-4.15,28.76,28.76,0,0,1,15.86-4.56,29.18,29.18,0,0,1,16.57,5.81c2.59,6.36,4.51,11,5.64,13.68,2.27,5.43,3.55,8.4,3.88,12.84A29.31,29.31,0,0,1,700.39,599.62Z"/><path class="cls-11" d="M625.13,586.18l-14.45,1.58V583l14.45,1.19Z"/><path class="cls-11" d="M640.09,589l-12.28,3.61-.62-4.7,12.65-.87Z"/><path class="cls-11" d="M640.82,582.81,628.48,582c-.12-.79-.23-1.58-.35-2.37l12,1.18Z"/><path class="cls-11" d="M656.68,594.73l-9-2.14c-.1-.69-.2-1.37-.31-2.06l7.75.77C655.66,592.44,656.17,593.58,656.68,594.73Z"/><path class="cls-11" d="M653.51,584.79,645.75,588c-.11-.66-.23-1.32-.35-2l8.11-3.17Z"/><path class="cls-11" d="M644.06,594.74l-3.72.21-.06-1.1,3.88-.14Z"/><path class="cls-11" d="M651.8,581.49l-5.72.17-.24-1.9,6,0Z"/><path class="cls-11" d="M620.2,574.74l-8.76,3.43-.29-1.62,8.08-3.24Z"/><path class="cls-11" d="M608.41,578l.53,5.91-.71-.08c-.18-1.82-.36-3.64-.53-5.46Z"/><path class="cls-11" d="M654.43,578.11l-10.17-5.62,1-1.68,9.44,5.12Z"/><path class="cls-11" d="M642.45,572.86l-11.34.08.24-2,10.48-.17Z"/><path class="cls-11" d="M625.13,580.63l-5.69,0,.1-1.14h5.27Z"/><path class="cls-11" d="M627.16,575.41l-1.85-.12v-2l1.57-.12Z"/><path class="cls-11" d="M624.7,591l-1.86-.12v-2l1.58-.13C624.51,589.47,624.6,590.22,624.7,591Z"/><path class="cls-11" d="M640.47,577.67l-11.17-.9.24-2.27,11.4,1.08Z"/><path class="cls-12" d="M725.07,595.09q-4.73.75-9.52,1.58-7.69,1.33-15.16,2.77a67.32,67.32,0,0,0-1.76-15,64.47,64.47,0,0,0-7-17.82l36,5.15c3.81,1.06,19.5,5.66,19.38,11.48,0,2.76-3.65,5-7,7.13A31.82,31.82,0,0,1,725.07,595.09Z"/><path class="cls-13" d="M693,576.65a113.19,113.19,0,0,0-35.07-2,6.43,6.43,0,0,1-.32-2,6.19,6.19,0,0,1,.32-2,60,60,0,0,1,19-1.2,61.61,61.61,0,0,1,14.42,3.19Z"/><path class="cls-14" d="M697.25,590a148.44,148.44,0,0,0-19.2-2,150.78,150.78,0,0,0-18.46.36,17.77,17.77,0,0,1-.36-1.82c-.1-.7-.16-1.35-.2-2a83,83,0,0,1,37.9,2.18C697,587.83,697.14,588.92,697.25,590Z"/><path d="M376,279.06q-.5-6.4,2.18-22.52,5.34-34.71,21.34-96.5-5.11-.21-9.22-.21-23.12,0-37.51,6.2a39.91,39.91,0,0,0-10.38,6.3,35.71,35.71,0,0,0-6.27,6.41,68.28,68.28,0,0,0-3.64,6.1q-1.49,3.51-7.46,3.51c-4,0-6.11-1.79-6.39-5.37a7.57,7.57,0,0,1,.19-2.69q5.9-22.53,21.66-31.41,7.69-4.33,26.63-7.65a159.57,159.57,0,0,1,17.75-.82q10.58,0,39.23,2.06t46.27,2.07c3.54.14,6.1.83,7.7,2.07s2.5,3.2,2.71,5.89-.23,4.64-1.31,5.88a9.65,9.65,0,0,1-1.45,1.45c-.37.28-1,.72-2,1.34a11.66,11.66,0,0,0-1.57,1.14q-1.49,1.24-17.63,1.24t-42.38-2.27q-12.12,76.46-14.69,114.06-1.08,16.53-11.46,16.54Q377,291.88,376,279.06Z"/><path d="M427.4,249.93a76,76,0,0,1,1.25-19.43A68.88,68.88,0,0,1,434,212.84q3.46-7.14,9.93-7.13a11.33,11.33,0,0,1,6.5,1.75,5.46,5.46,0,0,1,2.75,4,9.63,9.63,0,0,1-.64,4.34q-7.93,19-6.83,33.27.79,10.34,6.86,10.33,7.25,0,17.36-13.63a5,5,0,0,1,4.51-2.49,8.12,8.12,0,0,1,7.79,7.13,9.58,9.58,0,0,1-2.07,6.1,47.39,47.39,0,0,1-14.52,13.64,32.85,32.85,0,0,1-16.77,4.75,18.87,18.87,0,0,1-14.61-6.72Q428.3,261.51,427.4,249.93ZM444,183.59a11.06,11.06,0,0,1,3.2-9.29,12.64,12.64,0,0,1,9.13-3.52q11.94,0,12.87,12,.45,5.79-2.82,9.09a11.75,11.75,0,0,1-8.76,3.31Q444.92,195.17,444,183.59Z"/><path d="M495.92,275.14q-10.56,0-17.55-9.2t-8.1-23.86c-.18-2.35-.26-4.14-.22-5.38a213,213,0,0,1,10.87-62.2q5.06-15.69,13.68-25.72t19.39-10q13.9,0,15.15,16.12t-11.51,42.47q-12.75,26.34-29.42,41.22a30.42,30.42,0,0,0,0,5q1.21,15.71,9.43,15.71,9.21,0,19.51-13.64a5,5,0,0,1,4.15-2.07,7.43,7.43,0,0,1,5,2.17,7.78,7.78,0,0,1,2.66,5.37,8.13,8.13,0,0,1-2.27,6.1Q513.15,275.15,495.92,275.14ZM509.67,158.8q-7.65,0-13.41,20.46a208,208,0,0,0-7.3,41.12q9-12.6,16.5-31t7.05-26.66Q512.21,158.81,509.67,158.8Z"/><path d="M544.29,275.14q-10.57,0-17.55-9.2t-8.11-23.86a53.44,53.44,0,0,1-.21-5.38,213.26,213.26,0,0,1,10.86-62.2q5.06-15.69,13.68-25.72t19.4-10q13.9,0,15.15,16.12T566,197.34q-12.76,26.34-29.43,41.22a32.85,32.85,0,0,0,0,5q1.22,15.71,9.44,15.71,9.21,0,19.51-13.64a5,5,0,0,1,4.15-2.07,7.4,7.4,0,0,1,5,2.17,7.79,7.79,0,0,1,2.67,5.37,8.17,8.17,0,0,1-2.27,6.1Q561.52,275.15,544.29,275.14ZM558,158.8q-7.63,0-13.4,20.46a208,208,0,0,0-7.3,41.12q9-12.6,16.5-31t7-26.66Q560.58,158.81,558,158.8Z"/><path d="M575.45,339q-8.61,0-13.25-3T557,325.87a22.3,22.3,0,0,1,2.19-12.3c1-1.79,1.93-3.27,2.69-4.44s1.91-2.72,3.46-4.65,2.56-3.24,3-3.93q5.88-7.43,19-17.15,6.48-4.75,9.45-7l5-18.19A26.91,26.91,0,0,1,592,270q-6.45,4.14-10.36,4.13a19.46,19.46,0,0,1-13.53-5.37,20.33,20.33,0,0,1-6.57-14.05,77.14,77.14,0,0,1,6-36.58,13.05,13.05,0,0,1,10.41-7.23,8.76,8.76,0,0,1,5.12,1.66,6,6,0,0,1,2.62,4.75c.16,2.06-.61,4.82-2.3,8.26-.67,1.52-1.16,2.69-1.49,3.52q-2.39,14.88-1.77,22.83t7.08,8h1.37q7.89-1.86,11.64-19.22l3.82-19q1.77-9.93,8-9.92a10.73,10.73,0,0,1,5.19,1.34,4.63,4.63,0,0,1,2.65,3.82q.42,5.58-1.49,20.15t-3.09,29.66q27.87-19.43,32.84-23.56a6.92,6.92,0,0,1,4.46-1.86,6.31,6.31,0,0,1,4.37,2.06,9.22,9.22,0,0,1,2.43,6.1q.3,4-4.69,7.75-8.67,7-40.83,26.66-1.77,17.76-6.11,30a46.25,46.25,0,0,1-6.53,13.12,31,31,0,0,1-10.5,8.58A32.38,32.38,0,0,1,575.45,339Zm1.25-14.26q6.66,0,11.84-10.33a61.17,61.17,0,0,0,6.29-21.28q-4.12,2.47-12.53,14.05t-8.09,15.7c.09,1.1.45,1.66,1.11,1.66Z"/><path d="M673.76,257.78a15.32,15.32,0,0,1,2.3-9.51,24.41,24.41,0,0,1,6-6.81q9.66-6.83,10-9.92c.35-.55.26-.83-.26-.83q-10.77,0-20.33,15.7l-8,13.23q-9.18,15.5-20.15,15.5a5.86,5.86,0,0,1-3.73-1.45,10.19,10.19,0,0,1-2.7-3.2,33.79,33.79,0,0,1-1.78-4.13,25,25,0,0,1-1-3.21l-.48-2.37q-.31-1.56-.67-6.1a261.15,261.15,0,0,1,1.76-53.31,187.24,187.24,0,0,1,6.82-31A61.35,61.35,0,0,1,655,146.81q9-9.7,21.38-9.71,7.44,0,11.59,4.24T692.7,153q1.74,22.53-37.64,73.15L651,231.54q-.4,2.47-1,13.63t-.49,12.61a112.64,112.64,0,0,1,21.09-34.92Q683.65,208.4,698,208.39a13.21,13.21,0,0,1,9.47,3.41q3.58,3.4,4.09,9.92a18.85,18.85,0,0,1-2.81,11.78,25.31,25.31,0,0,1-7.7,8.06,50.68,50.68,0,0,0-8.93,7.44q-4.53,4.65-4.12,10c.16,2.07,1.67,3.1,4.55,3.1a27.67,27.67,0,0,0,5.24-.62c0-.28.57-.58,1.79-.93s3.13-1.62,5.77-3.82a39.45,39.45,0,0,0,8-9.92c.75-2.07,2-3.1,3.58-3.1s3.2.93,4.72,2.79a10.55,10.55,0,0,1,2.51,5.89q.47,6-12.45,16.32Q702.37,276,693,276c-3.92,0-8-1.54-12.21-4.65S674.21,263.71,673.76,257.78Zm-1.08-100.22q-7.44,0-13.39,18.08t-6.57,32.75q3.46-5.77,9.19-14t8-12a37.4,37.4,0,0,0,5.36-21.91C675.11,158.52,674.25,157.56,672.68,157.56Z"/><path d="M759.91,257.78a15.33,15.33,0,0,1,2.31-9.51,24.41,24.41,0,0,1,6-6.81q9.66-6.83,10-9.92c.34-.55.26-.83-.26-.83q-10.79,0-20.33,15.7l-8,13.23q-9.18,15.5-20.15,15.5a5.83,5.83,0,0,1-3.73-1.45,10.19,10.19,0,0,1-2.7-3.2,35.34,35.34,0,0,1-1.79-4.13,26.76,26.76,0,0,1-1-3.21c-.11-.55-.26-1.34-.47-2.37a59.91,59.91,0,0,1-.67-6.1,261.15,261.15,0,0,1,1.76-53.31,187.24,187.24,0,0,1,6.82-31,61.35,61.35,0,0,1,13.45-23.56q9-9.7,21.38-9.71,7.44,0,11.59,4.24T778.86,153q1.73,22.53-37.64,73.15l-4.09,5.38q-.39,2.47-1,13.63t-.5,12.61a112.85,112.85,0,0,1,21.1-34.92q13.08-14.46,27.38-14.47a13.18,13.18,0,0,1,9.46,3.41q3.6,3.4,4.1,9.92a18.92,18.92,0,0,1-2.81,11.78,25.31,25.31,0,0,1-7.7,8.06,50.32,50.32,0,0,0-8.93,7.44q-4.53,4.65-4.12,10c.16,2.07,1.67,3.1,4.55,3.1a27.67,27.67,0,0,0,5.24-.62c0-.28.57-.58,1.78-.93s3.14-1.62,5.78-3.82a39.67,39.67,0,0,0,7.95-9.92q1.13-3.11,3.58-3.1t4.72,2.79a10.55,10.55,0,0,1,2.51,5.89q.46,6-12.45,16.32Q788.53,276,779.14,276c-3.92,0-8-1.54-12.21-4.65S760.37,263.71,759.91,257.78Zm-1.07-100.22q-7.44,0-13.39,18.08t-6.58,32.75q3.48-5.77,9.2-14t8-12a37.31,37.31,0,0,0,5.35-21.91C761.27,158.52,760.41,157.56,758.84,157.56Z"/><path d="M800.46,247.86q-1.11-14.46,8.41-28.1t24-13.64q8.43,0,13.72,5.17t6,14.87q.75,9.72-7.49,17.05t-25.44,10.44Q822.86,259,830.6,259a37.24,37.24,0,0,0,15.22-3.31,38.7,38.7,0,0,0,12.72-8.88,4.09,4.09,0,0,1,3.22-1.45,5.91,5.91,0,0,1,4,1.86,6.35,6.35,0,0,1,2.19,4.24,7.86,7.86,0,0,1-1.39,4.85q-4.32,7.44-14.25,13.23a42.1,42.1,0,0,1-21.58,5.78,33.2,33.2,0,0,1-20.38-6.5Q801.58,262.33,800.46,247.86Zm31.81-25.62q-5.38,0-10.36,6.61a21.54,21.54,0,0,0-4.32,15.08,40.06,40.06,0,0,0,13.73-7.33q7-5.47,6.63-10.44Q837.65,222.25,832.27,222.24Z"/><path d="M896.68,274.1q-13.32,0-14.39-13.84-.56-7.23,2.94-11.47t10.34-4.24q13.51,0,14.55,13.44.55,7.23-3,11.67C904.72,272.63,901.25,274.1,896.68,274.1Zm33.58-125.63q.43,5.58-3,14.87l-21.68,59.1q-1.3,3.52-3.55,3.52a4.5,4.5,0,0,1-3.42-1.24,4.36,4.36,0,0,1-1.29-2.69,7.66,7.66,0,0,1,0-2.07l11-70.25a13.47,13.47,0,0,1,3.41-7.75,9.9,9.9,0,0,1,7.61-3,11,11,0,0,1,7.64,2.58A10,10,0,0,1,930.26,148.47Z"/><path d="M967.76,274.1q-13.32,0-14.38-13.84-.57-7.23,2.93-11.47c2.33-2.82,5.77-4.24,10.35-4.24q13.5,0,14.54,13.44.57,7.23-3,11.67C975.8,272.63,972.33,274.1,967.76,274.1Zm33.58-125.63q.43,5.58-3,14.87l-21.68,59.1Q975.4,226,973.15,226a4.5,4.5,0,0,1-3.42-1.24,4.36,4.36,0,0,1-1.29-2.69,7.66,7.66,0,0,1,0-2.07l11-70.25a13.54,13.54,0,0,1,3.41-7.75,9.92,9.92,0,0,1,7.61-3,11,11,0,0,1,7.64,2.58A10,10,0,0,1,1001.34,148.47Z"/><path d="M1038.84,274.1q-13.32,0-14.38-13.84-.56-7.23,2.93-11.47c2.33-2.82,5.77-4.24,10.35-4.24q13.5,0,14.54,13.44.57,7.23-3,11.67C1046.88,272.63,1043.41,274.1,1038.84,274.1Zm33.59-125.63q.42,5.58-3,14.87l-21.68,59.1q-1.3,3.52-3.55,3.52a4.5,4.5,0,0,1-3.42-1.24,4.41,4.41,0,0,1-1.29-2.69,7.66,7.66,0,0,1,0-2.07l11-70.25A13.48,13.48,0,0,1,1054,142a9.88,9.88,0,0,1,7.6-3,11,11,0,0,1,7.64,2.58A10.07,10.07,0,0,1,1072.43,148.47Z"/><path class="cls-15" d="M364.67,272q0-6.09,3.91-21.4,8-33,28.79-91.72c-3.4-.13-6.46-.19-9.2-.19q-23.12,0-38,5.89a44.67,44.67,0,0,0-10.87,6,39.37,39.37,0,0,0-6.76,6.09q-1.95,2.44-4.11,5.79-1.76,3.35-7.73,3.34t-6-5.11a7,7,0,0,1,.4-2.55q7.64-21.4,24.08-29.85,8-4.12,27.22-7.27a170.32,170.32,0,0,1,17.82-.79q10.58,0,39.07,2t46.11,2q5.29.19,7.54,2t2.25,5.59c0,2.56-.59,4.42-1.76,5.6a11.61,11.61,0,0,1-1.57,1.38c-.39.26-1.07.68-2.05,1.27a15.21,15.21,0,0,0-1.67,1.08q-1.56,1.19-17.72,1.18t-42.2-2.16q-18,72.67-23.5,108.41-2.34,15.71-12.72,15.71Q364.66,284.21,364.67,272Z"/><path class="cls-15" d="M418.32,244.34a70.22,70.22,0,0,1,2.74-18.46,68.59,68.59,0,0,1,6.76-16.79c2.67-4.52,6.17-6.77,10.47-6.77a11.1,11.1,0,0,1,6.37,1.66q2.44,1.68,2.45,3.83a9.16,9.16,0,0,1-1,4.13q-9.4,18.08-9.4,31.62,0,9.83,6.07,9.82,7.24,0,18.41-13a5.55,5.55,0,0,1,4.7-2.36,7.15,7.15,0,0,1,5.09,2.06,6.39,6.39,0,0,1,2.15,4.71c0,1.77-.85,3.71-2.54,5.8a52.24,52.24,0,0,1-15.57,13,36.29,36.29,0,0,1-17.14,4.52,17.74,17.74,0,0,1-14.1-6.39Q418.32,255.35,418.32,244.34Zm21.74-63a11.06,11.06,0,0,1,3.91-8.84,14,14,0,0,1,9.4-3.33q11.94,0,11.95,11.39a11,11,0,0,1-3.53,8.64,13,13,0,0,1-9,3.14Q440.06,192.3,440.06,181.3Z"/><path class="cls-15" d="M484.9,268.3a19.68,19.68,0,0,1-16.84-8.74q-6.27-8.73-6.27-22.68a50,50,0,0,1,.2-5.11q2.94-29.06,15.66-59.11,6.27-14.92,15.67-24.45t20.17-9.53q13.89,0,13.9,15.32t-14.78,40.36q-14.79,25-32.61,39.18a28.78,28.78,0,0,0-.39,4.71q0,14.94,8.22,14.93,9.21,0,20.57-13a5.56,5.56,0,0,1,4.3-2,7,7,0,0,1,4.8,2.07,6.63,6.63,0,0,1,2.25,5.1,8.17,8.17,0,0,1-2.74,5.8Q502.13,268.31,484.9,268.3Zm22.71-110.57q-7.64,0-15,19.45a199,199,0,0,0-10.47,39.08,158.27,158.27,0,0,0,18.89-29.46q8.91-17.48,9.11-25.33Q510.16,157.73,507.61,157.73Z"/><path class="cls-15" d="M533.26,268.3a19.69,19.69,0,0,1-16.84-8.74q-6.27-8.73-6.26-22.68a50.55,50.55,0,0,1,.19-5.11q2.94-29.06,15.67-59.11,6.27-14.92,15.66-24.45t20.17-9.53q13.9,0,13.91,15.32T561,194.36q-14.79,25-32.6,39.18a28.78,28.78,0,0,0-.39,4.71q0,14.94,8.22,14.93,9.21,0,20.56-13a5.58,5.58,0,0,1,4.31-2,7,7,0,0,1,4.8,2.07,6.63,6.63,0,0,1,2.25,5.1,8.21,8.21,0,0,1-2.74,5.8Q550.5,268.31,533.26,268.3ZM556,157.73q-7.63,0-15,19.45a199.08,199.08,0,0,0-10.48,39.08,157.77,157.77,0,0,0,18.9-29.46q8.91-17.48,9.1-25.33Q558.52,157.73,556,157.73Z"/><path class="cls-15" d="M559.5,329q-8.61,0-13-2.85t-4.41-9.62a21.25,21.25,0,0,1,3.14-11.69c1.17-1.7,2.19-3.11,3-4.22s2.12-2.59,3.82-4.42,2.81-3.08,3.33-3.73q6.47-7.06,20.37-16.3,6.84-4.52,10-6.68l6.46-17.28a29.3,29.3,0,0,1-10.86,11.19q-6.76,3.93-10.68,3.93a18.57,18.57,0,0,1-13.12-5.11,17.4,17.4,0,0,1-5.48-13.35,73.58,73.58,0,0,1,8.81-34.76,12.07,12.07,0,0,1,4.8-4.81,12.22,12.22,0,0,1,6.17-2.07,8.5,8.5,0,0,1,5,1.58,5.17,5.17,0,0,1,2.25,4.51c0,2-1,4.59-2.93,7.86-.79,1.44-1.37,2.55-1.77,3.34q-3.52,14.13-3.52,21.7t6.46,7.56h1.37q8-1.77,13.12-18.26l5.29-18.07q2.53-9.44,8.81-9.43a10.48,10.48,0,0,1,5.09,1.28,4,4,0,0,1,2.35,3.63q0,5.31-3,19.15t-5.39,28.18q29.37-18.45,34.66-22.39a7.69,7.69,0,0,1,4.6-1.77,5.88,5.88,0,0,1,4.21,2,7.85,7.85,0,0,1,2,5.79q0,3.84-5.28,7.37-9.21,6.67-42.89,25.33-3.13,16.89-8.42,28.48a47.8,47.8,0,0,1-7.54,12.47,34.41,34.41,0,0,1-11.16,8.15A35.62,35.62,0,0,1,559.5,329Zm2.35-13.55q6.66,0,12.63-9.82a60.14,60.14,0,0,0,7.93-20.23q-4.3,2.36-13.61,13.35t-9.3,14.93c0,1.05.33,1.57,1,1.57Z"/><path class="cls-15" d="M664.07,251.81a15,15,0,0,1,3-9,26.76,26.76,0,0,1,6.56-6.48q10.19-6.48,10.77-9.43c.4-.52.33-.78-.19-.78q-10.77,0-21.54,14.92l-9,12.57q-10.38,14.73-21.34,14.73a5.61,5.61,0,0,1-3.63-1.37,8.78,8.78,0,0,1-2.44-3.05,27.52,27.52,0,0,1-1.47-3.92,23.57,23.57,0,0,1-.79-3c-.06-.52-.16-1.27-.29-2.26a53.82,53.82,0,0,1-.2-5.79,239.75,239.75,0,0,1,5.88-50.67,182.53,182.53,0,0,1,9.2-29.46,64.46,64.46,0,0,1,15.28-22.39q9.78-9.22,22.12-9.23,7.44,0,11.26,4t3.82,11.1q0,21.4-43.27,69.52l-4.51,5.1q-.59,2.37-2,13t-1.47,12a118.51,118.51,0,0,1,23.79-33.19q14.19-13.76,28.49-13.75,5.88,0,9.2,3.24t3.33,9.43a18.32,18.32,0,0,1-3.72,11.19,27.67,27.67,0,0,1-8.32,7.66,56.1,56.1,0,0,0-9.5,7.07q-4.89,4.42-4.89,9.52c0,2,1.43,3,4.31,3a29.7,29.7,0,0,0,5.28-.59c0-.26.62-.55,1.86-.88s3.26-1.54,6.07-3.64a42.75,42.75,0,0,0,8.72-9.42q1.37-3,3.82-3c1.63,0,3.13.89,4.5,2.65a9,9,0,0,1,2.06,5.6q0,5.7-13.71,15.51-9.8,6.89-19.19,6.88-5.88,0-11.85-4.42T664.07,251.81Zm6.66-95.25q-7.46,0-14.79,17.18t-9.1,31.13q3.92-5.51,10.28-13.36T666,180.12q7.05-10.2,7.05-20.82C673.08,157.47,672.29,156.56,670.73,156.56Z"/><path class="cls-15" d="M750.23,251.81a15,15,0,0,1,3-9,26.59,26.59,0,0,1,6.56-6.48q10.18-6.48,10.77-9.43c.39-.52.33-.78-.19-.78q-10.78,0-21.54,14.92l-9,12.57Q729.47,268.3,718.5,268.3a5.61,5.61,0,0,1-3.62-1.37,8.81,8.81,0,0,1-2.45-3.05A30.17,30.17,0,0,1,711,260a24.75,24.75,0,0,1-.78-3c-.07-.52-.16-1.27-.29-2.26a53.82,53.82,0,0,1-.2-5.79,239.75,239.75,0,0,1,5.88-50.67,180.56,180.56,0,0,1,9.2-29.46A64.3,64.3,0,0,1,740,146.34q9.8-9.22,22.13-9.23,7.44,0,11.26,4t3.82,11.1q0,21.4-43.28,69.52l-4.5,5.1q-.59,2.37-2.06,13t-1.46,12a118.51,118.51,0,0,1,23.79-33.19q14.19-13.76,28.49-13.75,5.88,0,9.2,3.24t3.33,9.43A18.32,18.32,0,0,1,787,228.73a27.78,27.78,0,0,1-8.32,7.66,56.1,56.1,0,0,0-9.5,7.07q-4.89,4.42-4.89,9.52,0,3,4.3,3a29.71,29.71,0,0,0,5.29-.59c0-.26.62-.55,1.86-.88s3.26-1.54,6.07-3.64a42.75,42.75,0,0,0,8.72-9.42q1.36-3,3.81-3c1.63,0,3.14.89,4.51,2.65a9,9,0,0,1,2.05,5.6q0,5.7-13.7,15.51-9.79,6.89-19.19,6.88-5.88,0-11.85-4.42T750.23,251.81Zm6.65-95.25q-7.44,0-14.78,17.18T733,204.87q3.91-5.51,10.29-13.36t8.9-11.39q7.05-10.2,7.05-20.82C759.23,157.47,758.45,156.56,756.88,156.56Z"/><path class="cls-15" d="M791.54,242.38q0-13.74,10.58-26.71t25.06-13q8.42,0,13.32,4.91t4.89,14.14q0,9.23-8.81,16.2t-26.24,9.92q2.74,5.1,10.48,5.1a40.77,40.77,0,0,0,15.47-3.14,43.42,43.42,0,0,0,13.41-8.44A4.51,4.51,0,0,1,853,240a5.57,5.57,0,0,1,3.82,1.77,5.43,5.43,0,0,1,1.86,4,7.76,7.76,0,0,1-1.76,4.61Q852,257.5,841.67,263a46.33,46.33,0,0,1-22,5.5q-11.65,0-19.87-6.19T791.54,242.38ZM825.32,218q-5.39,0-10.87,6.28A21.22,21.22,0,0,0,809,238.65a44.82,44.82,0,0,0,14.29-7q7.44-5.2,7.45-9.92Q830.71,218,825.32,218Z"/><path class="cls-15" d="M885.73,267.32q-13.32,0-13.31-13.16,0-6.87,3.81-10.9c2.55-2.68,6.1-4,10.68-4q13.5,0,13.51,12.76c0,4.59-1.31,8.28-3.92,11.1S890.3,267.32,885.73,267.32ZM929,147.91q0,5.31-4.11,14.14l-26.24,56.17q-1.57,3.34-3.82,3.34a4.26,4.26,0,0,1-3.33-1.18,3.69,3.69,0,0,1-1.08-2.55,6.53,6.53,0,0,1,.2-2l16.45-66.78a13.75,13.75,0,0,1,4-7.36,11,11,0,0,1,7.83-2.85q4.8,0,7.44,2.46A8.51,8.51,0,0,1,929,147.91Z"/><path class="cls-15" d="M956.81,267.32q-13.32,0-13.31-13.16,0-6.87,3.82-10.9t10.67-4q13.5,0,13.51,12.76c0,4.59-1.31,8.28-3.92,11.1S961.38,267.32,956.81,267.32Zm43.28-119.41q0,5.31-4.11,14.14l-26.24,56.17q-1.57,3.34-3.82,3.34a4.28,4.28,0,0,1-3.33-1.18,3.69,3.69,0,0,1-1.08-2.55,6.88,6.88,0,0,1,.2-2l16.45-66.78a13.82,13.82,0,0,1,4-7.36,11,11,0,0,1,7.83-2.85q4.8,0,7.45,2.46A8.54,8.54,0,0,1,1000.09,147.91Z"/><path class="cls-15" d="M1027.89,267.32q-13.32,0-13.31-13.16,0-6.87,3.82-10.9t10.67-4q13.52,0,13.51,12.76c0,4.59-1.31,8.28-3.92,11.1S1032.46,267.32,1027.89,267.32Zm43.28-119.41q0,5.31-4.11,14.14l-26.24,56.17q-1.58,3.34-3.82,3.34a4.29,4.29,0,0,1-3.33-1.18,3.69,3.69,0,0,1-1.08-2.55,6.88,6.88,0,0,1,.2-2l16.45-66.78a13.82,13.82,0,0,1,4-7.36,11,11,0,0,1,7.83-2.85q4.8,0,7.45,2.46A8.54,8.54,0,0,1,1071.17,147.91Z"/></svg>
