<svg id="Layer_1" data-name="Layer 1" xmlns="http://www.w3.org/2000/svg" xmlns:xlink="http://www.w3.org/1999/xlink" width="1380" height="830" viewBox="0 0 1380 830"><defs><style>.cls-1{opacity:0.4;}.cls-2{fill:#3fa9f5;opacity:0.95;}.cls-3,.cls-7{fill:#f58add;}.cls-4{opacity:0.45;}.cls-5{fill:#fff;}.cls-10,.cls-11,.cls-12,.cls-13,.cls-5,.cls-6,.cls-7,.cls-8,.cls-9{stroke:#000;stroke-miterlimit:10;}.cls-5,.cls-6{stroke-width:5px;}.cls-10,.cls-6{fill:#a6cf52;}.cls-10,.cls-13,.cls-8,.cls-9{stroke-width:2px;}.cls-8{fill:url(#linear-gradient);}.cls-9{fill:#574937;}.cls-11{stroke-width:0.3px;}.cls-12{stroke-width:0.5px;}.cls-13{fill:none;}</style><linearGradient id="linear-gradient" x1="709.67" y1="771.6" x2="707.48" y2="655.04" gradientUnits="userSpaceOnUse"><stop offset="0" stop-color="#020202"/><stop offset="0.84" stop-color="#a6cf52"/></linearGradient></defs><title>slutskaerm_tabt</title><path class="cls-1" d="M1266.07,823H119.42c-61.6,0-111.76-50.48-112-112.74L4.77,119.78C4.49,57.52,54.21,7,115.81,7H1262.46c61.6,0,111.76,50.48,112,112.74l2.61,590.44C1377.39,772.48,1327.67,823,1266.07,823Z"/><rect class="cls-2" x="2.88" y="9.81" width="1369.73" height="807.25" rx="120.76"/><path d="M328.63,232.1a97.88,97.88,0,0,1,3-33.86,87,87,0,0,1,32.66-46.57q22.16-16.21,46.72-16.21,16.57,0,27.57,8.51t12.26,24.93q.93,11.91-10.39,11.9a12.8,12.8,0,0,1-8.18-2.46q-3.12-2.46-3.66-9.44t-5.48-10.36q-4.94-3.39-12.74-3.39-20.08,0-39.72,18.47-9.43,9-14.89,24.21t-4,33.55q1.43,18.36,12,27.49T392.25,268q17.94,0,43.52-9.64l.68-6.36a10.91,10.91,0,0,0,0-2.26,2.88,2.88,0,0,0-1.05-2.15,4.07,4.07,0,0,0-2.21-.82q-1.27-.11-5.95-.11a16.25,16.25,0,0,1-8.15-1.95c-2.31-1.29-3.6-3.69-3.87-7.18s.83-6,3.31-7.59a17.24,17.24,0,0,1,9.38-2.36q15,0,21.3,3.18t6.95,11.6a39,39,0,0,1-.18,7.79q-4,47.19-16.24,69.86t-34.13,22.68q-9.94,0-22.2-4.72-8.65-3.5-9.23-10.88a12.67,12.67,0,0,1,2.81-9q3.19-4.11,7.48-4.11a10.92,10.92,0,0,1,2.38.41q10.2,3.28,16.83,3.28,11.49,0,18.39-10.56t12.83-37q-2.69,5.74-16.63,10.67a92.5,92.5,0,0,1-31,4.93,67.22,67.22,0,0,1-31.08-7.18Q331.24,265.75,328.63,232.1Z"/><path d="M506.8,211.17l5.22-.62h1.17q5.65,0,6.1,5.75a7.48,7.48,0,0,1,0,2l-2.9,33a6.45,6.45,0,0,0-.06,1.85q.29,3.69,3.21,3.69c2,0,4.43-1.19,7.43-3.59a34.37,34.37,0,0,0,8-9.33,5.56,5.56,0,0,1,4.12-2.26q2.14,0,4,3.59a17.07,17.07,0,0,1,2,6.26,14.8,14.8,0,0,1-.24,4.51,51.5,51.5,0,0,1-11.23,12.31Q526.68,274,519.85,274c-4.56,0-8.19-1.23-10.92-3.69a14.6,14.6,0,0,1-4.87-8.82l-2.25,3.69q-6,10-16.09,10.05t-16-6.87q-6-6.87-6.82-17.54-1.51-19.5,10.25-32.63T498.52,205q8,0,8.35,4.52ZM488,258q4.68,0,8.54-4.41t5.07-13.85l2.77-22.16q-11.46.61-18.56,10.87t-6.36,19.9Q480.2,258,488,258Z"/><path d="M569.43,259.59q-.31-11.7,4.65-33.24a134.66,134.66,0,0,0-7.85,14.57q-1.66,3.69-2.55,6.05c-.59,1.58-1.54,4.1-2.83,7.59s-2.55,6.88-3.79,10.16a19.42,19.42,0,0,1-4.22,7.18,7.7,7.7,0,0,1-5.48,2.26q-9.36,0-11-15.8a49.17,49.17,0,0,1-.8-5.34q-1.44-18.66,4.24-41,1.9-5.53,7-5.54h.39a7,7,0,0,1,4.4,1.44,4.49,4.49,0,0,1,2,3.18,6.61,6.61,0,0,1,0,2.15q-4.15,19.5-3.21,31.6,6.23-20.31,13.39-29.86t13-9.54a10.26,10.26,0,0,1,5.8,2,7.11,7.11,0,0,1,3.17,5.64q.28,3.7-1.85,18.88-1,7.19-1.49,11.08,12.93-37.14,28.72-37.14a10,10,0,0,1,6.08,1.75q2.39,1.74,2.52,3.49t-2.34,12.61c-1,4.66-1.93,9.54-3,14.67a55.26,55.26,0,0,0-1,15.29q.65,8.21,5.71,8.21,7.22,0,17.59-14.57a2.75,2.75,0,0,1,2.64-1.23c1.29,0,2.82.82,4.57,2.46s2.66,2.87,2.73,3.69a2.78,2.78,0,0,1-.09,1.44,48.47,48.47,0,0,1-14.53,15.08q-8.81,5.85-16.9,5.85c-5.4,0-9.37-1.44-11.94-4.31a17.92,17.92,0,0,1-4.35-10.88q-1.14-14.76,5.74-34.26a132.32,132.32,0,0,0-6.3,11.9q-3.52,7.38-11.82,31.19-2.49,5.54-6.79,5.54-9.36,0-10.17-10.47Z"/><path d="M627.63,248.1q-1.11-14.35,8.37-27.9t23.91-13.55q8.39,0,13.66,5.13t6,14.78q.75,9.65-7.47,16.92t-25.33,10.37q3.15,5.32,10.85,5.33a37.24,37.24,0,0,0,15.15-3.28,38.4,38.4,0,0,0,12.67-8.83,4.1,4.1,0,0,1,3.21-1.43,5.92,5.92,0,0,1,4,1.84,6.36,6.36,0,0,1,2.17,4.21,7.83,7.83,0,0,1-1.38,4.82q-4.3,7.39-14.19,13.13a42.08,42.08,0,0,1-21.5,5.75,33.12,33.12,0,0,1-20.29-6.46Q628.75,262.47,627.63,248.1Zm31.67-25.44q-5.37,0-10.32,6.56a21.36,21.36,0,0,0-4.3,15,39.89,39.89,0,0,0,13.67-7.28q7-5.43,6.61-10.36Q664.66,222.66,659.3,222.66Z"/><path d="M730,225.94q-2.53-32.82,13-58.88a58.45,58.45,0,0,1,20.66-20.22q13.06-7.68,30.22-7.69a50,50,0,0,1,30.82,10.26q26.09,19.5,29.21,59.91,2.53,32.84-12.82,58.68a57.25,57.25,0,0,1-49.94,27.5q-26.91,0-42.88-19.91T730,225.94Zm64-67.09q-15,0-25.17,10A51.58,51.58,0,0,0,755,193.22q-3.76,14.46-2.28,33.54a69.66,69.66,0,0,0,11.19,33.75q9.71,14.67,25,14.67T814.09,265a54.16,54.16,0,0,0,13.58-24.83q3.74-14.67,2.28-33.55a69.44,69.44,0,0,0-11-33.34Q809.48,158.85,794.08,158.85Z"/><path d="M877.14,214.25a105.08,105.08,0,0,0-.67,21.64,75.4,75.4,0,0,0,3.81,19,22.14,22.14,0,0,1,1.05,3.49q7.93-5.75,13.56-21.34l-.25-3.28q-1.07-13.74,3.53-21.14T909,205.22q6.24,0,6.81,7.38.28,3.71-3.51,17.65a41.15,41.15,0,0,0,18-9.23,26.49,26.49,0,0,0,6-6.57q2-3.28,4.43-3.28t4.69,2.67a9.32,9.32,0,0,1,2.45,5.23,8.27,8.27,0,0,1-.47,4q-3.66,8.2-16.38,15.18t-24,7.18q-9.62,22-23.85,29.55a9.78,9.78,0,0,1-4.78,1.23q-7.41,0-13.53-9.85t-7.26-24.52a106.68,106.68,0,0,1,2.14-30.26q1.5-6,7.54-6a11.37,11.37,0,0,1,6.6,2.15,7,7,0,0,1,3.33,5.23Z"/><path d="M921.68,248.1q-1.11-14.35,8.37-27.9T954,206.65q8.37,0,13.65,5.13t6,14.78q.75,9.65-7.46,16.92t-25.33,10.37q3.14,5.32,10.84,5.33a37.17,37.17,0,0,0,15.15-3.28,38.55,38.55,0,0,0,12.68-8.83,4.06,4.06,0,0,1,3.2-1.43,5.9,5.9,0,0,1,3.95,1.84,6.37,6.37,0,0,1,2.18,4.21,7.78,7.78,0,0,1-1.39,4.82q-4.31,7.39-14.19,13.13a42.07,42.07,0,0,1-21.49,5.75,33.15,33.15,0,0,1-20.3-6.46Q922.8,262.47,921.68,248.1Zm31.67-25.44q-5.36,0-10.31,6.56a21.32,21.32,0,0,0-4.3,15,40,40,0,0,0,13.67-7.28q7-5.43,6.61-10.36Q958.72,222.66,953.35,222.66Z"/><path d="M1012.86,231.89q-.48,1.44-4.16,11.8T1001.22,268q-2.64,6.17-9.66,6.16-9.55,0-10.68-14.57l-.32-4.1a142.06,142.06,0,0,1,2.05-39q2.92-10,10.34-10.05a6.66,6.66,0,0,1,4.94,2.05,6.82,6.82,0,0,1,2.17,4.21c.12,1.43-.34,6.09-1.35,13.95A145.26,145.26,0,0,1,996,243a110.12,110.12,0,0,1,11.61-23.9q7.81-12.42,12.69-12.42,9.75,0,10.27,6.77a25.32,25.32,0,0,1-1.4,9.65c-1.16,3.56-1.73,5.4-1.71,5.54,0,.68,1.08,1,3.1,1s7.23-1.84,15.66-5.54h.19c1.3,0,2.95,1.17,4.95,3.49s3.06,4.24,3.18,5.75c0,.68-.12,1.09-.49,1.23q-12.58,11.28-26.53,11.28t-14.73-10.26A18.73,18.73,0,0,1,1012.86,231.89Z"/><path class="cls-3" d="M321,227.47a91.6,91.6,0,0,1,5.65-32.18q10.53-27.1,36.27-44.26,23.4-15.4,48-15.41,16.58,0,26.91,8.09t10.34,23.7q0,11.31-11.31,11.31-5.07,0-8-2.34t-2.92-9q0-6.63-4.68-9.85t-12.48-3.22q-20.09,0-41.15,17.55-10.14,8.58-16.77,23a75.46,75.46,0,0,0-6.63,31.88q0,17.46,9.85,26.13t27.79,8.68q17.94,0,44.26-9.16l1.17-6.05a9.16,9.16,0,0,0,.2-2.14,2.43,2.43,0,0,0-.88-2.05,4,4,0,0,0-2.14-.78q-1.28-.1-5.95-.1a16.12,16.12,0,0,1-8-1.85q-3.32-1.85-3.31-6.83a7.7,7.7,0,0,1,3.9-7.21,18.93,18.93,0,0,1,9.55-2.24q15,0,21.06,3t6.05,11a35.88,35.88,0,0,1-.78,7.41q-7.6,44.85-21.65,66.39t-35.88,21.55q-9.94,0-21.84-4.48-8.38-3.31-8.38-10.34a12.56,12.56,0,0,1,3.51-8.58q3.51-3.9,7.8-3.9a10.67,10.67,0,0,1,2.34.39q9.94,3.12,16.57,3.12,11.5,0,19.21-10t15.7-35.2q-3.12,5.46-17.46,10.14a100.62,100.62,0,0,1-31.39,4.68q-17.07,0-30.52-6.82Q321,259.45,321,227.47Z"/><path class="cls-3" d="M500.77,207.58,506,207h1.17q5.66,0,5.66,5.46a6.8,6.8,0,0,1-.2,2l-5.46,31.4a5.91,5.91,0,0,0-.19,1.75q0,3.51,2.92,3.51t7.7-3.41a37.42,37.42,0,0,0,8.68-8.87,6.19,6.19,0,0,1,4.29-2.15c1.43,0,2.66,1.14,3.71,3.41a14.9,14.9,0,0,1,1.56,6,13.67,13.67,0,0,1-.59,4.29A56.53,56.53,0,0,1,523.09,262q-7.3,5.26-14.14,5.27t-10.62-3.51a12.4,12.4,0,0,1-4.19-8.39l-2.54,3.51q-6.83,9.56-16.87,9.56t-15.5-6.54q-5.46-6.53-5.46-16.67,0-18.53,12.77-31T493,201.73q8,0,8,4.29ZM478.34,252q4.68,0,8.87-4.2t6.15-13.16l4.48-21.06q-11.5.58-19.4,10.34t-7.9,18.91Q470.54,252,478.34,252Z"/><path class="cls-3" d="M559.65,253.6q.58-11.11,7.22-31.59a139.94,139.94,0,0,0-9,13.84q-1.95,3.51-3,5.75c-.71,1.5-1.85,3.9-3.41,7.22s-3.09,6.53-4.58,9.65a20.54,20.54,0,0,1-4.78,6.83,8.52,8.52,0,0,1-5.65,2.14q-9.36,0-9.75-15a42.66,42.66,0,0,1-.39-5.07q0-17.75,7.41-39,2.34-5.27,7.41-5.27h.39a6.78,6.78,0,0,1,4.29,1.37,3.85,3.85,0,0,1,1.75,3,6.22,6.22,0,0,1-.19,2.05q-5.65,18.53-5.66,30,7.8-19.31,15.7-28.38t13.75-9.06a10,10,0,0,1,5.65,1.85,6.08,6.08,0,0,1,2.73,5.36q0,3.51-3.31,17.94-1.56,6.82-2.34,10.53,15.79-35.3,31.59-35.29a9.83,9.83,0,0,1,5.95,1.65c1.49,1.11,2.24,2.22,2.24,3.32s-1.11,5.1-3.32,12q-2,6.63-4.09,13.94a51.46,51.46,0,0,0-2.15,14.53q0,7.8,5.07,7.8,7.22,0,18.72-13.84a3,3,0,0,1,2.73-1.17q1.95,0,4.39,2.34c1.62,1.56,2.44,2.73,2.44,3.51a2.55,2.55,0,0,1-.2,1.36,53.25,53.25,0,0,1-15.69,14.33q-9.27,5.57-17.36,5.56t-11.6-4.09a15.33,15.33,0,0,1-3.51-10.34q0-14,8.38-32.56-3.12,4.29-7.21,11.31T576,261.79q-2.92,5.26-7.21,5.26-9.36,0-9.36-9.94Z"/><path class="cls-3" d="M618.74,242.68q0-13.65,10.53-26.52t25-12.87q8.38,0,13.26,4.87t4.87,14q0,9.17-8.77,16.09t-26.13,9.85q2.73,5.07,10.43,5.07a40.74,40.74,0,0,0,15.4-3.12,43.12,43.12,0,0,0,13.36-8.39,4.52,4.52,0,0,1,3.32-1.36,5.54,5.54,0,0,1,3.8,1.75,5.4,5.4,0,0,1,1.85,4,7.64,7.64,0,0,1-1.75,4.58q-4.87,7-15.21,12.48a46.32,46.32,0,0,1-21.94,5.46q-11.61,0-19.79-6.14T618.74,242.68Zm33.63-24.18q-5.36,0-10.82,6.24A21,21,0,0,0,636.09,239a44.71,44.71,0,0,0,14.24-6.92q7.41-5.16,7.41-9.85Q657.74,218.5,652.37,218.5Z"/><path class="cls-3" d="M722.86,221.62q0-31.2,17.55-56a64.25,64.25,0,0,1,53-26.52q17.16,0,30,9.75,24.59,18.52,24.57,56.94,0,31.2-17.35,55.77a63.48,63.48,0,0,1-52.07,26.13q-26.91,0-41.34-18.91T722.86,221.62Zm69.23-63.77a38.31,38.31,0,0,0-25.94,9.46,54.12,54.12,0,0,0-15.79,23.2q-4.87,13.76-4.88,31.89t8.58,32.07q8.58,13.95,23.89,14t25.94-9.66a56.55,56.55,0,0,0,15.5-23.59q4.88-13.93,4.87-31.88t-8.38-31.69Q807.49,157.85,792.09,157.85Z"/><path class="cls-3" d="M870.87,210.5a96.52,96.52,0,0,0-2.34,20.57,65.5,65.5,0,0,0,2.34,18,20.4,20.4,0,0,1,.78,3.32Q880,247,886.86,232.15V229q0-13.07,5.16-20.09t11.41-7q6.24,0,6.24,7,0,3.51-4.87,16.77a46,46,0,0,0,18.72-8.77,29.14,29.14,0,0,0,6.53-6.24q2.24-3.12,4.68-3.12a5.78,5.78,0,0,1,4.48,2.53,8,8,0,0,1,2,5,7.73,7.73,0,0,1-.78,3.81q-4.29,7.8-17.55,14.43t-24.57,6.82Q887.05,261,872.23,268.22a10.78,10.78,0,0,1-4.87,1.17q-7.43,0-12.78-9.36t-5.36-23.3A98.77,98.77,0,0,1,853.71,208q1.93-5.66,8-5.66a11,11,0,0,1,6.44,2.05,6,6,0,0,1,2.92,5Z"/><path class="cls-3" d="M912.79,242.68q0-13.65,10.53-26.52t25-12.87q8.38,0,13.26,4.87t4.88,14q0,9.17-8.78,16.09t-26.13,9.85q2.73,5.07,10.43,5.07a40.79,40.79,0,0,0,15.41-3.12,43.19,43.19,0,0,0,13.35-8.39,4.52,4.52,0,0,1,3.32-1.36,5.52,5.52,0,0,1,3.8,1.75,5.38,5.38,0,0,1,1.86,4,7.66,7.66,0,0,1-1.76,4.58q-4.87,7-15.21,12.48a46.29,46.29,0,0,1-21.94,5.46q-11.6,0-19.79-6.14T912.79,242.68Zm33.64-24.18q-5.37,0-10.82,6.24A21,21,0,0,0,930.14,239a44.61,44.61,0,0,0,14.24-6.92q7.41-5.16,7.41-9.85Q951.79,218.5,946.43,218.5Z"/><path class="cls-3" d="M1005.22,227.27q-.59,1.36-5.07,11.21t-9.36,23.11q-3.12,5.85-10.14,5.85-9.55,0-9.55-13.84v-3.9a131.53,131.53,0,0,1,5.06-37q3.71-9.56,11.12-9.56a6.31,6.31,0,0,1,4.78,1.95,5.83,5.83,0,0,1,1.85,4c0,1.36-.81,5.79-2.44,13.26a137.46,137.46,0,0,1-4,15.5,114,114,0,0,1,13.46-22.72q8.77-11.79,13.65-11.79,9.75,0,9.75,6.43a24,24,0,0,1-2.14,9.17c-1.44,3.38-2.15,5.13-2.15,5.26,0,.65,1,1,3,1s7.38-1.76,16.09-5.27h.2q1.94,0,4.68,3.32c1.81,2.21,2.73,4,2.73,5.46,0,.65-.2,1-.59,1.17q-13.45,10.73-27.4,10.72t-13.94-9.75A18.08,18.08,0,0,1,1005.22,227.27Z"/><g class="cls-4"><ellipse cx="676.83" cy="590.09" rx="39.78" ry="126.88" transform="translate(85.25 1265.61) rotate(-89.87)"/><path d="M788.18,746.21a315.45,315.45,0,0,1-101.87,18.24A323.83,323.83,0,0,1,565,741.87a14.91,14.91,0,0,1-9.79-6.08,21,21,0,0,1-3.2-6.52s-1.53-8.31-1.53-8.68l-1.83-92.07c-.09-4.35.07-8.69.08-13,0-15,.15-25.08,1.21-25.19.68-.07.79,4.14,3.23,8.69a20.29,20.29,0,0,0,9.17,8.68,212.12,212.12,0,0,0,46.54,16.5s27.91,6.33,77.83,6.52c0,0,50,1.55,91.35-15.64A83.76,83.76,0,0,0,789.89,609c2.69-1.72,2.49-1.86,5.71-3.9,4-2.54,5.26-2.82,6.38-4.78,1.91-3.32,1.8-7.4,1.9-7.38s.44,22.17.49,24.75c0,0,0,.5.17,8.25l2.19,93.37a30.56,30.56,0,0,1-1.16,10C801.65,742.44,789.67,745.82,788.18,746.21Z"/><ellipse cx="647.26" cy="717.29" rx="11.91" ry="24.37" transform="translate(-74.13 1359.97) rotate(-89.64)"/><ellipse cx="777.74" cy="709.64" rx="24.21" ry="10.82" transform="translate(-120.06 159.72) rotate(-10.89)"/><path d="M697.18,704.94s4.74-4.88,14.75-7.78c3.3-1,8.37-.86,15.71,4.57,1.55,2.2,3.54,4.34,5.48,3.94,2.33-.48,3.53-4.32,3.72-4.18s-1.25,3.58-2.33,6.76a65.32,65.32,0,0,0-2,7.19,47.13,47.13,0,0,0-1,7.21,28.25,28.25,0,0,0,1.8,12.79c.3.83.25.57,1,2.58,1.14,2.85,2.32,5.82,2.09,6s-1.16-2.09-2.75-3.88a11,11,0,0,0-7.87-3.56,64.32,64.32,0,0,0-28.27,2,10.36,10.36,0,0,0-3.73,2.9,20.19,20.19,0,0,0-2.69,5,35.14,35.14,0,0,1,2-6.34c.26-.68.42-1.06.52-1.33a34.18,34.18,0,0,0,2.1-13.08,43,43,0,0,0-1.07-7.25,57.28,57.28,0,0,0-2.11-7.7c-1.26-3.58-2.66-6.24-2.43-6.43s1.09,2.11,2.75,2.61C694.76,707.54,696.54,705.6,697.18,704.94Z"/><ellipse cx="676.24" cy="587.75" rx="18.29" ry="70.63" transform="translate(87.51 1263.13) rotate(-89.92)"/><path d="M702.25,605.38l-38.16.45a46.19,46.19,0,0,1-4-10.25c-.32-1.25-.25-1.2-1.65-14.25-.43-4.05-.68-6.29.16-8.91a11.39,11.39,0,0,1,2.64-4.45,25.36,25.36,0,0,1,15.23-4.9,27.06,27.06,0,0,1,16.14,6.24c2.65,6.84,4.61,11.81,5.75,14.69,2.32,5.84,3.62,9,4,13.81A34.53,34.53,0,0,1,702.25,605.38Z"/><path d="M629.2,590.94l-13.94,1.7-.1-5.11,14,1.28Z"/><path d="M643.72,593.91l-11.8,3.89-.69-5,12.2-.94Z"/><path d="M644.29,587.32l-11.95-.85-.39-2.55,11.61,1.27C643.81,585.9,644.05,586.61,644.29,587.32Z"/><path d="M659.88,600.08l-10.06-2.65-.39-2.55,8.66,1Z"/><path d="M656.6,589.45l-7.43,3.4c-.13-.71-.25-1.42-.38-2.13l7.77-3.4Z"/><path d="M645.78,600.1l-4.14.26-.09-1.36,4.32-.18Z"/><path d="M654.87,585.9l-5.53.18-.27-2,5.79,0Z"/><path d="M624.18,578.65l-8.4,3.68-.31-1.74,7.74-3.48Z"/><path d="M612.85,582.16l.65,6.35-.7-.08-.63-5.87Z"/><path d="M657.34,582.27l-10-6,.94-1.8,9.23,5.5Z"/><path d="M645.64,576.62l-10.95.09.18-2.15,10.13-.18Z"/><path d="M629.08,585l-5.51-.05.08-1.22h5.09Z"/><path d="M630.93,579.37l-1.8-.13,0-2.13,1.52-.13C630.71,577.77,630.82,578.57,630.93,579.37Z"/><path d="M628.88,596.07l-1.8-.12,0-2.13,1.52-.14C628.67,594.48,628.77,595.28,628.88,596.07Z"/><path d="M643.84,581.79l-10.81-1c.05-.82.11-1.63.17-2.44l11,1.16Z"/><path d="M726,600.51q-4.54.81-9.17,1.7-7.4,1.42-14.59,3a81.09,81.09,0,0,0-2-16.17,75.63,75.63,0,0,0-7.2-19.14l34.87,5.53c3.71,1.15,19,6.09,19,12.34,0,3-3.42,5.38-6.66,7.65A27.89,27.89,0,0,1,726,600.51Z"/><path d="M667.52,656a28,28,0,0,0-9.61-.63,22.41,22.41,0,0,0-10.17,3.14c-9.89,6.24-12.68,20.41-12.3,25l0,.19a16.93,16.93,0,0,0,4,8.8c4.23,4.65,12.29,2,16.25-.12,6.32-3.45,9.2-9.64,10.65-12.76,1.54-3.32,3-6.49,2.18-10.21a11.37,11.37,0,0,0-4.09-6.45c-2.27-1.77-4.44-1.83-6.44-1.88a16.35,16.35,0,0,0-13.64,7.31,17.58,17.58,0,0,0-2.67,8.4c-.35,3.12-1,8.66,2.14,10.69,2.1,1.37,4.9.47,6.39,0,5-1.6,7.29-6.93,8.14-8.8,1.17-2.56,2.84-6.23,1.67-8.42-1.44-2.69-6.78-2.42-9.87.85-2.92,3.09-3.89,8.92-2.62,10.08,1.6,1.45,6.74-4.49,7.15-5"/><path d="M788.8,645.08a33.68,33.68,0,0,0-9.61-.52A25.67,25.67,0,0,0,769,647.17c-9.91,5.18-12.75,16.94-12.38,20.71a1.48,1.48,0,0,0,0,.16,12.87,12.87,0,0,0,4,7.3c4.21,3.86,12.28,1.7,16.25-.1,6.33-2.87,9.23-8,10.69-10.59,1.56-2.76,3-5.39,2.21-8.48a9.53,9.53,0,0,0-4.06-5.35,11.28,11.28,0,0,0-6.43-1.57,17.58,17.58,0,0,0-13.67,6.07,13,13,0,0,0-2.7,7c-.35,2.59-1,7.19,2.1,8.87,2.1,1.14,4.9.4,6.4,0,5-1.32,7.3-5.75,8.16-7.31,1.18-2.12,2.86-5.16,1.7-7-1.43-2.24-6.77-2-9.87.7-2.93,2.57-3.92,7.41-2.66,8.37,1.6,1.21,6.76-3.73,7.18-4.13"/></g><ellipse class="cls-5" cx="674.18" cy="586.81" rx="126.88" ry="38.56"/><path class="cls-6" d="M782.43,735.07A331.3,331.3,0,0,1,559.36,731a14.71,14.71,0,0,1-9.68-5.78,19,19,0,0,1-3.06-6.18s-1.37-7.9-1.37-8.25V623.31c0-4.13.25-8.25.34-12.37.33-14.22.65-23.81,1.71-23.92.68-.07.71,3.93,3.06,8.25a19.34,19.34,0,0,0,9,8.24,215.64,215.64,0,0,0,46.21,15.68s27.79,6,77.7,6.18c0,0,50,1.48,91.66-14.84a87.78,87.78,0,0,0,11.93-5.78c2.73-1.64,2.53-1.77,5.79-3.71,4.06-2.41,5.31-2.68,6.48-4.54,2-3.15,1.94-7,2-7,.25,0,0,21.06,0,23.51,0,0,0,.48,0,7.84q.18,44.32.34,88.66a27.56,27.56,0,0,1-1.36,9.49C796,731.49,783.92,734.7,782.43,735.07Z"/><ellipse class="cls-7" cx="642.03" cy="710.12" rx="24.37" ry="11.55"/><ellipse class="cls-7" cx="772.66" cy="702.71" rx="24.27" ry="10.46" transform="translate(-116.35 154.57) rotate(-10.63)"/><path class="cls-8" d="M692.2,698.15s4.83-4.73,14.91-7.54c3.31-.93,8.38-.83,15.62,4.43,1.5,2.13,3.45,4.2,5.4,3.82,2.34-.47,3.61-4.19,3.8-4.05s-1.33,3.46-2.47,6.55a63.07,63.07,0,0,0-2.14,7,44.71,44.71,0,0,0-1.12,7,29.54,29.54,0,0,0-.07,5.36,28.83,28.83,0,0,0,1.61,7c.29.81.24.55,1,2.5,1.08,2.77,2.2,5.64,2,5.81s-1.12-2-2.68-3.77a11,11,0,0,0-7.79-3.45,66.47,66.47,0,0,0-28.31,1.92,10.67,10.67,0,0,0-3.79,2.81,19.85,19.85,0,0,0-2.79,4.9,34.09,34.09,0,0,1,2.12-6.15c.28-.66.44-1,.55-1.29a32.57,32.57,0,0,0,2.37-12.68,39.59,39.59,0,0,0-.93-7,53.51,53.51,0,0,0-1.94-7.46c-1.2-3.47-2.54-6.05-2.31-6.23s1,2,2.7,2.53C689.72,700.67,691.54,698.79,692.2,698.15Z"/><ellipse class="cls-9" cx="673.64" cy="584.54" rx="70.63" ry="17.73"/><path class="cls-10" d="M699.28,601.64l-38.16.43a42.4,42.4,0,0,1-3.75-9.93c-.3-1.21-.23-1.16-1.37-13.81-.35-3.93-.55-6.1.35-8.64a11.39,11.39,0,0,1,2.72-4.32,26.4,26.4,0,0,1,15.34-4.75,27,27,0,0,1,16,6c2.51,6.63,4.37,11.45,5.45,14.25,2.2,5.65,3.44,8.75,3.75,13.38A32.56,32.56,0,0,1,699.28,601.64Z"/><path class="cls-11" d="M626.53,587.64l-14,1.65v-4.95l14,1.23Z"/><path class="cls-11" d="M641,590.52l-11.88,3.77-.59-4.9,12.22-.91Z"/><path class="cls-11" d="M641.69,584.13l-11.93-.82c-.11-.83-.22-1.65-.34-2.48L641,582.07Z"/><path class="cls-11" d="M657,596.5l-10-2.57c-.12-.82-.23-1.65-.34-2.47l8.64.92Z"/><path class="cls-11" d="M654,586.19l-7.5,3.3c-.11-.68-.22-1.37-.34-2.06l7.84-3.3Z"/><path class="cls-11" d="M642.93,596.52l-4.15.25-.07-1.32,4.33-.17Z"/><path class="cls-11" d="M652.31,582.75l-5.54.18-.23-2,5.79-.05Z"/><path class="cls-11" d="M621.76,575.73l-8.47,3.57-.28-1.69,7.81-3.38Z"/><path class="cls-11" d="M610.36,579.13l.52,6.15-.7-.08-.51-5.68Z"/><path class="cls-11" d="M654.85,579.23,645,573.38l1-1.75q4.56,2.67,9.13,5.33Z"/><path class="cls-11" d="M643.26,573.76l-11,.09.22-2.09,10.14-.18Z"/><path class="cls-11" d="M626.53,581.86l-5.51,0,.1-1.19h5.09Z"/><path class="cls-11" d="M628.49,576.42l-1.79-.12v-2.07l1.52-.13Z"/><path class="cls-11" d="M626.11,592.61l-1.8-.12v-2.06l1.52-.13C625.93,591.07,626,591.84,626.11,592.61Z"/><path class="cls-11" d="M641.35,578.77l-10.79-.93c.08-.79.15-1.58.23-2.37l11,1.13Z"/><path class="cls-12" d="M723.14,596.92c-3,.52-6.11,1.07-9.2,1.65q-7.44,1.38-14.66,2.88a75.72,75.72,0,0,0-1.7-15.67,70.33,70.33,0,0,0-6.82-18.56l34.76,5.36c3.69,1.12,18.86,5.9,18.74,12,0,2.88-3.53,5.22-6.81,7.43A29.18,29.18,0,0,1,723.14,596.92Z"/><path class="cls-13" d="M663.53,650.74a28.79,28.79,0,0,0-9.6-.61,23.08,23.08,0,0,0-10.23,3c-10,6.05-13.1,19.78-12.81,24.19l0,.19a15.79,15.79,0,0,0,3.83,8.52c4.14,4.51,12.25,2,16.26-.11,6.38-3.35,9.39-9.35,10.9-12.37,1.61-3.22,3.1-6.29,2.39-9.9a10.68,10.68,0,0,0-4-6.25c-2.23-1.72-4.4-1.78-6.4-1.83a16.36,16.36,0,0,0-16.63,15.23c-.41,3-1.14,8.39,1.92,10.36,2.07,1.33,4.89.46,6.4,0,5-1.54,7.42-6.71,8.31-8.53,1.22-2.48,3-6,1.84-8.16-1.39-2.6-6.73-2.34-9.88.83-3,3-4.08,8.65-2.83,9.77,1.57,1.41,6.83-4.35,7.26-4.82"/><path class="cls-13" d="M785,640.12a34.37,34.37,0,0,0-9.59-.5,26.83,26.83,0,0,0-10.24,2.53c-10,5-13.09,16.42-12.8,20.07a1.26,1.26,0,0,0,0,.16,12,12,0,0,0,3.84,7.08c4.13,3.74,12.25,1.65,16.25-.1a23.57,23.57,0,0,0,10.91-10.27c1.61-2.67,3.1-5.22,2.38-8.22a8.94,8.94,0,0,0-4-5.18,11.29,11.29,0,0,0-6.39-1.52,18.18,18.18,0,0,0-13.79,5.88,12.48,12.48,0,0,0-2.84,6.76c-.41,2.51-1.14,7,1.92,8.6,2.07,1.11,4.89.39,6.39,0,5-1.28,7.42-5.57,8.32-7.08,1.22-2.06,3-5,1.83-6.77-1.38-2.17-6.72-1.95-9.88.68-3,2.49-4.08,7.18-2.83,8.11,1.57,1.17,6.84-3.61,7.26-4"/></svg>
