<svg id="Layer_1" data-name="Layer 1" xmlns="http://www.w3.org/2000/svg" width="250" height="250" viewBox="0 0 250 250"><defs><style>.cls-1,.cls-3{opacity:0.45;}.cls-2{fill:#ffe675;}.cls-4,.cls-5{fill:none;stroke-miterlimit:10;stroke-width:15px;}.cls-4{stroke:#000;}.cls-5{stroke:#f58add;}.cls-6{fill:#f58add;}</style></defs><title>spil_igen_knap</title><ellipse class="cls-1" cx="125.77" cy="122.33" rx="120.22" ry="122.62" transform="matrix(0.94, -0.35, 0.35, 0.94, -34.57, 51.1)"/><circle class="cls-2" cx="124.22" cy="120.5" r="120.5"/><g class="cls-3"><path class="cls-4" d="M70.92,117.33c-5.53,24.29,2.89,49.25,21,62.42,26.49,19.29,66.49,8,81.4-19.14,10.8-19.69,6.78-44.78-6-62.42C149.42,73.46,120.68,72.11,117.48,72"/><path d="M137.16,101.22,87.32,66.75l58-16.88Z"/></g><path class="cls-5" d="M71.24,113c-6.3,24.12,1.33,48.92,19,62,25.87,19.16,66.24,8,82-19,11.42-19.56,8.2-44.47-4-62-17.11-24.57-45.81-25.9-49-26"/><path class="cls-6" d="M138,97,89.24,62.75,147.74,46Z"/></svg>
