<svg id="Layer_1" data-name="Layer 1" xmlns="http://www.w3.org/2000/svg" width="370" height="250" viewBox="0 0 370 250"><defs><style>.cls-1{opacity:0.8;}.cls-2{fill:#3fa9f5;}.cls-3{fill:#fff;}.cls-4{fill:#f58add;}</style></defs><title>start_knap</title><g class="cls-1"><path d="M288.4,247.27H87.77c-44.29,0-80.94-35.88-81.87-80.13l-1.77-84A78.16,78.16,0,0,1,82.63,3H283.26c44.28,0,80.94,35.87,81.87,80.13l1.77,84A78.16,78.16,0,0,1,288.4,247.27Z"/></g><rect class="cls-2" x="2.45" y="2.99" width="361" height="239" rx="80.19"/><path class="cls-3" d="M80.79,163q28.49,0,27.9-17.44-.25-7.6-7.46-12.68a74.94,74.94,0,0,0-6.87-4.51q-2.94-1.66-9.44-4.84t-8.62-4.28q-2.11-1.11-5.54-2.85T66.2,114q-1.14-.63-3.91-2.22a41.62,41.62,0,0,1-3.84-2.37l-3.28-2.46A13.34,13.34,0,0,1,52.11,104c-.56-.85-1.29-1.91-2.18-3.17q-3.36-4.44-3.62-12.68A21,21,0,0,1,52.81,72q13-13.32,39.08-13.31,16.64,0,27.41,6.49t11.5,18.55A25.22,25.22,0,0,1,124,101.79q-4.33,4.44-8.33,4.44a9.15,9.15,0,0,1-6.31-2.06,6.54,6.54,0,0,1-2.4-4.76,7.38,7.38,0,0,1,1.76-4.75,13.76,13.76,0,0,0,4.76-10.94q-.4-12.21-23.13-12.21Q79,71.51,72.7,75.87t-6.12,11a13.54,13.54,0,0,0,1.64,6,7.38,7.38,0,0,0,2.09,2.62c1,.9,2,1.66,2.8,2.3a30.69,30.69,0,0,0,4.08,2.45q2.85,1.52,4.89,2.62c1.35.74,3.47,1.82,6.34,3.25s6.16,3.06,9.85,4.91,7.48,3.83,11.39,5.94q9.95,5.55,14,10.94,5,6.66,5.34,16.48.51,15.22-13,23.86t-35.4,8.64q-26.07,0-39.16-13.32a27,27,0,0,1-8.09-17.27l0-1.27a18.73,18.73,0,0,1,4.29-12.76A15,15,0,0,1,50,126.67c3.51,0,5.33,1.59,5.43,4.76,0,1.48-.63,3.4-2,5.78a13.34,13.34,0,0,0-2,7.37q.33,9.84,7.67,14.11T80.79,163Z"/><path class="cls-3" d="M139.35,134c-.86,0-1.76-.6-2.7-1.82a7.29,7.29,0,0,1-1.51-4.36,3.82,3.82,0,0,1,2-3.72c1.41-.8,2.85-1.61,4.32-2.46A122.29,122.29,0,0,1,152,81.34a50.78,50.78,0,0,1,10.82-16.17q6.51-6.33,13.15-6.34t9.79,3.25a11.69,11.69,0,0,1,3.31,8l0,1.42a42.4,42.4,0,0,1-6.89,21.32A75.77,75.77,0,0,1,166.11,111q10.27-3.65,13.15-3.64a4.75,4.75,0,0,1,3.33,1.5,5.63,5.63,0,0,1,1.66,4q.08,2.53-3.25,3.33-9.06,1.91-26.38,10.3c0,2.12,0,4.12,0,6q.47,13.78,5.26,13.79h.64q7-1.44,15.34-10.31a4.63,4.63,0,0,1,3.47-1.42,5.85,5.85,0,0,1,3.89,1.58,5.42,5.42,0,0,1,1.9,4,6.38,6.38,0,0,1-2.09,4.68q-10.8,12-24.83,13.63h-1.12q-7.51,0-11.35-7t-4.51-17.76A8.22,8.22,0,0,1,139.35,134ZM175,74.05q-6.09,0-11.33,10.62a73.75,73.75,0,0,0-6.9,23.46q10.53-10.3,15.19-17.2a25.71,25.71,0,0,0,4.36-15.61A1.17,1.17,0,0,0,175,74.05Z"/><path class="cls-3" d="M218.4,110.19l4.3-.48h1q4.64,0,4.79,4.44a5.51,5.51,0,0,1-.11,1.59l-3.63,25.51a4.69,4.69,0,0,0-.11,1.43q.09,2.85,2.49,2.85t6.23-2.77a29.34,29.34,0,0,0,6.88-7.21,4.92,4.92,0,0,1,3.46-1.75c1.17,0,2.22.93,3.13,2.78a12,12,0,0,1,1.44,4.83,10.73,10.73,0,0,1-.36,3.49,44,44,0,0,1-9.68,9.51q-5.87,4.28-11.46,4.28c-3.74,0-6.67-.95-8.82-2.85a10.52,10.52,0,0,1-3.66-6.82l-2,2.85q-5.34,7.77-13.58,7.77t-12.9-5.31q-4.65-5.31-4.93-13.55-.49-15.06,9.65-25.2t21.34-10.15c4.37,0,6.6,1.17,6.68,3.49Zm-17.2,36.14a9.92,9.92,0,0,0,7.16-3.41q3.33-3.4,4.69-10.7l3.11-17.12q-9.42.48-15.64,8.4t-6,15.38Q194.79,146.32,201.2,146.33Z"/><path class="cls-3" d="M266.45,126.2q-.45,1.11-3.86,9.11t-7.06,18.78q-2.4,4.75-8.16,4.76-7.85,0-8.21-11.26l-.11-3.17a104.9,104.9,0,0,1,3.16-30.11q2.79-7.77,8.86-7.77a5.37,5.37,0,0,1,4,1.59,5,5,0,0,1,1.63,3.25q0,1.66-1.65,10.77a108.92,108.92,0,0,1-2.86,12.61,87.74,87.74,0,0,1,10.43-18.47q6.88-9.58,10.88-9.59,8,0,8.17,5.23a18.73,18.73,0,0,1-1.51,7.45c-1.08,2.75-1.62,4.18-1.62,4.28,0,.53.85.79,2.51.79s6-1.42,13.06-4.28h.16q1.59,0,3.93,2.7c1.55,1.8,2.35,3.27,2.38,4.44,0,.53-.13.84-.44.95Q289.37,137,277.92,137t-11.7-7.92A14.15,14.15,0,0,1,266.45,126.2Z"/><path class="cls-3" d="M284.94,134c-.85,0-1.75-.6-2.7-1.82a7.35,7.35,0,0,1-1.5-4.36,3.79,3.79,0,0,1,2-3.72c1.41-.8,2.85-1.61,4.31-2.46A122.31,122.31,0,0,1,297.6,81.34a50.61,50.61,0,0,1,10.82-16.17q6.51-6.33,13.15-6.34t9.79,3.25a11.63,11.63,0,0,1,3.3,8l0,1.42a42.5,42.5,0,0,1-6.89,21.32A75.59,75.59,0,0,1,311.7,111q10.28-3.65,13.16-3.64a4.79,4.79,0,0,1,3.33,1.5,5.63,5.63,0,0,1,1.66,4q.07,2.53-3.25,3.33-9.06,1.91-26.38,10.3c0,2.12,0,4.12,0,6q.45,13.78,5.26,13.79h.64q7-1.44,15.33-10.31A4.67,4.67,0,0,1,325,134.6a5.85,5.85,0,0,1,3.89,1.58,5.37,5.37,0,0,1,1.89,4,6.33,6.33,0,0,1-2.08,4.68q-10.8,12-24.83,13.63h-1.12q-7.52,0-11.35-7t-4.51-17.76A8.26,8.26,0,0,1,284.94,134Zm35.62-59.91q-6.09,0-11.33,10.62a73.75,73.75,0,0,0-6.9,23.46q10.53-10.3,15.19-17.2a25.71,25.71,0,0,0,4.36-15.61A1.17,1.17,0,0,0,320.56,74.05Z"/><path class="cls-4" d="M77.38,162.7q28.49,0,28.48-17.6,0-7.69-7-12.81a69.86,69.86,0,0,0-6.72-4.55q-2.88-1.68-9.28-4.89t-8.48-4.31q-2.09-1.12-5.44-2.88t-4.48-2.4L60.58,111a41.28,41.28,0,0,1-3.76-2.39l-3.2-2.48a12.9,12.9,0,0,1-3-3c-.53-.86-1.23-1.92-2.08-3.21q-3.19-4.47-3.2-12.79a22.08,22.08,0,0,1,7-16.33Q65.86,57.41,91.94,57.41q16.64,0,27.2,6.56T130,82.7a26.37,26.37,0,0,1-7.36,18.23q-4.48,4.48-8.48,4.48a8.79,8.79,0,0,1-6.24-2.08,6.37,6.37,0,0,1-2.24-4.79,7.64,7.64,0,0,1,1.92-4.8,14.45,14.45,0,0,0,5.12-11q0-12.33-22.72-12.33-11.35,0-17.84,4.41T65.7,85.89A13.37,13.37,0,0,0,67.14,92a7.08,7.08,0,0,0,2,2.65c1,.9,1.92,1.67,2.72,2.31a27.81,27.81,0,0,0,4,2.48q2.81,1.53,4.8,2.65t6.24,3.27l9.68,5q5.44,2.8,11.2,6,9.77,5.61,13.6,11,4.8,6.72,4.8,16.64,0,15.38-13.76,24.09t-35.68,8.72q-26.08,0-38.72-13.45a26.4,26.4,0,0,1-7.52-17.44v-1.27a19.56,19.56,0,0,1,4.72-12.88,15.5,15.5,0,0,1,12.56-5.68q5.28,0,5.28,4.79c0,1.5-.75,3.44-2.24,5.85a13.93,13.93,0,0,0-2.24,7.44q0,9.92,7.2,14.23T77.38,162.7Z"/><path class="cls-4" d="M136.9,133.41c-.86,0-1.73-.61-2.64-1.83a7.2,7.2,0,0,1-1.36-4.4,4,4,0,0,1,2.16-3.77q2.16-1.18,4.4-2.48A127.58,127.58,0,0,1,151.3,80.29,53.56,53.56,0,0,1,162.66,64q6.72-6.39,13.36-6.39t9.68,3.27a11.45,11.45,0,0,1,3,8.08v1.44a44.47,44.47,0,0,1-7.6,21.52,80,80,0,0,1-16.72,18.33q10.4-3.69,13.28-3.68a4.56,4.56,0,0,1,3.28,1.52,5.52,5.52,0,0,1,1.52,4.08q0,2.55-3.36,3.35-9.12,1.94-26.72,10.4-.16,3.21-.16,6.08,0,13.93,4.8,13.92h.64q7-1.44,15.68-10.4a4.81,4.81,0,0,1,3.52-1.43,5.57,5.57,0,0,1,3.84,1.6,5.26,5.26,0,0,1,1.76,4.08,6.65,6.65,0,0,1-2.24,4.71q-11.2,12.17-25.28,13.77h-1.12q-7.52,0-11.12-7t-3.92-17.92A9.12,9.12,0,0,1,136.9,133.41Zm37.6-60.48q-6.08,0-11.68,10.73a77.06,77.06,0,0,0-7.68,23.67Q166,96.94,170.9,90a26.8,26.8,0,0,0,4.88-15.75A1.14,1.14,0,0,0,174.5,72.93Z"/><path class="cls-4" d="M216.74,109.41l4.32-.48h1c3.09,0,4.64,1.5,4.64,4.48a5.8,5.8,0,0,1-.16,1.6L222,140.78a4.74,4.74,0,0,0-.16,1.44q0,2.88,2.4,2.88c1.6,0,3.7-.94,6.32-2.81A30.87,30.87,0,0,0,237.7,135a5.05,5.05,0,0,1,3.52-1.75c1.17,0,2.18.93,3,2.8a12.08,12.08,0,0,1,1.28,4.87,11.21,11.21,0,0,1-.48,3.52,46.58,46.58,0,0,1-10,9.61q-6,4.31-11.6,4.31c-3.74,0-6.64-1-8.72-2.88a10.17,10.17,0,0,1-3.44-6.87l-2.08,2.87q-5.61,7.84-13.84,7.84T182.66,154q-4.49-5.35-4.48-13.68,0-15.19,10.48-25.44t21.68-10.23q6.56,0,6.56,3.52Zm-18.4,36.48c2.56,0,5-1.14,7.28-3.44s4-5.89,5-10.79l3.68-17.29q-9.45.5-15.92,8.48t-6.48,15.52Q191.94,145.9,198.34,145.89Z"/><path class="cls-4" d="M264.26,125.58q-.48,1.11-4.16,9.2t-7.68,19a8.75,8.75,0,0,1-8.32,4.8q-7.84,0-7.84-11.36V144a107.61,107.61,0,0,1,4.16-30.39q3-7.85,9.12-7.84a5.19,5.19,0,0,1,3.92,1.59,4.8,4.8,0,0,1,1.52,3.29q0,1.68-2,10.87a116.64,116.64,0,0,1-3.28,12.73,92.74,92.74,0,0,1,11-18.64q7.2-9.69,11.2-9.69,8,0,8,5.29a19.68,19.68,0,0,1-1.76,7.52c-1.18,2.77-1.76,4.21-1.76,4.31,0,.54.82.8,2.48.8s6.05-1.44,13.2-4.32h.16q1.59,0,3.84,2.73t2.24,4.48q0,.8-.48,1-11,8.79-22.48,8.79t-11.44-8A14.21,14.21,0,0,1,264.26,125.58Z"/><path class="cls-4" d="M282.5,133.41q-1.29,0-2.64-1.83a7.2,7.2,0,0,1-1.36-4.4,4,4,0,0,1,2.16-3.77c1.44-.79,2.9-1.62,4.4-2.48A127.58,127.58,0,0,1,296.9,80.29,53.56,53.56,0,0,1,308.26,64q6.72-6.39,13.36-6.39t9.68,3.27a11.49,11.49,0,0,1,3,8.08v1.44a44.57,44.57,0,0,1-7.6,21.52A80.19,80.19,0,0,1,310,110.22q10.39-3.69,13.28-3.68a4.58,4.58,0,0,1,3.28,1.52,5.52,5.52,0,0,1,1.52,4.08q0,2.55-3.36,3.35-9.12,1.94-26.72,10.4-.16,3.21-.16,6.08,0,13.93,4.8,13.92h.64q7-1.44,15.68-10.4a4.81,4.81,0,0,1,3.52-1.43,5.61,5.61,0,0,1,3.84,1.6,5.26,5.26,0,0,1,1.76,4.08,6.65,6.65,0,0,1-2.24,4.71q-11.21,12.17-25.28,13.77h-1.12q-7.53,0-11.12-7t-3.92-17.92A9.12,9.12,0,0,1,282.5,133.41Zm37.6-60.48q-6.09,0-11.68,10.73a76.79,76.79,0,0,0-7.68,23.67Q311.62,96.94,316.5,90a26.8,26.8,0,0,0,4.88-15.75A1.14,1.14,0,0,0,320.1,72.93Z"/></svg>
