<svg id="Layer_1" data-name="Layer 1" xmlns="http://www.w3.org/2000/svg" width="440" height="80" viewBox="0 0 440 80"><defs><style>.cls-1{opacity:0.6;}.cls-2{fill:#ff1d25;}.cls-3{fill:#c9bb8d;}</style></defs><title>tid_bar</title><rect class="cls-1" y="4.16" width="440" height="64" rx="13.45"/><rect class="cls-2" x="1" y="4.16" width="315" height="64" rx="14.48"/><path class="cls-3" d="M313.1,78.91c-.28-12.54-.19-25.86.42-39.87.55-12.71,1.48-24.8,2.67-36.23a3.65,3.65,0,0,1,3.72-.58,3.71,3.71,0,0,1,2,2.26l-7.05,74.78a1,1,0,0,1-1.15.6A1,1,0,0,1,313.1,78.91Z"/><path class="cls-3" d="M324.25,76.73q-8.92-36.66-17.86-73.32a2.53,2.53,0,1,1,4.83-1.49q5,21.63,9.55,44.56,3,15.09,5.54,29.74a1.08,1.08,0,1,1-2.06.51Z"/><path class="cls-3" d="M313.31,78.7c-.28-12.55-.19-25.86.42-39.88.55-12.7,1.48-24.8,2.67-36.22A3.61,3.61,0,0,1,320.12,2a3.52,3.52,0,0,1,1.42,1.37,2.88,2.88,0,0,1,.31,1c-.08,1-.22,2.62-.4,4.55-.25,2.62-.43,3.91-.65,6.26-.14,1.55-.4,4.26-.6,6.57-.47,5.39-.94,9.79-1.77,18.49-.8,8.35-1.59,16.5-2.42,26.8-.4,4.95-.71,9.09-.92,12-.29.3-.75.71-1.15.59A1,1,0,0,1,313.31,78.7Z"/></svg>
